<?xml version="1.0" encoding="UTF-8" standalone="no"?>
<!-- Created with Inkscape (http://www.inkscape.org/) -->

<svg
   width="199.79451mm"
   height="37.681992mm"
   viewBox="0 0 199.79451 37.681991"
   version="1.1"
   id="svg5"
   inkscape:version="1.3.2 (091e20e, 2023-11-25)"
   sodipodi:docname="logo_with_text.svg"
   inkscape:export-filename="C:\Users\Alexander\Julia Projects\LatticeModels\docs\LatticeModels.png"
   inkscape:export-xdpi="96"
   inkscape:export-ydpi="96"
   xmlns:inkscape="http://www.inkscape.org/namespaces/inkscape"
   xmlns:sodipodi="http://sodipodi.sourceforge.net/DTD/sodipodi-0.dtd"
   xmlns:xlink="http://www.w3.org/1999/xlink"
   xmlns="http://www.w3.org/2000/svg"
   xmlns:svg="http://www.w3.org/2000/svg">
  <sodipodi:namedview
     id="namedview7"
     pagecolor="#ffffff"
     bordercolor="#666666"
     borderopacity="1.0"
     inkscape:pageshadow="2"
     inkscape:pageopacity="0.0"
     inkscape:pagecheckerboard="0"
     inkscape:document-units="mm"
     showgrid="false"
     inkscape:zoom="1.7876648"
     inkscape:cx="420.10113"
     inkscape:cy="-74.119041"
     inkscape:window-width="1728"
     inkscape:window-height="1052"
     inkscape:window-x="0"
     inkscape:window-y="65"
     inkscape:window-maximized="0"
     inkscape:current-layer="layer1"
     height="200mm"
     showguides="false"
     inkscape:showpageshadow="2"
     inkscape:deskcolor="#d1d1d1">
    <inkscape:page
       x="0"
       y="0"
       width="199.79451"
       height="37.681992"
       id="page1"
       margin="0"
       bleed="0" />
  </sodipodi:namedview>
  <defs
     id="defs2">
    <pattern
       inkscape:collect="always"
       xlink:href="#pattern6-7"
       preserveAspectRatio="xMidYMid"
       id="pattern6"
       patternTransform="translate(190,350)" />
    <pattern
       patternUnits="userSpaceOnUse"
       width="29"
       height="20"
       patternTransform="translate(190,350)"
       preserveAspectRatio="xMidYMid"
       style="fill:#000000"
       id="pattern6-7"
       inkscape:label=""
       inkscape:collect="always"
       inkscape:isstock="true">
      <path
         style="fill:none;stroke:#000000;stroke-width:10;stroke-linecap:butt;stroke-dasharray:none;paint-order:stroke markers fill;stop-color:#000000"
         d="M 0,5 C 19,5 10,15 29,15"
         id="path4-2"
         sodipodi:nodetypes="cc" />
    </pattern>
    <marker
       style="overflow:visible"
       id="DotL"
       refX="0"
       refY="0"
       orient="auto"
       inkscape:stockid="DotL"
       inkscape:isstock="true">
      <path
         transform="matrix(0.8,0,0,0.8,5.92,0.8)"
         style="fill:context-stroke;fill-rule:evenodd;stroke:context-stroke;stroke-width:1pt"
         d="m -2.5,-1 c 0,2.76 -2.24,5 -5,5 -2.76,0 -5,-2.24 -5,-5 0,-2.76 2.24,-5 5,-5 2.76,0 5,2.24 5,5 z"
         id="path1097" />
    </marker>
    <filter
       inkscape:collect="always"
       style="color-interpolation-filters:sRGB"
       id="filter1636"
       x="-0.063131933"
       y="-0.054673582"
       width="1.1262639"
       height="1.1093472">
      <feGaussianBlur
         inkscape:collect="always"
         stdDeviation="5.3271861"
         id="feGaussianBlur1638" />
    </filter>
    <filter
       inkscape:collect="always"
       style="color-interpolation-filters:sRGB"
       id="filter1640"
       x="-0.027430724"
       y="-0.023755428"
       width="1.0548614"
       height="1.0475109">
      <feGaussianBlur
         inkscape:collect="always"
         stdDeviation="0.85315024"
         id="feGaussianBlur1642" />
    </filter>
    <filter
       inkscape:collect="always"
       style="color-interpolation-filters:sRGB"
       id="filter1644"
       x="-0.063131933"
       y="-0.054673582"
       width="1.1262639"
       height="1.1093472">
      <feGaussianBlur
         inkscape:collect="always"
         stdDeviation="5.3271862"
         id="feGaussianBlur1646" />
    </filter>
    <filter
       inkscape:collect="always"
       style="color-interpolation-filters:sRGB"
       id="filter1648"
       x="-0.039955354"
       y="-0.039955354"
       width="1.0799107"
       height="1.0799107">
      <feGaussianBlur
         inkscape:collect="always"
         stdDeviation="0.16416719"
         id="feGaussianBlur1650" />
    </filter>
    <filter
       inkscape:collect="always"
       style="color-interpolation-filters:sRGB"
       id="filter1652"
       x="-0.039955354"
       y="-0.039955354"
       width="1.0799107"
       height="1.0799107">
      <feGaussianBlur
         inkscape:collect="always"
         stdDeviation="0.16416719"
         id="feGaussianBlur1654" />
    </filter>
    <filter
       inkscape:collect="always"
       style="color-interpolation-filters:sRGB"
       id="filter1656"
       x="-0.039955354"
       y="-0.039955354"
       width="1.0799107"
       height="1.0799107">
      <feGaussianBlur
         inkscape:collect="always"
         stdDeviation="0.16416719"
         id="feGaussianBlur1658" />
    </filter>
    <filter
       inkscape:collect="always"
       style="color-interpolation-filters:sRGB"
       id="filter1660"
       x="-0.039955354"
       y="-0.039955354"
       width="1.0799107"
       height="1.0799107">
      <feGaussianBlur
         inkscape:collect="always"
         stdDeviation="0.16416719"
         id="feGaussianBlur1662" />
    </filter>
    <filter
       inkscape:collect="always"
       style="color-interpolation-filters:sRGB"
       id="filter1664"
       x="-0.039955354"
       y="-0.039955354"
       width="1.0799107"
       height="1.0799107">
      <feGaussianBlur
         inkscape:collect="always"
         stdDeviation="0.16416719"
         id="feGaussianBlur1666" />
    </filter>
    <filter
       inkscape:collect="always"
       style="color-interpolation-filters:sRGB"
       id="filter1668"
       x="-0.039955354"
       y="-0.039955354"
       width="1.0799107"
       height="1.0799107">
      <feGaussianBlur
         inkscape:collect="always"
         stdDeviation="0.16416719"
         id="feGaussianBlur1670" />
    </filter>
    <filter
       inkscape:collect="always"
       style="color-interpolation-filters:sRGB"
       id="filter1672"
       x="-0.039955354"
       y="-0.039955354"
       width="1.0799107"
       height="1.0799107">
      <feGaussianBlur
         inkscape:collect="always"
         stdDeviation="0.16416719"
         id="feGaussianBlur1674" />
    </filter>
    <filter
       inkscape:collect="always"
       style="color-interpolation-filters:sRGB"
       id="filter1676"
       x="-0.039955354"
       y="-0.039955354"
       width="1.0799107"
       height="1.0799107">
      <feGaussianBlur
         inkscape:collect="always"
         stdDeviation="0.16416719"
         id="feGaussianBlur1678" />
    </filter>
    <filter
       inkscape:collect="always"
       style="color-interpolation-filters:sRGB"
       id="filter1680"
       x="-0.039955354"
       y="-0.039955354"
       width="1.0799107"
       height="1.0799107">
      <feGaussianBlur
         inkscape:collect="always"
         stdDeviation="0.16416719"
         id="feGaussianBlur1682" />
    </filter>
    <filter
       inkscape:collect="always"
       style="color-interpolation-filters:sRGB"
       id="filter1684"
       x="-0.039955354"
       y="-0.039955354"
       width="1.0799107"
       height="1.0799107">
      <feGaussianBlur
         inkscape:collect="always"
         stdDeviation="0.16416719"
         id="feGaussianBlur1686" />
    </filter>
    <filter
       inkscape:collect="always"
       style="color-interpolation-filters:sRGB"
       id="filter1688"
       x="-0.039955354"
       y="-0.039955354"
       width="1.0799107"
       height="1.0799107">
      <feGaussianBlur
         inkscape:collect="always"
         stdDeviation="0.16416719"
         id="feGaussianBlur1690" />
    </filter>
    <filter
       inkscape:collect="always"
       style="color-interpolation-filters:sRGB"
       id="filter1692"
       x="-0.039955354"
       y="-0.039955354"
       width="1.0799107"
       height="1.0799107">
      <feGaussianBlur
         inkscape:collect="always"
         stdDeviation="0.16416719"
         id="feGaussianBlur1694" />
    </filter>
    <filter
       inkscape:collect="always"
       style="color-interpolation-filters:sRGB"
       id="filter1696"
       x="-0.039955354"
       y="-0.039955354"
       width="1.0799107"
       height="1.0799107">
      <feGaussianBlur
         inkscape:collect="always"
         stdDeviation="0.16416719"
         id="feGaussianBlur1698" />
    </filter>
    <filter
       inkscape:collect="always"
       style="color-interpolation-filters:sRGB"
       id="filter6"
       x="-0.014230423"
       y="-0.11012711"
       width="1.0284608"
       height="1.2202542">
      <feGaussianBlur
         inkscape:collect="always"
         stdDeviation="4.1439987"
         id="feGaussianBlur6" />
    </filter>
    <filter
       inkscape:collect="always"
       style="color-interpolation-filters:sRGB"
       id="filter18"
       x="-0.098179345"
       y="-0.097172193"
       width="1.1785081"
       height="1.1943444">
      <feGaussianBlur
         inkscape:collect="always"
         stdDeviation="5.1142645"
         id="feGaussianBlur18" />
    </filter>
  </defs>
  <g
     inkscape:label="Слой 1"
     inkscape:groupmode="layer"
     id="layer1"
     transform="translate(702.07586,-11.003254)"
     style="display:inline">
    <g
       id="g16"
       inkscape:label="logo_halo"
       transform="matrix(0.17957485,0,0,0.17957485,-569.32783,10.530745)"
       style="display:inline;opacity:0.7;mix-blend-mode:normal;fill:none;stroke:#ffffff;stroke-width:3.8;stroke-linejoin:round;stroke-dasharray:none;stroke-opacity:1;filter:url(#filter18)">
      <path
         sodipodi:type="star"
         style="fill:none;fill-opacity:1;stroke:#ffffff;stroke-width:12.4053;stroke-linejoin:round;stroke-dasharray:none;stroke-opacity:1;paint-order:stroke fill markers;filter:url(#filter1640)"
         id="path8"
         inkscape:flatsided="true"
         sodipodi:sides="6"
         sodipodi:cx="187.55316"
         sodipodi:cy="195.95107"
         sodipodi:r1="173.64694"
         sodipodi:r2="150.38266"
         sodipodi:arg1="1.5707963"
         sodipodi:arg2="2.0943951"
         inkscape:rounded="0"
         inkscape:randomized="0"
         transform="matrix(0.30631991,0,0,0.30631991,-644.72701,87.679413)"
         d="m 187.55317,369.59801 -150.382669,-86.82347 -5e-6,-173.64694 150.382664,-86.823477 150.38266,86.823467 1e-5,173.64694 z" />
      <path
         sodipodi:type="star"
         style="display:inline;fill:none;fill-opacity:1;stroke:#ffffff;stroke-width:12.4053;stroke-linejoin:round;stroke-dasharray:none;stroke-opacity:1;paint-order:stroke fill markers;filter:url(#filter1636)"
         id="path9"
         inkscape:flatsided="true"
         sodipodi:sides="6"
         sodipodi:cx="187.55316"
         sodipodi:cy="195.95107"
         sodipodi:r1="173.64694"
         sodipodi:r2="150.38266"
         sodipodi:arg1="1.5707963"
         sodipodi:arg2="2.0943951"
         inkscape:rounded="0"
         inkscape:randomized="0"
         transform="matrix(0.30631991,0,0,0.30631991,-690.79222,7.8921451)"
         d="m 187.55317,369.59801 -150.382669,-86.82347 -5e-6,-173.64694 150.382664,-86.823477 150.38266,86.823467 1e-5,173.64694 z" />
      <path
         sodipodi:type="star"
         style="display:inline;fill:none;fill-opacity:1;stroke:#ffffff;stroke-width:12.4053;stroke-linejoin:round;stroke-dasharray:none;stroke-opacity:1;paint-order:stroke fill markers;filter:url(#filter1644)"
         id="path10"
         inkscape:flatsided="true"
         sodipodi:sides="6"
         sodipodi:cx="187.55316"
         sodipodi:cy="195.95107"
         sodipodi:r1="173.64694"
         sodipodi:r2="150.38266"
         sodipodi:arg1="1.5707963"
         sodipodi:arg2="2.0943951"
         inkscape:rounded="0"
         inkscape:randomized="0"
         d="m 187.55317,369.59801 -150.382669,-86.82347 -5e-6,-173.64694 150.382664,-86.823477 150.38266,86.823467 1e-5,173.64694 z"
         transform="matrix(0.3063199,0,0,0.3063199,-736.85741,87.679416)" />
      <g
         id="g12"
         style="fill:none;stroke:#ffffff;stroke-width:3.8;stroke-linejoin:round;stroke-dasharray:none;stroke-opacity:1">
        <path
           style="fill:none;stroke:#ffffff;stroke-width:3.8;stroke-linejoin:round;stroke-dasharray:none;stroke-opacity:1"
           d="m -623.77168,59.336467 -19.08726,19.564445"
           id="path12" />
        <circle
           style="display:inline;fill:none;fill-opacity:1;stroke:#ffffff;stroke-width:3.8;stroke-linejoin:round;stroke-dasharray:none;stroke-opacity:1"
           id="circle12"
           cx="-633.33661"
           cy="69.096497"
           r="20.150816" />
        <path
           style="fill:none;stroke:#ffffff;stroke-width:3.8;stroke-linejoin:round;stroke-dasharray:none;stroke-opacity:1"
           d="m -643.87436,58.345812 4.9381,5.061557"
           id="path18" />
        <path
           style="fill:none;stroke:#ffffff;stroke-width:3.8;stroke-linejoin:round;stroke-dasharray:none;stroke-opacity:1"
           d="m -627.00966,75.255007 4.57675,4.691162"
           id="path19" />
      </g>
      <g
         id="g13"
         style="fill:none;stroke:#ffffff;stroke-width:3.8;stroke-linejoin:round;stroke-dasharray:none;stroke-opacity:1">
        <ellipse
           style="fill:none;fill-opacity:1;stroke:#ffffff;stroke-width:3.8;stroke-linejoin:round;stroke-dasharray:none;stroke-opacity:1"
           id="ellipse12"
           cx="-587.35938"
           cy="147.65422"
           rx="20.150545"
           ry="20.150816" />
        <circle
           style="fill:none;fill-opacity:1;fill-rule:evenodd;stroke:#ffffff;stroke-width:3.8;stroke-linejoin:round;stroke-dasharray:none;stroke-opacity:1"
           id="circle13"
           cx="-587.34894"
           cy="147.63281"
           r="1.3642448"
           transform="translate(-7.0833335e-6)" />
      </g>
      <g
         id="g15"
         transform="translate(-7.0833335e-6)"
         style="fill:none;stroke:#ffffff;stroke-width:3.8;stroke-linejoin:round;stroke-dasharray:none;stroke-opacity:1">
        <path
           style="fill:none;fill-opacity:1;stroke:#ffffff;stroke-width:3.8;stroke-linejoin:round;stroke-dasharray:none;stroke-opacity:1"
           id="path13"
           sodipodi:type="arc"
           sodipodi:cx="-679.46771"
           sodipodi:cy="147.69514"
           sodipodi:rx="20.150816"
           sodipodi:ry="20.150816"
           sodipodi:start="2.0594885"
           sodipodi:end="1.0821041"
           sodipodi:arc-type="arc"
           d="m -688.92795,165.48726 a 20.150816,20.150816 0 0 1 -10.09201,-22.66704 20.150816,20.150816 0 0 1 19.55225,-15.27589 20.150816,20.150816 0 0 1 19.55225,15.27589 20.150816,20.150816 0 0 1 -10.09202,22.66704"
           sodipodi:open="true"
           transform="translate(-7.0833335e-6)" />
        <path
           style="fill:none;stroke:#ffffff;stroke-width:3.8;stroke-linejoin:round;stroke-dasharray:none;stroke-opacity:1"
           d="m -670.0075,165.48718 2.58468,-4.96993"
           id="path14" />
        <path
           style="fill:none;stroke:#ffffff;stroke-width:3.8;stroke-linejoin:round;stroke-dasharray:none;stroke-opacity:1"
           d="m -669.98615,165.4975 5.57711,-0.52601"
           id="path15"
           inkscape:transform-center-x="-2.9305874"
           inkscape:transform-center-y="-0.53000247" />
      </g>
    </g>
    <path
       sodipodi:type="star"
       style="display:inline;fill:none;fill-opacity:1;stroke:#9558b2;stroke-width:9.50123;stroke-linecap:butt;stroke-linejoin:round;stroke-miterlimit:4;stroke-dasharray:none;stroke-dashoffset:22.4014;stroke-opacity:1;paint-order:stroke fill markers"
       id="path1490-4"
       inkscape:flatsided="true"
       sodipodi:sides="6"
       sodipodi:cx="187.55316"
       sodipodi:cy="195.95107"
       sodipodi:r1="173.64694"
       sodipodi:r2="150.38266"
       sodipodi:arg1="1.5707963"
       sodipodi:arg2="2.0943951"
       inkscape:rounded="0"
       inkscape:randomized="0"
       transform="matrix(0.05500736,0,0,0.05500736,-685.10459,26.275764)"
       d="m 187.55317,369.59801 -150.382669,-86.82347 -5e-6,-173.64694 150.382664,-86.823477 150.38266,86.823467 1e-5,173.64694 z" />
    <path
       sodipodi:type="star"
       style="display:inline;fill:none;fill-opacity:1;stroke:#389826;stroke-width:9.50123;stroke-linecap:butt;stroke-linejoin:round;stroke-miterlimit:4;stroke-dasharray:none;stroke-dashoffset:78.405;stroke-opacity:1;paint-order:stroke fill markers"
       id="path1490-2"
       inkscape:flatsided="true"
       sodipodi:sides="6"
       sodipodi:cx="187.55316"
       sodipodi:cy="195.95107"
       sodipodi:r1="173.64694"
       sodipodi:r2="150.38266"
       sodipodi:arg1="1.5707963"
       sodipodi:arg2="2.0943951"
       inkscape:rounded="0"
       inkscape:randomized="0"
       transform="matrix(0.05500736,0,0,0.05500736,-693.37675,11.947976)"
       d="m 187.55317,369.59801 -150.382669,-86.82347 -5e-6,-173.64694 150.382664,-86.823477 150.38266,86.823467 1e-5,173.64694 z" />
    <path
       sodipodi:type="star"
       style="display:inline;fill:none;fill-opacity:1;stroke:#cb3c33;stroke-width:9.50123;stroke-linecap:butt;stroke-linejoin:round;stroke-miterlimit:4;stroke-dasharray:none;stroke-dashoffset:22.4014;stroke-opacity:1;paint-order:stroke fill markers"
       id="path1490"
       inkscape:flatsided="true"
       sodipodi:sides="6"
       sodipodi:cx="187.55316"
       sodipodi:cy="195.95107"
       sodipodi:r1="173.64694"
       sodipodi:r2="150.38266"
       sodipodi:arg1="1.5707963"
       sodipodi:arg2="2.0943951"
       inkscape:rounded="0"
       inkscape:randomized="0"
       d="m 187.55317,369.59801 -150.382669,-86.82347 -5e-6,-173.64694 150.382664,-86.823477 150.38266,86.823467 1e-5,173.64694 z"
       transform="matrix(0.05500736,0,0,0.05500736,-701.64889,26.275764)" />
    <g
       id="g6"
       transform="matrix(0.17957485,0,0,0.17957485,-569.32783,10.530745)">
      <path
         style="fill:none;stroke:#7d7d7d;stroke-width:1.05833;stroke-linecap:butt;stroke-linejoin:miter;stroke-miterlimit:4;stroke-dasharray:none;stroke-dashoffset:0;stroke-opacity:1"
         d="m -647.4139,55.167273 28.11849,28.118602"
         id="path5078"
         transform="translate(-7.0833335e-6)" />
      <path
         style="fill:none;stroke:#7d7d7d;stroke-width:1.05833;stroke-linecap:butt;stroke-linejoin:miter;stroke-miterlimit:4;stroke-dasharray:none;stroke-dashoffset:0;stroke-opacity:1"
         d="M -619.34531,54.799662 -647.1873,83.337704"
         id="path5078-3"
         transform="translate(-7.0833335e-6)" />
      <circle
         style="display:inline;fill:none;fill-opacity:1;stroke:#7d7d7d;stroke-width:1.05833;stroke-linecap:round;stroke-linejoin:round;stroke-miterlimit:4;stroke-dasharray:none;stroke-dashoffset:0;stroke-opacity:1"
         id="path3325-9"
         r="20.150816"
         cy="69.096497"
         cx="-633.33661" />
    </g>
    <g
       id="g7"
       transform="matrix(0.17957485,0,0,0.17957485,-569.32783,10.530745)">
      <ellipse
         style="fill:none;fill-opacity:1;stroke:#7d7d7d;stroke-width:1.05833;stroke-linecap:round;stroke-linejoin:round;stroke-miterlimit:4;stroke-dasharray:none;stroke-dashoffset:0;stroke-opacity:1"
         id="path3325-9-8"
         cx="-587.35938"
         cy="147.65422"
         rx="20.150545"
         ry="20.150816" />
      <circle
         style="fill:#7d7d7d;fill-opacity:1;fill-rule:evenodd;stroke:none;stroke-width:1.05833;stroke-miterlimit:4;stroke-dasharray:none;stroke-dashoffset:0;stroke-opacity:1"
         id="path811"
         cx="-587.34894"
         cy="147.63281"
         r="1.3642448"
         transform="translate(-7.0833335e-6)" />
    </g>
    <g
       id="g8"
       transform="matrix(0.17957485,0,0,0.17957485,-569.32783,10.530745)">
      <path
         style="fill:none;fill-opacity:1;stroke:#7d7d7d;stroke-width:1.05833;stroke-linecap:round;stroke-linejoin:round;stroke-miterlimit:4;stroke-dasharray:none;stroke-dashoffset:0;stroke-opacity:1"
         id="path3325"
         sodipodi:type="arc"
         sodipodi:cx="-679.46771"
         sodipodi:cy="147.69514"
         sodipodi:rx="20.150816"
         sodipodi:ry="20.150816"
         sodipodi:start="2.0594885"
         sodipodi:end="1.0821041"
         sodipodi:arc-type="arc"
         d="m -688.92795,165.48726 a 20.150816,20.150816 0 0 1 -10.09201,-22.66704 20.150816,20.150816 0 0 1 19.55225,-15.27589 20.150816,20.150816 0 0 1 19.55225,15.27589 20.150816,20.150816 0 0 1 -10.09202,22.66704"
         sodipodi:open="true"
         transform="translate(-7.0833335e-6)" />
      <path
         style="fill:none;stroke:#7d7d7d;stroke-width:1.05833;stroke-linecap:round;stroke-linejoin:miter;stroke-miterlimit:4;stroke-dasharray:none;stroke-dashoffset:0;stroke-opacity:1"
         d="m -670.0075,165.48718 2.58468,-4.96993"
         id="path3567" />
      <path
         style="fill:none;stroke:#7d7d7d;stroke-width:1.05833;stroke-linecap:round;stroke-linejoin:miter;stroke-miterlimit:4;stroke-dasharray:none;stroke-dashoffset:0;stroke-opacity:1"
         d="m -669.98615,165.4975 5.57711,-0.52601"
         id="path3567-2"
         inkscape:transform-center-x="-2.9305874"
         inkscape:transform-center-y="-0.53000247" />
    </g>
    <g
       id="g1713"
       style="display:inline"
       transform="matrix(0.17957485,0,0,0.17957485,-701.10056,11.839746)"
       inkscape:label="points_halo">
      <circle
         style="fill:#ffffff;fill-opacity:1;stroke:none;stroke-width:2.43126;stroke-linejoin:round;stroke-miterlimit:4;stroke-dasharray:none;stroke-dashoffset:0;stroke-opacity:1;filter:url(#filter1676)"
         id="path2063"
         cx="54.397739"
         cy="87.22216"
         r="4.9305191" />
      <circle
         style="fill:#ffffff;fill-opacity:1;stroke:none;stroke-width:2.43126;stroke-linejoin:round;stroke-miterlimit:4;stroke-dasharray:none;stroke-dashoffset:0;stroke-opacity:1;filter:url(#filter1668)"
         id="path2063-8"
         cx="100.46298"
         cy="113.81792"
         r="4.9305191" />
      <circle
         style="fill:#ffffff;fill-opacity:1;stroke:none;stroke-width:2.43126;stroke-linejoin:round;stroke-miterlimit:4;stroke-dasharray:none;stroke-dashoffset:0;stroke-opacity:1;filter:url(#filter1680)"
         id="path2063-5"
         cx="8.3325529"
         cy="113.81792"
         r="4.9305191" />
      <circle
         style="fill:#ffffff;fill-opacity:1;stroke:none;stroke-width:2.43126;stroke-linejoin:round;stroke-miterlimit:4;stroke-dasharray:none;stroke-dashoffset:0;stroke-opacity:1;filter:url(#filter1684)"
         id="path2063-3"
         cx="8.3325529"
         cy="167.00955"
         r="4.9305191" />
      <circle
         style="fill:#ffffff;fill-opacity:1;stroke:none;stroke-width:2.43126;stroke-linejoin:round;stroke-miterlimit:4;stroke-dasharray:none;stroke-dashoffset:0;stroke-opacity:1;filter:url(#filter1648)"
         id="path2063-7"
         cx="54.397739"
         cy="193.6053"
         r="4.9305191" />
      <circle
         style="fill:#ffffff;fill-opacity:1;stroke:none;stroke-width:2.43126;stroke-linejoin:round;stroke-miterlimit:4;stroke-dasharray:none;stroke-dashoffset:0;stroke-opacity:1;filter:url(#filter1652)"
         id="path2063-34"
         cx="100.46298"
         cy="167.00955"
         r="4.9305191" />
      <circle
         style="fill:#ffffff;fill-opacity:1;stroke:none;stroke-width:2.43126;stroke-linejoin:round;stroke-miterlimit:4;stroke-dasharray:none;stroke-dashoffset:0;stroke-opacity:1;filter:url(#filter1656)"
         id="path2063-1"
         cx="146.52846"
         cy="193.6053"
         r="4.9305191" />
      <circle
         style="fill:#ffffff;fill-opacity:1;stroke:none;stroke-width:2.43126;stroke-linejoin:round;stroke-miterlimit:4;stroke-dasharray:none;stroke-dashoffset:0;stroke-opacity:1;filter:url(#filter1660)"
         id="path2063-72"
         cx="192.59366"
         cy="167.00955"
         r="4.9305191" />
      <circle
         style="fill:#ffffff;fill-opacity:1;stroke:none;stroke-width:2.43126;stroke-linejoin:round;stroke-miterlimit:4;stroke-dasharray:none;stroke-dashoffset:0;stroke-opacity:1;filter:url(#filter1664)"
         id="path2063-78"
         cx="192.59366"
         cy="113.81792"
         r="4.9305191" />
      <circle
         style="fill:#ffffff;fill-opacity:1;stroke:none;stroke-width:2.43126;stroke-linejoin:round;stroke-miterlimit:4;stroke-dasharray:none;stroke-dashoffset:0;stroke-opacity:1;filter:url(#filter1672)"
         id="path2063-24"
         cx="146.52846"
         cy="87.22216"
         r="4.9305191" />
      <circle
         style="fill:#ffffff;fill-opacity:1;stroke:none;stroke-width:2.43126;stroke-linejoin:round;stroke-miterlimit:4;stroke-dasharray:none;stroke-dashoffset:0;stroke-opacity:1;filter:url(#filter1688)"
         id="path2063-0"
         cx="146.52846"
         cy="34.030651"
         r="4.9305191" />
      <circle
         style="fill:#ffffff;fill-opacity:1;stroke:none;stroke-width:2.43126;stroke-linejoin:round;stroke-miterlimit:4;stroke-dasharray:none;stroke-dashoffset:0;stroke-opacity:1;filter:url(#filter1696)"
         id="path2063-27"
         cx="100.46298"
         cy="7.4349041"
         r="4.9305191" />
      <circle
         style="fill:#ffffff;fill-opacity:1;stroke:none;stroke-width:2.43126;stroke-linejoin:round;stroke-miterlimit:4;stroke-dasharray:none;stroke-dashoffset:0;stroke-opacity:1;filter:url(#filter1692)"
         id="path2063-9"
         cx="54.397732"
         cy="34.030651"
         r="4.9305191" />
    </g>
    <circle
       style="fill:#ffffff;fill-opacity:1;stroke:#7d7d7d;stroke-width:0.166293;stroke-linejoin:round;stroke-miterlimit:4;stroke-dasharray:none;stroke-dashoffset:0;stroke-opacity:1;paint-order:fill markers stroke"
       id="path2356"
       cx="-691.33228"
       cy="27.502657"
       r="0.41580361" />
    <circle
       style="fill:#ffffff;fill-opacity:1;stroke:#7d7d7d;stroke-width:0.166293;stroke-linejoin:round;stroke-miterlimit:4;stroke-dasharray:none;stroke-dashoffset:0;stroke-opacity:1;paint-order:fill markers stroke"
       id="path2356-9"
       cx="-691.33228"
       cy="17.950794"
       r="0.41580361" />
    <circle
       style="fill:#ffffff;fill-opacity:1;stroke:#7d7d7d;stroke-width:0.166293;stroke-linejoin:round;stroke-miterlimit:4;stroke-dasharray:none;stroke-dashoffset:0;stroke-opacity:1;paint-order:fill markers stroke"
       id="path2356-94"
       cx="-683.06012"
       cy="13.174869"
       r="0.41580361" />
    <circle
       style="fill:#ffffff;fill-opacity:1;stroke:#7d7d7d;stroke-width:0.166293;stroke-linejoin:round;stroke-miterlimit:4;stroke-dasharray:none;stroke-dashoffset:0;stroke-opacity:1;paint-order:fill markers stroke"
       id="path2356-2"
       cx="-674.7879"
       cy="17.950794"
       r="0.41580361" />
    <circle
       style="fill:#ffffff;fill-opacity:1;stroke:#7d7d7d;stroke-width:0.166293;stroke-linejoin:round;stroke-miterlimit:4;stroke-dasharray:none;stroke-dashoffset:0;stroke-opacity:1;paint-order:fill markers stroke"
       id="path2356-7"
       cx="-674.7879"
       cy="27.502657"
       r="0.41580361" />
    <circle
       style="fill:#ffffff;fill-opacity:1;stroke:#7d7d7d;stroke-width:0.166293;stroke-linejoin:round;stroke-miterlimit:4;stroke-dasharray:none;stroke-dashoffset:0;stroke-opacity:1;paint-order:fill markers stroke"
       id="path2356-76"
       cx="-666.51575"
       cy="32.278584"
       r="0.41580361" />
    <circle
       style="fill:#ffffff;fill-opacity:1;stroke:#7d7d7d;stroke-width:0.166293;stroke-linejoin:round;stroke-miterlimit:4;stroke-dasharray:none;stroke-dashoffset:0;stroke-opacity:1;paint-order:fill markers stroke"
       id="path2356-6"
       cx="-683.06012"
       cy="32.278584"
       r="0.41580361" />
    <circle
       style="fill:#ffffff;fill-opacity:1;stroke:#7d7d7d;stroke-width:0.166293;stroke-linejoin:round;stroke-miterlimit:4;stroke-dasharray:none;stroke-dashoffset:0;stroke-opacity:1;paint-order:fill markers stroke"
       id="path2356-68"
       cx="-666.51575"
       cy="41.830463"
       r="0.41580361" />
    <circle
       style="fill:#ffffff;fill-opacity:1;stroke:#7d7d7d;stroke-width:0.166293;stroke-linejoin:round;stroke-miterlimit:4;stroke-dasharray:none;stroke-dashoffset:0;stroke-opacity:1;paint-order:fill markers stroke"
       id="path2356-3"
       cx="-674.7879"
       cy="46.606392"
       r="0.41580361" />
    <circle
       style="fill:#ffffff;fill-opacity:1;stroke:#7d7d7d;stroke-width:0.166293;stroke-linejoin:round;stroke-miterlimit:4;stroke-dasharray:none;stroke-dashoffset:0;stroke-opacity:1;paint-order:fill markers stroke"
       id="path2356-8"
       cx="-683.06012"
       cy="41.830463"
       r="0.41580361" />
    <circle
       style="fill:#ffffff;fill-opacity:1;stroke:#7d7d7d;stroke-width:0.166293;stroke-linejoin:round;stroke-miterlimit:4;stroke-dasharray:none;stroke-dashoffset:0;stroke-opacity:1;paint-order:fill markers stroke"
       id="path2356-22"
       cx="-691.33228"
       cy="46.606392"
       r="0.41580361" />
    <circle
       style="fill:#ffffff;fill-opacity:1;stroke:#7d7d7d;stroke-width:0.166293;stroke-linejoin:round;stroke-miterlimit:4;stroke-dasharray:none;stroke-dashoffset:0;stroke-opacity:1;paint-order:fill markers stroke"
       id="path2356-5"
       cx="-699.60437"
       cy="41.830463"
       r="0.41580361" />
    <circle
       style="fill:#ffffff;fill-opacity:1;stroke:#7d7d7d;stroke-width:0.166293;stroke-linejoin:round;stroke-miterlimit:4;stroke-dasharray:none;stroke-dashoffset:0;stroke-opacity:1;paint-order:fill markers stroke"
       id="path2356-79"
       cx="-699.60437"
       cy="32.278584"
       r="0.41580361" />
    <path
       style="fill:none;stroke-width:0.628512;stroke-miterlimit:4;stroke-dasharray:none;stroke-dashoffset:0;paint-order:fill markers stroke"
       id="path1268"
       sodipodi:type="arc"
       sodipodi:cx="-690.3324"
       sodipodi:cy="29.544003"
       sodipodi:rx="0.49374408"
       sodipodi:ry="1.4812324"
       sodipodi:start="2.0594885"
       sodipodi:end="1.0821041"
       sodipodi:open="true"
       sodipodi:arc-type="arc"
       d="m -690.5642,30.851853 a 0.49374408,1.4812324 0 0 1 -0.24728,-1.666193 0.49374408,1.4812324 0 0 1 0.47908,-1.12289 0.49374408,1.4812324 0 0 1 0.47908,1.12289 0.49374408,1.4812324 0 0 1 -0.24728,1.666193" />
    <path
       style="font-weight:bold;font-size:109.162px;line-height:0;font-family:'Tamil MN';-inkscape-font-specification:'Tamil MN Bold';opacity:0.7;fill-opacity:0;stroke:#ffffff;stroke-width:3.8;stroke-linejoin:round;filter:url(#filter6)"
       d="m -501.87919,75.738119 h 17.74948 v 64.868241 h 36.88482 v 7.40894 h -54.6343 z m 90.23988,44.133861 q -2.39858,1.01273 -4.85046,2.45188 -2.45189,1.43914 -4.42405,3.2514 -1.91886,1.75896 -3.19811,3.94433 -1.22594,2.13207 -1.22594,4.58396 0,2.71839 1.38585,4.26414 1.43915,1.54575 3.83773,1.54575 2.02546,0 3.99763,-1.17264 1.97216,-1.22594 4.47735,-3.14481 z m -30.2754,-12.57922 q 0.85282,-3.41131 2.98489,-6.183 2.13207,-2.824997 5.27688,-4.74386 3.1981,-1.972165 7.24904,-3.0382 4.10423,-1.066035 8.84809,-1.066035 5.86319,0 10.12733,1.066035 4.26414,1.066035 6.98253,3.0382 2.7717,1.918863 4.05094,4.69055 1.33254,2.71839 1.33254,6.12971 v 31.23483 q 0,3.35801 2.07877,5.70329 2.07877,2.34527 5.86319,3.89102 h -19.61504 q -0.85283,0 -1.65236,-0.47971 -0.79952,-0.47972 -1.43914,-1.22594 -0.63963,-0.79953 -1.11934,-1.70566 -0.47972,-0.90613 -0.69292,-1.75896 -1.49245,1.38585 -2.825,2.55849 -1.33254,1.11934 -2.93159,1.91886 -1.59906,0.79953 -3.57122,1.22594 -1.97217,0.47972 -4.74386,0.47972 -3.78442,0 -6.82262,-1.06604 -2.9849,-1.06603 -5.11697,-2.93159 -2.07877,-1.91887 -3.19811,-4.47735 -1.11934,-2.61179 -1.11934,-5.64999 0,-4.69055 2.61179,-8.04856 2.61179,-3.35801 6.87593,-5.8632 4.31744,-2.50518 9.75422,-4.37074 5.43678,-1.86556 11.08677,-3.57122 v -5.33018 q 0,-2.61178 -0.53302,-4.42404 -0.53302,-1.86556 -1.49245,-2.9849 -0.95943,-1.172638 -2.34528,-1.652354 -1.33254,-0.533018 -2.9849,-0.533018 -1.97216,0 -3.51791,0.746225 -1.54575,0.746224 -2.66509,2.025467 -1.11934,1.27924 -1.81226,2.9316 -0.69292,1.65235 -1.01273,3.46461 z m 57.7258,-7.03583 V 96.3659 l 8.7948,-2.931597 V 82.347537 l 11.56648,-6.0764 h 4.95706 v 17.163166 h 13.37874 v 6.822627 h -13.37874 v 35.12586 q 0,1.65235 0.85283,2.87829 0.85283,1.22594 2.23867,1.22594 0.85283,0 1.86556,-0.58632 1.06604,-0.58632 1.97217,-1.33254 0.95943,-0.79953 1.65235,-1.59905 0.74623,-0.79953 1.06604,-1.22594 l 5.64999,4.47734 q -1.38585,2.13207 -3.0382,3.99764 -1.65236,1.81226 -3.78443,3.1448 -2.13207,1.33254 -4.90376,2.07877 -2.77169,0.79953 -6.39621,0.79953 -3.46462,0 -6.0231,-1.01274 -2.55849,-0.95943 -4.26414,-2.71839 -1.70566,-1.75896 -2.55849,-4.21084 -0.85282,-2.45188 -0.85282,-5.43678 v -35.60557 z m 44.08056,0 V 96.3659 l 8.79479,-2.931597 V 82.347537 l 11.56648,-6.0764 h 4.95706 v 17.163166 h 13.37874 v 6.822627 h -13.37874 v 35.12586 q 0,1.65235 0.85283,2.87829 0.85283,1.22594 2.23867,1.22594 0.85283,0 1.86557,-0.58632 1.06603,-0.58632 1.97216,-1.33254 0.95943,-0.79953 1.65235,-1.59905 0.74623,-0.79953 1.06604,-1.22594 l 5.64999,4.47734 q -1.38585,2.13207 -3.0382,3.99764 -1.65236,1.81226 -3.78443,3.1448 -2.13207,1.33254 -4.90376,2.07877 -2.77169,0.79953 -6.39621,0.79953 -3.46462,0 -6.0231,-1.01274 -2.55848,-0.95943 -4.26414,-2.71839 -1.70566,-1.75896 -2.55849,-4.21084 -0.85282,-2.45188 -0.85282,-5.43678 v -35.60557 z m 50.47676,-1.865563 11.61978,-6.076401 h 4.95707 V 148.0153 h -16.57685 z m -0.69292,-23.985792 q 0,-1.652354 0.69292,-3.144803 0.69292,-1.49245 1.91886,-2.558485 1.22594,-1.066035 2.82499,-1.705656 1.59906,-0.639621 3.46462,-0.639621 1.86556,0 3.46461,0.639621 1.65236,0.639621 2.825,1.705656 1.22594,1.066035 1.91886,2.558485 0.69292,1.492449 0.69292,3.144803 0,1.652355 -0.69292,3.144804 -0.69292,1.439148 -1.91886,2.505183 -1.17264,1.066035 -2.825,1.705656 -1.59905,0.639621 -3.46461,0.639621 -1.86556,0 -3.46462,-0.639621 -1.59905,-0.639621 -2.82499,-1.705656 -1.22594,-1.066035 -1.91886,-2.505183 -0.69292,-1.492449 -0.69292,-3.144804 z m 70.83804,35.125855 q -0.21321,-0.69292 -0.90613,-2.39857 -0.69292,-1.70566 -2.13207,-3.46462 -1.38585,-1.81226 -3.73113,-3.1981 -2.29197,-1.38585 -5.75659,-1.38585 -2.66508,0 -4.79715,1.33254 -2.13207,1.33255 -3.62452,3.57122 -1.49245,2.23868 -2.34528,5.22357 -0.79953,2.9849 -0.79953,6.23631 0,4.58395 1.01274,8.74149 1.06603,4.15754 2.93159,7.35564 1.86556,3.1448 4.53065,5.01037 2.66509,1.86556 5.9165,1.86556 2.77169,0 4.95706,-1.06604 2.23868,-1.11933 4.05094,-2.9849 1.81225,-1.91886 3.2514,-4.42404 1.43915,-2.55849 2.71839,-5.43678 l 7.88866,2.13207 q -1.38584,5.33018 -3.83772,9.48771 -2.45189,4.15754 -5.8632,7.03583 -3.35801,2.8783 -7.62215,4.37075 -4.26414,1.49245 -9.27451,1.49245 -5.64998,0 -10.60705,-2.13207 -4.95706,-2.18537 -8.63488,-5.8632 -3.67782,-3.73112 -5.80989,-8.63488 -2.13207,-4.95706 -2.13207,-10.50045 0,-3.99763 1.01273,-7.72875 1.06604,-3.78443 2.9316,-7.03583 1.91886,-3.30471 4.53065,-5.9698 2.66509,-2.718391 5.86319,-4.637255 3.25141,-1.918863 6.92923,-2.984898 3.67782,-1.066035 7.62215,-1.066035 4.21084,0 7.35564,0.533017 3.14481,0.533018 5.54339,1.705657 2.45188,1.172638 4.42404,3.091502 2.02547,1.865561 3.99763,4.583952 z m 50.42346,39.70982 q -5.8099,0 -10.92686,-2.13208 -5.11697,-2.18537 -8.9014,-5.80989 -3.78442,-3.67782 -6.0231,-8.47498 -2.18537,-4.85046 -2.18537,-10.23393 0,-6.44952 2.02547,-11.9396 2.02546,-5.54338 5.75659,-9.59432 3.73112,-4.050929 8.90139,-6.289603 5.22357,-2.291975 11.61978,-2.291975 5.70329,0 10.44715,1.812259 4.74386,1.81226 8.10187,4.957064 3.41131,3.144805 5.27687,7.408945 1.86556,4.26414 1.86556,9.1146 H -180.896 q 0.2132,4.53065 1.33254,8.63489 1.17264,4.10423 3.0915,7.24903 1.91886,3.09151 4.47735,4.95707 2.61179,1.81226 5.75659,1.81226 2.71839,0 5.33017,-0.90613 2.66509,-0.95943 4.90377,-2.55849 2.23867,-1.65235 3.89103,-3.78442 1.65235,-2.18537 2.39857,-4.69056 l 8.42168,1.33255 q -1.27924,4.42404 -4.10423,8.31507 -2.77169,3.89103 -6.55612,6.82263 -3.73112,2.93159 -8.15517,4.63725 -4.42404,1.65236 -8.95469,1.65236 z m 6.98253,-39.1235 q -0.21321,-2.39858 -1.06604,-4.37074 -0.79953,-2.02547 -2.07877,-3.46461 -1.27924,-1.43915 -2.9849,-2.18538 -1.70565,-0.799523 -3.67782,-0.799523 -1.54575,0 -3.0382,0.799523 -1.49245,0.74623 -2.71839,2.18538 -1.17264,1.38584 -2.02546,3.41131 -0.79953,1.97216 -1.06604,4.42404 z m 33.95324,-34.379631 h 17.26977 l 24.998526,49.357431 24.625413,-49.357431 h 16.896658 V 148.0153 h -17.696184 v -47.11875 l -23.61268,47.11875 h -6.822625 l -24.412208,-47.65177 v 47.65177 h -11.24667 z M -0.62944841,149.02804 q -6.50281459,0 -12.04619759,-2.13207 -5.490081,-2.13207 -9.541015,-5.8632 -3.997632,-3.73112 -6.289607,-8.74148 -2.238674,-5.06367 -2.238674,-10.92686 0,-6.28961 2.238674,-11.56649 2.291975,-5.33017 6.289607,-9.1679 3.997632,-3.837726 9.487713,-5.969796 5.5433832,-2.185372 12.04619783,-2.185372 6.50281457,0 12.04619717,2.13207 5.543383,2.078769 9.541015,5.756588 4.050934,3.67782 6.34291,8.68819 2.291975,4.95706 2.291975,10.71365 0,6.0231 -2.291975,11.35328 -2.238674,5.33017 -6.289608,9.3278 -3.997632,3.94433 -9.541015,6.28961 -5.5433828,2.29198 -12.04619741,2.29198 z m 1.91886331,-6.66272 q 2.2386739,0 4.1575372,-1.43915 1.9188634,-1.49245 3.3047091,-3.94433 1.4391478,-2.50518 2.1853718,-5.75659 0.799527,-3.25141 0.799527,-6.76932 0,-5.22358 -0.799527,-9.80753 -0.746224,-4.63725 -2.5051824,-8.10186 -1.758958,-3.46462 -4.5839512,-5.49009 -2.7716915,-2.025462 -6.8226252,-2.025462 -1.9721651,0 -3.7844249,1.439152 -1.8122598,1.43914 -3.1981055,3.89102 -1.3858458,2.39858 -2.2386738,5.59669 -0.799527,3.1448 -0.799527,6.66272 0,5.27687 0.959432,9.96743 1.012734,4.69055 2.8249934,8.20847 1.8655616,3.46461 4.4773477,5.54338 2.665088,2.02547 6.0230988,2.02547 z m 74.7290631,2.45188 q -3.0382,2.07877 -6.609418,3.25141 -3.571218,1.17264 -7.035832,1.17264 -5.116969,0 -9.647619,-2.29198 -4.477347,-2.29198 -7.835358,-6.1297 -3.358011,-3.89103 -5.276874,-8.9014 -1.918864,-5.06366 -1.918864,-10.55374 0,-5.49009 2.345278,-10.66036 2.345277,-5.22357 6.396211,-9.2745 4.104235,-4.050937 9.541015,-6.502817 5.490081,-2.451881 11.726387,-2.451881 2.398579,0 4.477347,0.373112 2.132071,0.373112 3.837727,1.012733 V 71.687186 l 11.51318,-6.076401 h 4.957064 V 148.0153 H 76.018478 Z m 0,-33.89992 q 0,-2.61179 -0.852828,-4.79716 -0.799526,-2.18537 -2.185372,-3.73112 -1.332544,-1.59905 -3.0382,-2.451882 -1.705657,-0.852828 -3.411313,-0.852828 -2.238674,0 -4.264141,1.49245 -2.025467,1.43915 -3.571218,4.05093 -1.492449,2.55849 -2.398579,6.1297 -0.90613,3.51792 -0.90613,7.67546 0,4.53065 1.012734,8.63488 1.066035,4.10424 2.824993,7.24904 1.758958,3.0915 4.104235,4.95707 2.345278,1.86556 5.010366,1.86556 0.90613,0 1.972165,-0.26651 1.066035,-0.31981 2.078768,-0.85283 1.066036,-0.53302 1.972166,-1.22594 0.959431,-0.74622 1.652354,-1.65235 z m 57.512622,38.32397 q -5.80989,0 -10.92686,-2.13208 -5.11697,-2.18537 -8.90139,-5.80989 -3.78443,-3.67782 -6.0231,-8.47498 -2.18537,-4.85046 -2.18537,-10.23393 0,-6.44952 2.02546,-11.9396 2.02547,-5.54338 5.75659,-9.59432 3.73113,-4.050929 8.9014,-6.289603 5.22357,-2.291975 11.61978,-2.291975 5.70329,0 10.44715,1.812259 4.74385,1.81226 8.10186,4.957064 3.41132,3.144805 5.27688,7.408945 1.86556,4.26414 1.86556,9.1146 h -37.79095 q 0.21321,4.53065 1.33255,8.63489 1.17263,4.10423 3.0915,7.24903 1.91886,3.09151 4.47735,4.95707 2.61178,1.81226 5.75659,1.81226 2.71838,0 5.33017,-0.90613 2.66509,-0.95943 4.90376,-2.55849 2.23868,-1.65235 3.89103,-3.78442 1.65236,-2.18537 2.39858,-4.69056 l 8.42168,1.33255 q -1.27924,4.42404 -4.10424,8.31507 -2.77169,3.89103 -6.55611,6.82263 -3.73113,2.93159 -8.15517,4.63725 -4.42405,1.65236 -8.9547,1.65236 z m 6.98253,-39.1235 q -0.2132,-2.39858 -1.06603,-4.37074 -0.79953,-2.02547 -2.07877,-3.46461 -1.27924,-1.43915 -2.9849,-2.18538 -1.70566,-0.799523 -3.67782,-0.799523 -1.54575,0 -3.0382,0.799523 -1.49245,0.74623 -2.71839,2.18538 -1.17264,1.38584 -2.02547,3.41131 -0.79952,1.97216 -1.06603,4.42404 z m 49.19749,37.89755 H 173.24088 V 71.687186 l 11.51318,-6.076401 h 4.95706 z m 21.37402,-15.2443 q 1.43915,4.47735 4.10423,6.98253 2.71839,2.45188 6.76933,2.45188 1.70565,0 3.0915,-0.42641 1.43915,-0.42642 2.45188,-1.17264 1.06603,-0.79953 1.59905,-1.81226 0.58632,-1.01273 0.58632,-2.18537 0,-1.91887 -0.74622,-3.41131 -0.69293,-1.54576 -1.97217,-2.7717 -1.27924,-1.22594 -3.0382,-2.23867 -1.75896,-1.06603 -3.78442,-1.97216 -3.25141,-1.43915 -6.44952,-3.09151 -3.1981,-1.70565 -5.75659,-3.83772 -2.55848,-2.18538 -4.15753,-4.95707 -1.54575,-2.77169 -1.54575,-6.39621 0,-3.46461 1.43914,-6.28961 1.43915,-2.878291 4.05094,-4.903758 2.61178,-2.025466 6.2363,-3.144803 3.62452,-1.119337 7.99527,-1.119337 3.99763,0 7.08913,0.746224 3.0915,0.746225 5.43678,2.132071 2.34528,1.385845 4.15754,3.411312 1.81226,1.972161 3.2514,4.477351 l -9.59431,3.30471 q -0.74623,-2.61179 -1.81226,-4.05094 -1.06604,-1.43915 -2.23868,-2.13207 -1.17263,-0.746223 -2.29197,-0.906128 -1.11934,-0.159905 -1.97217,-0.159905 -1.54575,0 -2.93159,0.373112 -1.38585,0.319811 -2.45188,0.959431 -1.06604,0.63962 -1.70566,1.59905 -0.63962,0.90613 -0.63962,2.13207 0,1.54575 0.79952,2.9316 0.79953,1.38585 2.23868,2.61179 1.43915,1.17264 3.35801,2.23867 1.97216,1.06604 4.26414,2.02547 3.46461,1.43915 6.71602,3.1981 3.30471,1.75896 5.8632,3.99764 2.55848,2.18537 4.10423,4.90376 1.54575,2.66508 1.54575,5.96979 0,3.57122 -1.17264,6.66272 -1.17264,3.09151 -3.83772,5.38348 -2.61179,2.29198 -6.82263,3.62452 -4.15754,1.33255 -10.12733,1.33255 -5.11697,0 -8.68819,-1.17264 -3.51792,-1.17264 -5.9698,-2.9849 -2.45188,-1.86556 -4.05093,-4.15754 -1.59905,-2.29198 -2.82499,-4.53065 z m 43.86733,9.0613 q 0,-1.49245 0.53302,-2.82499 0.58632,-1.38585 1.59905,-2.34528 1.01273,-1.01273 2.29198,-1.59905 1.33254,-0.58632 2.87829,-0.58632 1.54575,0 2.8783,0.58632 1.38584,0.58632 2.34527,1.59905 1.01274,0.95943 1.59906,2.34528 0.58632,1.33254 0.58632,2.82499 0,1.54575 -0.58632,2.8783 -0.58632,1.33254 -1.59906,2.29197 -0.95943,0.95943 -2.34527,1.49245 -1.33255,0.58632 -2.8783,0.58632 -1.54575,0 -2.87829,-0.58632 -1.27925,-0.53302 -2.29198,-1.49245 -1.01273,-0.95943 -1.59905,-2.29197 -0.53302,-1.33255 -0.53302,-2.8783 z m 13.21883,17.90939 q 2.50518,3.83773 4.95707,5.27688 2.45188,1.49244 5.17027,1.49244 0.69292,0 1.22594,-0.37311 0.53301,-0.31981 0.90613,-1.22594 0.37311,-0.90613 0.53301,-2.45188 0.15991,-1.54575 0.15991,-3.94433 V 98.391367 l 11.67308,-6.076401 h 4.95707 v 58.098914 q 0,7.24904 -1.86556,11.67309 -1.81226,4.47735 -4.95707,6.92923 -3.0915,2.45188 -7.24904,3.30471 -4.15753,0.85282 -8.79479,0.85282 -3.1981,0 -5.59668,-0.74622 -2.45188,-0.69292 -4.26414,-1.75896 -1.86556,-1.06603 -3.19811,-2.34528 -1.33254,-1.22594 -2.34527,-2.29197 z m 12.31271,-85.336115 q 0,-1.652354 0.69292,-3.144803 0.69292,-1.49245 1.86556,-2.558485 1.22594,-1.066035 2.825,-1.705656 1.59905,-0.639621 3.46461,-0.639621 1.81226,0 3.41131,0.639621 1.65236,0.639621 2.8783,1.705656 1.22594,1.066035 1.91886,2.558485 0.69292,1.492449 0.69292,3.144803 0,1.652355 -0.69292,3.144804 -0.69292,1.439148 -1.91886,2.505183 -1.22594,1.066035 -2.8783,1.705656 -1.59905,0.639621 -3.41131,0.639621 -1.86556,0 -3.46461,-0.639621 -1.59906,-0.639621 -2.825,-1.705656 -1.17264,-1.066035 -1.86556,-2.505183 -0.69292,-1.492449 -0.69292,-3.144804 z M 330.53436,148.0153 H 314.06412 V 71.687186 l 11.51318,-6.076401 h 4.95706 z"
       id="text1-1"
       inkscape:label="text_halo"
       transform="matrix(0.17363286,0,0,0.1857202,-571.60843,11.290946)"
       aria-label="LatticeModels.jl" />
    <path
       style="font-weight:bold;font-size:19.6027px;line-height:0;font-family:'Tamil MN';-inkscape-font-specification:'Tamil MN Bold';stroke:#000000;stroke-width:0.0459439"
       d="m -681.295,24.518035 h 3.18735 v 11.648674 h 6.62357 v 1.330457 h -9.81092 z m 16.20477,7.92531 q -0.43073,0.181861 -0.87102,0.440295 -0.4403,0.258434 -0.79445,0.583869 -0.34458,0.315864 -0.57429,0.708301 -0.22015,0.382865 -0.22015,0.82316 0,0.488153 0.24886,0.765731 0.25843,0.277577 0.68916,0.277577 0.36372,0 0.71787,-0.210576 0.35415,-0.220148 0.80402,-0.564726 z m -5.43669,-2.258905 q 0.15315,-0.612584 0.53601,-1.110309 0.38287,-0.507297 0.94759,-0.851875 0.5743,-0.354151 1.30175,-0.545583 0.73701,-0.191433 1.58889,-0.191433 1.05288,0 1.81861,0.191433 0.76573,0.191432 1.25388,0.545583 0.49772,0.344578 0.72744,0.842303 0.23929,0.488153 0.23929,1.100738 v 5.608975 q 0,0.603013 0.3733,1.024165 0.37329,0.421151 1.05288,0.698729 h -3.52236 q -0.15315,0 -0.29672,-0.08615 -0.14358,-0.08614 -0.25844,-0.220147 -0.11486,-0.143575 -0.201,-0.306293 -0.0862,-0.162717 -0.12443,-0.315863 -0.26801,0.248862 -0.5073,0.459438 -0.23929,0.201004 -0.52644,0.344578 -0.28715,0.143575 -0.6413,0.220148 -0.35415,0.08614 -0.85187,0.08614 -0.67959,0 -1.22517,-0.191433 -0.53601,-0.191433 -0.91888,-0.52644 -0.37329,-0.344578 -0.5743,-0.804017 -0.201,-0.469009 -0.201,-1.014592 0,-0.842304 0.46901,-1.445317 0.46901,-0.603012 1.23474,-1.052879 0.7753,-0.449867 1.75161,-0.784874 0.9763,-0.335007 1.9909,-0.641299 v -0.957163 q 0,-0.46901 -0.0957,-0.794445 -0.0957,-0.335007 -0.268,-0.536012 -0.17229,-0.210575 -0.42116,-0.29672 -0.23929,-0.09572 -0.53601,-0.09572 -0.35415,0 -0.63173,0.134002 -0.27757,0.134003 -0.47858,0.363722 -0.201,0.229719 -0.32543,0.52644 -0.12443,0.296721 -0.18186,0.622156 z m 10.36608,-1.263455 v -0.698729 l 1.57932,-0.52644 v -1.990899 l 2.07704,-1.091166 h 0.89016 v 3.082065 h 2.40248 v 1.225169 h -2.40248 v 6.307704 q 0,0.296721 0.15315,0.516868 0.15314,0.220148 0.40201,0.220148 0.15314,0 0.335,-0.105288 0.19144,-0.105288 0.35415,-0.239291 0.17229,-0.143574 0.29673,-0.287149 0.134,-0.143574 0.19143,-0.220147 l 1.01459,0.804017 q -0.24886,0.382865 -0.54558,0.717872 -0.29672,0.325435 -0.67959,0.564726 -0.38286,0.239291 -0.88059,0.373294 -0.49772,0.143574 -1.14859,0.143574 -0.62216,0 -1.0816,-0.181861 -0.45944,-0.172289 -0.76573,-0.488153 -0.30629,-0.315864 -0.45944,-0.756159 -0.15314,-0.440295 -0.15314,-0.976306 v -6.393849 z m 7.91574,0 v -0.698729 l 1.57931,-0.52644 v -1.990899 l 2.07705,-1.091166 h 0.89016 v 3.082065 h 2.40248 v 1.225169 h -2.40248 v 6.307704 q 0,0.296721 0.15315,0.516868 0.15314,0.220148 0.402,0.220148 0.15315,0 0.33501,-0.105288 0.19143,-0.105288 0.35415,-0.239291 0.17229,-0.143574 0.29672,-0.287149 0.13401,-0.143574 0.19143,-0.220147 l 1.0146,0.804017 q -0.24886,0.382865 -0.54559,0.717872 -0.29672,0.325435 -0.67958,0.564726 -0.38287,0.239291 -0.88059,0.373294 -0.49773,0.143574 -1.1486,0.143574 -0.62215,0 -1.08159,-0.181861 -0.45944,-0.172289 -0.76573,-0.488153 -0.30629,-0.315864 -0.45944,-0.756159 -0.15315,-0.440295 -0.15315,-0.976306 v -6.393849 z m 9.06433,-0.335007 2.08662,-1.091166 h 0.89016 v 10.002354 h -2.97678 z m -0.12443,-4.307234 q 0,-0.296721 0.12443,-0.564726 0.12443,-0.268006 0.34458,-0.459439 0.22015,-0.191432 0.5073,-0.306292 0.28715,-0.114859 0.62215,-0.114859 0.33501,0 0.62216,0.114859 0.29672,0.11486 0.5073,0.306292 0.22014,0.191433 0.34457,0.459439 0.12444,0.268005 0.12444,0.564726 0,0.29672 -0.12444,0.564726 -0.12443,0.258434 -0.34457,0.449867 -0.21058,0.191432 -0.5073,0.306292 -0.28715,0.11486 -0.62216,0.11486 -0.335,0 -0.62215,-0.11486 -0.28715,-0.11486 -0.5073,-0.306292 -0.22015,-0.191433 -0.34458,-0.449867 -0.12443,-0.268006 -0.12443,-0.564726 z m 12.7207,6.307704 q -0.0383,-0.124431 -0.16272,-0.430723 -0.12443,-0.306292 -0.38287,-0.622156 -0.24886,-0.325435 -0.67001,-0.574298 -0.41158,-0.248862 -1.03374,-0.248862 -0.47858,0 -0.86144,0.239291 -0.38287,0.23929 -0.65088,0.641299 -0.268,0.402008 -0.42115,0.93802 -0.14357,0.536011 -0.14357,1.11988 0,0.823161 0.18186,1.569748 0.19143,0.746587 0.52644,1.320885 0.33501,0.564726 0.81359,0.899733 0.47858,0.335007 1.06245,0.335007 0.49772,0 0.89016,-0.191432 0.40201,-0.201005 0.72744,-0.536012 0.32544,-0.344578 0.58387,-0.794445 0.25844,-0.459438 0.48816,-0.976306 l 1.4166,0.382865 q -0.24886,0.957163 -0.68916,1.70375 -0.44029,0.746587 -1.05288,1.263455 -0.60301,0.516868 -1.36874,0.784874 -0.76573,0.268006 -1.66547,0.268006 -1.01459,0 -1.90475,-0.382866 -0.89016,-0.392436 -1.5506,-1.052879 -0.66045,-0.670014 -1.04331,-1.550604 -0.38287,-0.890162 -0.38287,-1.885611 0,-0.717873 0.18186,-1.387887 0.19144,-0.679585 0.52644,-1.263455 0.34458,-0.593441 0.81359,-1.072023 0.47858,-0.488153 1.05288,-0.832731 0.58387,-0.344579 1.24431,-0.536012 0.66045,-0.191432 1.36875,-0.191432 0.75616,0 1.32088,0.09572 0.56473,0.09572 0.99545,0.306292 0.4403,0.210576 0.79445,0.555155 0.36372,0.335007 0.71787,0.82316 z m 9.05476,7.130865 q -1.04331,0 -1.96218,-0.382865 -0.91888,-0.392437 -1.59847,-1.043308 -0.67958,-0.660442 -1.08159,-1.521889 -0.39244,-0.871018 -0.39244,-1.837753 0,-1.158167 0.36372,-2.144045 0.36373,-0.99545 1.03374,-1.722894 0.67001,-0.727444 1.59846,-1.129452 0.93802,-0.41158 2.08662,-0.41158 1.02416,0 1.87604,0.325435 0.85187,0.325436 1.45489,0.890162 0.61258,0.564726 0.94759,1.330456 0.335,0.765731 0.335,1.636749 h -6.78628 q 0.0383,0.813589 0.23929,1.550604 0.21057,0.737016 0.55515,1.301742 0.34458,0.555155 0.80402,0.890162 0.46901,0.325435 1.03374,0.325435 0.48815,0 0.95716,-0.162718 0.47858,-0.172289 0.88059,-0.459438 0.40201,-0.29672 0.69873,-0.679586 0.29672,-0.392436 0.43072,-0.842303 l 1.51232,0.239291 q -0.22972,0.794445 -0.73702,1.493174 -0.49772,0.698729 -1.17731,1.225169 -0.67001,0.526439 -1.46446,0.832732 -0.79444,0.29672 -1.60803,0.29672 z m 1.25388,-7.025577 q -0.0383,-0.430723 -0.19143,-0.784873 -0.14357,-0.363722 -0.37329,-0.622156 -0.22972,-0.258434 -0.53601,-0.392437 -0.3063,-0.143575 -0.66045,-0.143575 -0.27757,0 -0.54558,0.143575 -0.26801,0.134003 -0.48815,0.392437 -0.21058,0.248862 -0.36372,0.612584 -0.14358,0.35415 -0.19144,0.794445 z m 6.09713,-6.173701 h 3.10121 l 4.48909,8.86333 4.4221,-8.86333 h 3.0342 v 12.979131 h -3.17778 v -8.461322 l -4.24023,8.461322 h -1.22517 l -4.38381,-8.557038 v 8.557038 h -2.01961 z m 22.89534,13.160992 q -1.16774,0 -2.16319,-0.382866 -0.98587,-0.382865 -1.71332,-1.052879 -0.71787,-0.670014 -1.12945,-1.569747 -0.40201,-0.909305 -0.40201,-1.962185 0,-1.129452 0.40201,-2.077043 0.41158,-0.957163 1.12945,-1.646321 0.71787,-0.689157 1.70375,-1.072022 0.99545,-0.392437 2.16319,-0.392437 1.16774,0 2.16319,0.382865 0.99545,0.373294 1.71332,1.033736 0.72744,0.660443 1.13902,1.560176 0.41158,0.890161 0.41158,1.923898 0,1.081594 -0.41158,2.038757 -0.402,0.957163 -1.12945,1.675035 -0.71787,0.708301 -1.71332,1.129453 -0.99545,0.41158 -2.16319,0.41158 z m 0.34458,-1.196454 q 0.40201,0 0.74659,-0.258434 0.34458,-0.268006 0.59344,-0.708301 0.25843,-0.449866 0.39244,-1.033736 0.14357,-0.583869 0.14357,-1.215597 0,-0.93802 -0.14357,-1.76118 -0.13401,-0.832732 -0.44987,-1.454888 -0.31587,-0.622156 -0.82316,-0.985878 -0.49773,-0.363722 -1.22517,-0.363722 -0.35415,0 -0.67959,0.258434 -0.32543,0.258434 -0.57429,0.698729 -0.24887,0.430724 -0.40201,1.005021 -0.14358,0.564727 -0.14358,1.196454 0,0.947592 0.17229,1.789895 0.18186,0.842304 0.5073,1.474031 0.33501,0.622156 0.80402,0.99545 0.47858,0.363722 1.08159,0.363722 z m 13.41943,0.440295 q -0.54559,0.373293 -1.18689,0.583869 -0.6413,0.210576 -1.26345,0.210576 -0.91888,0 -1.73247,-0.41158 -0.80401,-0.41158 -1.40703,-1.100737 -0.60301,-0.698729 -0.94759,-1.598463 -0.34458,-0.909305 -0.34458,-1.895183 0,-0.985878 0.42115,-1.914326 0.42116,-0.938019 1.1486,-1.665463 0.73702,-0.727444 1.71332,-1.167739 0.98588,-0.440295 2.10576,-0.440295 0.43072,0 0.80402,0.067 0.38286,0.067 0.68916,0.181861 v -3.981798 l 2.06747,-1.091166 h 0.89016 v 14.797741 h -2.95763 z m 0,-6.087557 q 0,-0.46901 -0.15315,-0.861447 -0.14358,-0.392437 -0.39244,-0.670014 -0.23929,-0.287149 -0.54558,-0.440295 -0.30629,-0.153146 -0.61259,-0.153146 -0.402,0 -0.76573,0.268006 -0.36372,0.258434 -0.64129,0.727443 -0.26801,0.459439 -0.43073,1.100738 -0.16272,0.631728 -0.16272,1.378315 0,0.813588 0.18187,1.550604 0.19143,0.737015 0.50729,1.301742 0.31587,0.555154 0.73702,0.890161 0.42115,0.335007 0.89973,0.335007 0.16272,0 0.35415,-0.04786 0.19143,-0.05743 0.37329,-0.153146 0.19144,-0.09572 0.35415,-0.220147 0.17229,-0.134003 0.29673,-0.296721 z m 10.32779,6.882002 q -1.04331,0 -1.96219,-0.382865 -0.91887,-0.392437 -1.59846,-1.043308 -0.67959,-0.660442 -1.08159,-1.521889 -0.39244,-0.871018 -0.39244,-1.837753 0,-1.158167 0.36372,-2.144045 0.36372,-0.99545 1.03374,-1.722894 0.67001,-0.727444 1.59846,-1.129452 0.93802,-0.41158 2.08661,-0.41158 1.02417,0 1.87604,0.325435 0.85188,0.325436 1.45489,0.890162 0.61259,0.564726 0.94759,1.330456 0.33501,0.765731 0.33501,1.636749 h -6.78629 q 0.0383,0.813589 0.23929,1.550604 0.21058,0.737016 0.55516,1.301742 0.34458,0.555155 0.80402,0.890162 0.46901,0.325435 1.03373,0.325435 0.48816,0 0.95717,-0.162718 0.47858,-0.172289 0.88059,-0.459438 0.402,-0.29672 0.69872,-0.679586 0.29672,-0.392436 0.43073,-0.842303 l 1.51232,0.239291 q -0.22972,0.794445 -0.73702,1.493174 -0.49772,0.698729 -1.17731,1.225169 -0.67001,0.526439 -1.46446,0.832732 -0.79445,0.29672 -1.60803,0.29672 z m 1.25388,-7.025577 q -0.0383,-0.430723 -0.19143,-0.784873 -0.14358,-0.363722 -0.3733,-0.622156 -0.22972,-0.258434 -0.53601,-0.392437 -0.30629,-0.143575 -0.66044,-0.143575 -0.27758,0 -0.54558,0.143575 -0.26801,0.134003 -0.48816,0.392437 -0.21057,0.248862 -0.36372,0.612584 -0.14357,0.35415 -0.19143,0.794445 z m 8.83462,6.80543 h -2.95764 V 23.790591 l 2.06747,-1.091166 h 0.89017 z m 3.83822,-2.737487 q 0.25843,0.804017 0.73702,1.253884 0.48815,0.440295 1.21559,0.440295 0.30629,0 0.55516,-0.07657 0.25843,-0.07657 0.44029,-0.210576 0.19143,-0.143574 0.28715,-0.325435 0.10529,-0.181861 0.10529,-0.392437 0,-0.344579 -0.134,-0.612585 -0.12444,-0.277577 -0.35415,-0.497724 -0.22972,-0.220148 -0.54559,-0.402009 -0.31586,-0.191432 -0.67958,-0.35415 -0.58387,-0.258434 -1.15817,-0.555155 -0.5743,-0.306292 -1.03374,-0.689157 -0.45943,-0.392437 -0.74658,-0.890162 -0.27758,-0.497725 -0.27758,-1.148595 0,-0.622156 0.25843,-1.129453 0.25844,-0.516868 0.72745,-0.88059 0.46901,-0.363722 1.11988,-0.564726 0.65087,-0.201004 1.43574,-0.201004 0.71787,0 1.27303,0.134003 0.55515,0.134002 0.97631,0.382865 0.42115,0.248862 0.74658,0.612584 0.32544,0.35415 0.58387,0.804017 l -1.72289,0.593441 q -0.134,-0.46901 -0.32544,-0.727444 -0.19143,-0.258434 -0.40201,-0.382865 -0.21057,-0.134003 -0.41158,-0.162718 -0.201,-0.02871 -0.35415,-0.02871 -0.27757,0 -0.52644,0.067 -0.24886,0.05743 -0.44029,0.172289 -0.19143,0.11486 -0.30629,0.287149 -0.11486,0.162718 -0.11486,0.382865 0,0.277578 0.14357,0.52644 0.14358,0.248862 0.40201,0.46901 0.25843,0.210576 0.60301,0.402008 0.35415,0.191433 0.76573,0.363722 0.62216,0.258434 1.20603,0.574298 0.59344,0.315864 1.05288,0.717872 0.45944,0.392437 0.73701,0.88059 0.27758,0.478582 0.27758,1.072023 0,0.641299 -0.21057,1.196454 -0.21058,0.555154 -0.68916,0.966735 -0.46901,0.41158 -1.22517,0.65087 -0.74659,0.239291 -1.81861,0.239291 -0.91888,0 -1.56018,-0.210576 -0.63172,-0.210576 -1.07202,-0.536011 -0.44029,-0.335007 -0.72744,-0.746587 -0.28715,-0.41158 -0.5073,-0.813589 z m 7.87745,1.627178 q 0,-0.268006 0.0957,-0.507297 0.10529,-0.248862 0.28715,-0.421152 0.18186,-0.181861 0.41158,-0.287149 0.23929,-0.105287 0.51687,-0.105287 0.27757,0 0.51686,0.105287 0.24887,0.105288 0.42116,0.287149 0.18186,0.17229 0.28714,0.421152 0.10529,0.239291 0.10529,0.507297 0,0.277577 -0.10529,0.516868 -0.10528,0.23929 -0.28714,0.41158 -0.17229,0.172289 -0.42116,0.268005 -0.23929,0.105288 -0.51686,0.105288 -0.27758,0 -0.51687,-0.105288 -0.22972,-0.09572 -0.41158,-0.268005 -0.18186,-0.17229 -0.28715,-0.41158 -0.0957,-0.239291 -0.0957,-0.516868 z m 2.37377,3.216067 q 0.44987,0.689158 0.89016,0.947592 0.4403,0.268005 0.92845,0.268005 0.12443,0 0.22015,-0.067 0.0957,-0.05743 0.16271,-0.220147 0.067,-0.162718 0.0957,-0.440295 0.0287,-0.277578 0.0287,-0.708301 V 28.585978 l 2.09618,-1.091166 h 0.89016 v 10.433077 q 0,1.301742 -0.335,2.096187 -0.32544,0.804017 -0.89016,1.244312 -0.55516,0.440295 -1.30175,0.593441 -0.74658,0.153146 -1.57932,0.153146 -0.57429,0 -1.00502,-0.134003 -0.44029,-0.124431 -0.76573,-0.315863 -0.335,-0.191433 -0.57429,-0.421152 -0.2393,-0.220148 -0.42116,-0.41158 z m 2.21105,-15.32418 q 0,-0.296721 0.12443,-0.564726 0.12443,-0.268006 0.335,-0.459439 0.22015,-0.191432 0.5073,-0.306292 0.28715,-0.114859 0.62216,-0.114859 0.32543,0 0.61258,0.114859 0.29672,0.11486 0.51687,0.306292 0.22015,0.191433 0.34458,0.459439 0.12443,0.268005 0.12443,0.564726 0,0.29672 -0.12443,0.564726 -0.12443,0.258434 -0.34458,0.449867 -0.22015,0.191432 -0.51687,0.306292 -0.28715,0.11486 -0.61258,0.11486 -0.33501,0 -0.62216,-0.11486 -0.28715,-0.11486 -0.5073,-0.306292 -0.21057,-0.191433 -0.335,-0.449867 -0.12443,-0.268006 -0.12443,-0.564726 z m 8.98776,13.218422 h -2.95763 V 23.790591 l 2.06747,-1.091166 h 0.89016 z"
       id="text1"
       transform="scale(0.96691076,1.0342216)"
       aria-label="LatticeModels.jl" />
  </g>
</svg>
