<?xml version="1.0" encoding="utf-8"?>
<svg xmlns="http://www.w3.org/2000/svg" xmlns:xlink="http://www.w3.org/1999/xlink" width="600" height="400" viewBox="0 0 2400 1600">
<defs>
  <clipPath id="clip630">
    <rect x="0" y="0" width="2400" height="1600"/>
  </clipPath>
</defs>
<path clip-path="url(#clip630)" d="M0 1600 L2400 1600 L2400 0 L0 0  Z" fill="#ffffff" fill-rule="evenodd" fill-opacity="1"/>
<defs>
  <clipPath id="clip631">
    <rect x="480" y="0" width="1681" height="1600"/>
  </clipPath>
</defs>
<path clip-path="url(#clip630)" d="M224.26 1423.18 L2352.76 1423.18 L2352.76 47.2441 L224.26 47.2441  Z" fill="#ffffff" fill-rule="evenodd" fill-opacity="1"/>
<defs>
  <clipPath id="clip632">
    <rect x="224" y="47" width="2129" height="1377"/>
  </clipPath>
</defs>
<polyline clip-path="url(#clip632)" style="stroke:#000000; stroke-linecap:round; stroke-linejoin:round; stroke-width:2; stroke-opacity:0.1; fill:none" points="284.5,1423.18 284.5,47.2441 "/>
<polyline clip-path="url(#clip632)" style="stroke:#000000; stroke-linecap:round; stroke-linejoin:round; stroke-width:2; stroke-opacity:0.1; fill:none" points="786.504,1423.18 786.504,47.2441 "/>
<polyline clip-path="url(#clip632)" style="stroke:#000000; stroke-linecap:round; stroke-linejoin:round; stroke-width:2; stroke-opacity:0.1; fill:none" points="1288.51,1423.18 1288.51,47.2441 "/>
<polyline clip-path="url(#clip632)" style="stroke:#000000; stroke-linecap:round; stroke-linejoin:round; stroke-width:2; stroke-opacity:0.1; fill:none" points="1790.51,1423.18 1790.51,47.2441 "/>
<polyline clip-path="url(#clip632)" style="stroke:#000000; stroke-linecap:round; stroke-linejoin:round; stroke-width:2; stroke-opacity:0.1; fill:none" points="2292.52,1423.18 2292.52,47.2441 "/>
<polyline clip-path="url(#clip632)" style="stroke:#000000; stroke-linecap:round; stroke-linejoin:round; stroke-width:2; stroke-opacity:0.1; fill:none" points="224.26,1266.4 2352.76,1266.4 "/>
<polyline clip-path="url(#clip632)" style="stroke:#000000; stroke-linecap:round; stroke-linejoin:round; stroke-width:2; stroke-opacity:0.1; fill:none" points="224.26,1015.99 2352.76,1015.99 "/>
<polyline clip-path="url(#clip632)" style="stroke:#000000; stroke-linecap:round; stroke-linejoin:round; stroke-width:2; stroke-opacity:0.1; fill:none" points="224.26,765.577 2352.76,765.577 "/>
<polyline clip-path="url(#clip632)" style="stroke:#000000; stroke-linecap:round; stroke-linejoin:round; stroke-width:2; stroke-opacity:0.1; fill:none" points="224.26,515.165 2352.76,515.165 "/>
<polyline clip-path="url(#clip632)" style="stroke:#000000; stroke-linecap:round; stroke-linejoin:round; stroke-width:2; stroke-opacity:0.1; fill:none" points="224.26,264.754 2352.76,264.754 "/>
<polyline clip-path="url(#clip630)" style="stroke:#000000; stroke-linecap:round; stroke-linejoin:round; stroke-width:4; stroke-opacity:1; fill:none" points="224.26,1423.18 2352.76,1423.18 "/>
<polyline clip-path="url(#clip630)" style="stroke:#000000; stroke-linecap:round; stroke-linejoin:round; stroke-width:4; stroke-opacity:1; fill:none" points="284.5,1423.18 284.5,1404.28 "/>
<polyline clip-path="url(#clip630)" style="stroke:#000000; stroke-linecap:round; stroke-linejoin:round; stroke-width:4; stroke-opacity:1; fill:none" points="786.504,1423.18 786.504,1404.28 "/>
<polyline clip-path="url(#clip630)" style="stroke:#000000; stroke-linecap:round; stroke-linejoin:round; stroke-width:4; stroke-opacity:1; fill:none" points="1288.51,1423.18 1288.51,1404.28 "/>
<polyline clip-path="url(#clip630)" style="stroke:#000000; stroke-linecap:round; stroke-linejoin:round; stroke-width:4; stroke-opacity:1; fill:none" points="1790.51,1423.18 1790.51,1404.28 "/>
<polyline clip-path="url(#clip630)" style="stroke:#000000; stroke-linecap:round; stroke-linejoin:round; stroke-width:4; stroke-opacity:1; fill:none" points="2292.52,1423.18 2292.52,1404.28 "/>
<path clip-path="url(#clip630)" d="M261.885 1454.1 Q258.274 1454.1 256.445 1457.66 Q254.639 1461.2 254.639 1468.33 Q254.639 1475.44 256.445 1479.01 Q258.274 1482.55 261.885 1482.55 Q265.519 1482.55 267.325 1479.01 Q269.153 1475.44 269.153 1468.33 Q269.153 1461.2 267.325 1457.66 Q265.519 1454.1 261.885 1454.1 M261.885 1450.39 Q267.695 1450.39 270.75 1455 Q273.829 1459.58 273.829 1468.33 Q273.829 1477.06 270.75 1481.67 Q267.695 1486.25 261.885 1486.25 Q256.075 1486.25 252.996 1481.67 Q249.94 1477.06 249.94 1468.33 Q249.94 1459.58 252.996 1455 Q256.075 1450.39 261.885 1450.39 Z" fill="#000000" fill-rule="nonzero" fill-opacity="1" /><path clip-path="url(#clip630)" d="M282.047 1479.7 L286.931 1479.7 L286.931 1485.58 L282.047 1485.58 L282.047 1479.7 Z" fill="#000000" fill-rule="nonzero" fill-opacity="1" /><path clip-path="url(#clip630)" d="M307.116 1454.1 Q303.505 1454.1 301.676 1457.66 Q299.871 1461.2 299.871 1468.33 Q299.871 1475.44 301.676 1479.01 Q303.505 1482.55 307.116 1482.55 Q310.75 1482.55 312.556 1479.01 Q314.384 1475.44 314.384 1468.33 Q314.384 1461.2 312.556 1457.66 Q310.75 1454.1 307.116 1454.1 M307.116 1450.39 Q312.926 1450.39 315.982 1455 Q319.06 1459.58 319.06 1468.33 Q319.06 1477.06 315.982 1481.67 Q312.926 1486.25 307.116 1486.25 Q301.306 1486.25 298.227 1481.67 Q295.172 1477.06 295.172 1468.33 Q295.172 1459.58 298.227 1455 Q301.306 1450.39 307.116 1450.39 Z" fill="#000000" fill-rule="nonzero" fill-opacity="1" /><path clip-path="url(#clip630)" d="M758.24 1481.64 L774.56 1481.64 L774.56 1485.58 L752.615 1485.58 L752.615 1481.64 Q755.277 1478.89 759.861 1474.26 Q764.467 1469.61 765.648 1468.27 Q767.893 1465.74 768.773 1464.01 Q769.676 1462.25 769.676 1460.56 Q769.676 1457.8 767.731 1456.07 Q765.81 1454.33 762.708 1454.33 Q760.509 1454.33 758.055 1455.09 Q755.625 1455.86 752.847 1457.41 L752.847 1452.69 Q755.671 1451.55 758.125 1450.97 Q760.578 1450.39 762.615 1450.39 Q767.986 1450.39 771.18 1453.08 Q774.375 1455.77 774.375 1460.26 Q774.375 1462.39 773.564 1464.31 Q772.777 1466.2 770.671 1468.8 Q770.092 1469.47 766.99 1472.69 Q763.889 1475.88 758.24 1481.64 Z" fill="#000000" fill-rule="nonzero" fill-opacity="1" /><path clip-path="url(#clip630)" d="M784.375 1479.7 L789.259 1479.7 L789.259 1485.58 L784.375 1485.58 L784.375 1479.7 Z" fill="#000000" fill-rule="nonzero" fill-opacity="1" /><path clip-path="url(#clip630)" d="M799.49 1451.02 L817.847 1451.02 L817.847 1454.96 L803.773 1454.96 L803.773 1463.43 Q804.791 1463.08 805.81 1462.92 Q806.828 1462.73 807.847 1462.73 Q813.634 1462.73 817.013 1465.9 Q820.393 1469.08 820.393 1474.49 Q820.393 1480.07 816.921 1483.17 Q813.448 1486.25 807.129 1486.25 Q804.953 1486.25 802.685 1485.88 Q800.439 1485.51 798.032 1484.77 L798.032 1480.07 Q800.115 1481.2 802.337 1481.76 Q804.56 1482.32 807.036 1482.32 Q811.041 1482.32 813.379 1480.21 Q815.717 1478.1 815.717 1474.49 Q815.717 1470.88 813.379 1468.77 Q811.041 1466.67 807.036 1466.67 Q805.161 1466.67 803.286 1467.08 Q801.435 1467.5 799.49 1468.38 L799.49 1451.02 Z" fill="#000000" fill-rule="nonzero" fill-opacity="1" /><path clip-path="url(#clip630)" d="M1255.67 1451.02 L1274.03 1451.02 L1274.03 1454.96 L1259.95 1454.96 L1259.95 1463.43 Q1260.97 1463.08 1261.99 1462.92 Q1263.01 1462.73 1264.03 1462.73 Q1269.82 1462.73 1273.2 1465.9 Q1276.58 1469.08 1276.58 1474.49 Q1276.58 1480.07 1273.1 1483.17 Q1269.63 1486.25 1263.31 1486.25 Q1261.14 1486.25 1258.87 1485.88 Q1256.62 1485.51 1254.21 1484.77 L1254.21 1480.07 Q1256.3 1481.2 1258.52 1481.76 Q1260.74 1482.32 1263.22 1482.32 Q1267.22 1482.32 1269.56 1480.21 Q1271.9 1478.1 1271.9 1474.49 Q1271.9 1470.88 1269.56 1468.77 Q1267.22 1466.67 1263.22 1466.67 Q1261.34 1466.67 1259.47 1467.08 Q1257.62 1467.5 1255.67 1468.38 L1255.67 1451.02 Z" fill="#000000" fill-rule="nonzero" fill-opacity="1" /><path clip-path="url(#clip630)" d="M1285.79 1479.7 L1290.67 1479.7 L1290.67 1485.58 L1285.79 1485.58 L1285.79 1479.7 Z" fill="#000000" fill-rule="nonzero" fill-opacity="1" /><path clip-path="url(#clip630)" d="M1310.86 1454.1 Q1307.25 1454.1 1305.42 1457.66 Q1303.61 1461.2 1303.61 1468.33 Q1303.61 1475.44 1305.42 1479.01 Q1307.25 1482.55 1310.86 1482.55 Q1314.49 1482.55 1316.3 1479.01 Q1318.13 1475.44 1318.13 1468.33 Q1318.13 1461.2 1316.3 1457.66 Q1314.49 1454.1 1310.86 1454.1 M1310.86 1450.39 Q1316.67 1450.39 1319.72 1455 Q1322.8 1459.58 1322.8 1468.33 Q1322.8 1477.06 1319.72 1481.67 Q1316.67 1486.25 1310.86 1486.25 Q1305.05 1486.25 1301.97 1481.67 Q1298.91 1477.06 1298.91 1468.33 Q1298.91 1459.58 1301.97 1455 Q1305.05 1450.39 1310.86 1450.39 Z" fill="#000000" fill-rule="nonzero" fill-opacity="1" /><path clip-path="url(#clip630)" d="M1756.83 1451.02 L1779.05 1451.02 L1779.05 1453.01 L1766.51 1485.58 L1761.62 1485.58 L1773.43 1454.96 L1756.83 1454.96 L1756.83 1451.02 Z" fill="#000000" fill-rule="nonzero" fill-opacity="1" /><path clip-path="url(#clip630)" d="M1788.17 1479.7 L1793.06 1479.7 L1793.06 1485.58 L1788.17 1485.58 L1788.17 1479.7 Z" fill="#000000" fill-rule="nonzero" fill-opacity="1" /><path clip-path="url(#clip630)" d="M1803.29 1451.02 L1821.65 1451.02 L1821.65 1454.96 L1807.57 1454.96 L1807.57 1463.43 Q1808.59 1463.08 1809.61 1462.92 Q1810.63 1462.73 1811.65 1462.73 Q1817.43 1462.73 1820.81 1465.9 Q1824.19 1469.08 1824.19 1474.49 Q1824.19 1480.07 1820.72 1483.17 Q1817.25 1486.25 1810.93 1486.25 Q1808.75 1486.25 1806.48 1485.88 Q1804.24 1485.51 1801.83 1484.77 L1801.83 1480.07 Q1803.91 1481.2 1806.14 1481.76 Q1808.36 1482.32 1810.84 1482.32 Q1814.84 1482.32 1817.18 1480.21 Q1819.52 1478.1 1819.52 1474.49 Q1819.52 1470.88 1817.18 1468.77 Q1814.84 1466.67 1810.84 1466.67 Q1808.96 1466.67 1807.09 1467.08 Q1805.23 1467.5 1803.29 1468.38 L1803.29 1451.02 Z" fill="#000000" fill-rule="nonzero" fill-opacity="1" /><path clip-path="url(#clip630)" d="M2244.59 1481.64 L2252.23 1481.64 L2252.23 1455.28 L2243.92 1456.95 L2243.92 1452.69 L2252.18 1451.02 L2256.86 1451.02 L2256.86 1481.64 L2264.49 1481.64 L2264.49 1485.58 L2244.59 1485.58 L2244.59 1481.64 Z" fill="#000000" fill-rule="nonzero" fill-opacity="1" /><path clip-path="url(#clip630)" d="M2283.94 1454.1 Q2280.33 1454.1 2278.5 1457.66 Q2276.69 1461.2 2276.69 1468.33 Q2276.69 1475.44 2278.5 1479.01 Q2280.33 1482.55 2283.94 1482.55 Q2287.57 1482.55 2289.38 1479.01 Q2291.21 1475.44 2291.21 1468.33 Q2291.21 1461.2 2289.38 1457.66 Q2287.57 1454.1 2283.94 1454.1 M2283.94 1450.39 Q2289.75 1450.39 2292.8 1455 Q2295.88 1459.58 2295.88 1468.33 Q2295.88 1477.06 2292.8 1481.67 Q2289.75 1486.25 2283.94 1486.25 Q2278.13 1486.25 2275.05 1481.67 Q2271.99 1477.06 2271.99 1468.33 Q2271.99 1459.58 2275.05 1455 Q2278.13 1450.39 2283.94 1450.39 Z" fill="#000000" fill-rule="nonzero" fill-opacity="1" /><path clip-path="url(#clip630)" d="M2304.1 1479.7 L2308.99 1479.7 L2308.99 1485.58 L2304.1 1485.58 L2304.1 1479.7 Z" fill="#000000" fill-rule="nonzero" fill-opacity="1" /><path clip-path="url(#clip630)" d="M2329.17 1454.1 Q2325.56 1454.1 2323.73 1457.66 Q2321.93 1461.2 2321.93 1468.33 Q2321.93 1475.44 2323.73 1479.01 Q2325.56 1482.55 2329.17 1482.55 Q2332.8 1482.55 2334.61 1479.01 Q2336.44 1475.44 2336.44 1468.33 Q2336.44 1461.2 2334.61 1457.66 Q2332.8 1454.1 2329.17 1454.1 M2329.17 1450.39 Q2334.98 1450.39 2338.04 1455 Q2341.11 1459.58 2341.11 1468.33 Q2341.11 1477.06 2338.04 1481.67 Q2334.98 1486.25 2329.17 1486.25 Q2323.36 1486.25 2320.28 1481.67 Q2317.23 1477.06 2317.23 1468.33 Q2317.23 1459.58 2320.28 1455 Q2323.36 1450.39 2329.17 1450.39 Z" fill="#000000" fill-rule="nonzero" fill-opacity="1" /><path clip-path="url(#clip630)" d="M1287.57 1522.27 L1287.57 1532.4 L1299.63 1532.4 L1299.63 1536.95 L1287.57 1536.95 L1287.57 1556.3 Q1287.57 1560.66 1288.75 1561.9 Q1289.96 1563.14 1293.62 1563.14 L1299.63 1563.14 L1299.63 1568.04 L1293.62 1568.04 Q1286.84 1568.04 1284.26 1565.53 Q1281.68 1562.98 1281.68 1556.3 L1281.68 1536.95 L1277.38 1536.95 L1277.38 1532.4 L1281.68 1532.4 L1281.68 1522.27 L1287.57 1522.27 Z" fill="#000000" fill-rule="nonzero" fill-opacity="1" /><polyline clip-path="url(#clip630)" style="stroke:#000000; stroke-linecap:round; stroke-linejoin:round; stroke-width:4; stroke-opacity:1; fill:none" points="224.26,1423.18 224.26,47.2441 "/>
<polyline clip-path="url(#clip630)" style="stroke:#000000; stroke-linecap:round; stroke-linejoin:round; stroke-width:4; stroke-opacity:1; fill:none" points="224.26,1266.4 243.158,1266.4 "/>
<polyline clip-path="url(#clip630)" style="stroke:#000000; stroke-linecap:round; stroke-linejoin:round; stroke-width:4; stroke-opacity:1; fill:none" points="224.26,1015.99 243.158,1015.99 "/>
<polyline clip-path="url(#clip630)" style="stroke:#000000; stroke-linecap:round; stroke-linejoin:round; stroke-width:4; stroke-opacity:1; fill:none" points="224.26,765.577 243.158,765.577 "/>
<polyline clip-path="url(#clip630)" style="stroke:#000000; stroke-linecap:round; stroke-linejoin:round; stroke-width:4; stroke-opacity:1; fill:none" points="224.26,515.165 243.158,515.165 "/>
<polyline clip-path="url(#clip630)" style="stroke:#000000; stroke-linecap:round; stroke-linejoin:round; stroke-width:4; stroke-opacity:1; fill:none" points="224.26,264.754 243.158,264.754 "/>
<path clip-path="url(#clip630)" d="M50.9921 1266.85 L80.6679 1266.85 L80.6679 1270.79 L50.9921 1270.79 L50.9921 1266.85 Z" fill="#000000" fill-rule="nonzero" fill-opacity="1" /><path clip-path="url(#clip630)" d="M100.76 1252.2 Q97.1493 1252.2 95.3206 1255.76 Q93.515 1259.3 93.515 1266.43 Q93.515 1273.54 95.3206 1277.11 Q97.1493 1280.65 100.76 1280.65 Q104.395 1280.65 106.2 1277.11 Q108.029 1273.54 108.029 1266.43 Q108.029 1259.3 106.2 1255.76 Q104.395 1252.2 100.76 1252.2 M100.76 1248.49 Q106.571 1248.49 109.626 1253.1 Q112.705 1257.68 112.705 1266.43 Q112.705 1275.16 109.626 1279.77 Q106.571 1284.35 100.76 1284.35 Q94.9502 1284.35 91.8715 1279.77 Q88.816 1275.16 88.816 1266.43 Q88.816 1257.68 91.8715 1253.1 Q94.9502 1248.49 100.76 1248.49 Z" fill="#000000" fill-rule="nonzero" fill-opacity="1" /><path clip-path="url(#clip630)" d="M120.922 1277.8 L125.807 1277.8 L125.807 1283.68 L120.922 1283.68 L120.922 1277.8 Z" fill="#000000" fill-rule="nonzero" fill-opacity="1" /><path clip-path="url(#clip630)" d="M145.992 1252.2 Q142.381 1252.2 140.552 1255.76 Q138.746 1259.3 138.746 1266.43 Q138.746 1273.54 140.552 1277.11 Q142.381 1280.65 145.992 1280.65 Q149.626 1280.65 151.431 1277.11 Q153.26 1273.54 153.26 1266.43 Q153.26 1259.3 151.431 1255.76 Q149.626 1252.2 145.992 1252.2 M145.992 1248.49 Q151.802 1248.49 154.857 1253.1 Q157.936 1257.68 157.936 1266.43 Q157.936 1275.16 154.857 1279.77 Q151.802 1284.35 145.992 1284.35 Q140.181 1284.35 137.103 1279.77 Q134.047 1275.16 134.047 1266.43 Q134.047 1257.68 137.103 1253.1 Q140.181 1248.49 145.992 1248.49 Z" fill="#000000" fill-rule="nonzero" fill-opacity="1" /><path clip-path="url(#clip630)" d="M176.732 1264.54 Q173.584 1264.54 171.732 1266.69 Q169.904 1268.84 169.904 1272.59 Q169.904 1276.32 171.732 1278.49 Q173.584 1280.65 176.732 1280.65 Q179.88 1280.65 181.709 1278.49 Q183.561 1276.32 183.561 1272.59 Q183.561 1268.84 181.709 1266.69 Q179.88 1264.54 176.732 1264.54 M186.015 1249.88 L186.015 1254.14 Q184.255 1253.31 182.45 1252.87 Q180.667 1252.43 178.908 1252.43 Q174.279 1252.43 171.825 1255.55 Q169.394 1258.68 169.047 1265 Q170.413 1262.98 172.473 1261.92 Q174.533 1260.83 177.01 1260.83 Q182.218 1260.83 185.228 1264 Q188.26 1267.15 188.26 1272.59 Q188.26 1277.92 185.112 1281.13 Q181.964 1284.35 176.732 1284.35 Q170.737 1284.35 167.566 1279.77 Q164.394 1275.16 164.394 1266.43 Q164.394 1258.24 168.283 1253.38 Q172.172 1248.49 178.723 1248.49 Q180.482 1248.49 182.265 1248.84 Q184.07 1249.19 186.015 1249.88 Z" fill="#000000" fill-rule="nonzero" fill-opacity="1" /><path clip-path="url(#clip630)" d="M51.8023 1016.44 L81.4781 1016.44 L81.4781 1020.37 L51.8023 1020.37 L51.8023 1016.44 Z" fill="#000000" fill-rule="nonzero" fill-opacity="1" /><path clip-path="url(#clip630)" d="M101.571 1001.79 Q97.9595 1001.79 96.1308 1005.35 Q94.3252 1008.89 94.3252 1016.02 Q94.3252 1023.13 96.1308 1026.69 Q97.9595 1030.24 101.571 1030.24 Q105.205 1030.24 107.01 1026.69 Q108.839 1023.13 108.839 1016.02 Q108.839 1008.89 107.01 1005.35 Q105.205 1001.79 101.571 1001.79 M101.571 998.083 Q107.381 998.083 110.436 1002.69 Q113.515 1007.27 113.515 1016.02 Q113.515 1024.75 110.436 1029.36 Q107.381 1033.94 101.571 1033.94 Q95.7604 1033.94 92.6817 1029.36 Q89.6262 1024.75 89.6262 1016.02 Q89.6262 1007.27 92.6817 1002.69 Q95.7604 998.083 101.571 998.083 Z" fill="#000000" fill-rule="nonzero" fill-opacity="1" /><path clip-path="url(#clip630)" d="M121.732 1027.39 L126.617 1027.39 L126.617 1033.27 L121.732 1033.27 L121.732 1027.39 Z" fill="#000000" fill-rule="nonzero" fill-opacity="1" /><path clip-path="url(#clip630)" d="M146.802 1001.79 Q143.191 1001.79 141.362 1005.35 Q139.556 1008.89 139.556 1016.02 Q139.556 1023.13 141.362 1026.69 Q143.191 1030.24 146.802 1030.24 Q150.436 1030.24 152.242 1026.69 Q154.07 1023.13 154.07 1016.02 Q154.07 1008.89 152.242 1005.35 Q150.436 1001.79 146.802 1001.79 M146.802 998.083 Q152.612 998.083 155.667 1002.69 Q158.746 1007.27 158.746 1016.02 Q158.746 1024.75 155.667 1029.36 Q152.612 1033.94 146.802 1033.94 Q140.992 1033.94 137.913 1029.36 Q134.857 1024.75 134.857 1016.02 Q134.857 1007.27 137.913 1002.69 Q140.992 998.083 146.802 998.083 Z" fill="#000000" fill-rule="nonzero" fill-opacity="1" /><path clip-path="url(#clip630)" d="M181.13 1014.63 Q184.487 1015.35 186.362 1017.62 Q188.26 1019.89 188.26 1023.22 Q188.26 1028.34 184.741 1031.14 Q181.223 1033.94 174.741 1033.94 Q172.566 1033.94 170.251 1033.5 Q167.959 1033.08 165.505 1032.23 L165.505 1027.71 Q167.45 1028.85 169.765 1029.43 Q172.079 1030 174.603 1030 Q179.001 1030 181.292 1028.27 Q183.607 1026.53 183.607 1023.22 Q183.607 1020.17 181.454 1018.45 Q179.325 1016.72 175.505 1016.72 L171.478 1016.72 L171.478 1012.87 L175.691 1012.87 Q179.14 1012.87 180.968 1011.51 Q182.797 1010.12 182.797 1007.53 Q182.797 1004.87 180.899 1003.45 Q179.024 1002.02 175.505 1002.02 Q173.584 1002.02 171.385 1002.43 Q169.186 1002.85 166.547 1003.73 L166.547 999.564 Q169.209 998.824 171.524 998.453 Q173.862 998.083 175.922 998.083 Q181.246 998.083 184.348 1000.51 Q187.45 1002.92 187.45 1007.04 Q187.45 1009.91 185.806 1011.9 Q184.163 1013.87 181.13 1014.63 Z" fill="#000000" fill-rule="nonzero" fill-opacity="1" /><path clip-path="url(#clip630)" d="M100.922 751.375 Q97.3113 751.375 95.4826 754.94 Q93.6771 758.482 93.6771 765.611 Q93.6771 772.718 95.4826 776.283 Q97.3113 779.824 100.922 779.824 Q104.557 779.824 106.362 776.283 Q108.191 772.718 108.191 765.611 Q108.191 758.482 106.362 754.94 Q104.557 751.375 100.922 751.375 M100.922 747.672 Q106.733 747.672 109.788 752.278 Q112.867 756.861 112.867 765.611 Q112.867 774.338 109.788 778.945 Q106.733 783.528 100.922 783.528 Q95.1123 783.528 92.0336 778.945 Q88.978 774.338 88.978 765.611 Q88.978 756.861 92.0336 752.278 Q95.1123 747.672 100.922 747.672 Z" fill="#000000" fill-rule="nonzero" fill-opacity="1" /><path clip-path="url(#clip630)" d="M121.084 776.977 L125.969 776.977 L125.969 782.857 L121.084 782.857 L121.084 776.977 Z" fill="#000000" fill-rule="nonzero" fill-opacity="1" /><path clip-path="url(#clip630)" d="M146.154 751.375 Q142.543 751.375 140.714 754.94 Q138.908 758.482 138.908 765.611 Q138.908 772.718 140.714 776.283 Q142.543 779.824 146.154 779.824 Q149.788 779.824 151.593 776.283 Q153.422 772.718 153.422 765.611 Q153.422 758.482 151.593 754.94 Q149.788 751.375 146.154 751.375 M146.154 747.672 Q151.964 747.672 155.019 752.278 Q158.098 756.861 158.098 765.611 Q158.098 774.338 155.019 778.945 Q151.964 783.528 146.154 783.528 Q140.343 783.528 137.265 778.945 Q134.209 774.338 134.209 765.611 Q134.209 756.861 137.265 752.278 Q140.343 747.672 146.154 747.672 Z" fill="#000000" fill-rule="nonzero" fill-opacity="1" /><path clip-path="url(#clip630)" d="M176.316 751.375 Q172.704 751.375 170.876 754.94 Q169.07 758.482 169.07 765.611 Q169.07 772.718 170.876 776.283 Q172.704 779.824 176.316 779.824 Q179.95 779.824 181.755 776.283 Q183.584 772.718 183.584 765.611 Q183.584 758.482 181.755 754.94 Q179.95 751.375 176.316 751.375 M176.316 747.672 Q182.126 747.672 185.181 752.278 Q188.26 756.861 188.26 765.611 Q188.26 774.338 185.181 778.945 Q182.126 783.528 176.316 783.528 Q170.505 783.528 167.427 778.945 Q164.371 774.338 164.371 765.611 Q164.371 756.861 167.427 752.278 Q170.505 747.672 176.316 747.672 Z" fill="#000000" fill-rule="nonzero" fill-opacity="1" /><path clip-path="url(#clip630)" d="M101.571 500.964 Q97.9595 500.964 96.1308 504.529 Q94.3252 508.07 94.3252 515.2 Q94.3252 522.306 96.1308 525.871 Q97.9595 529.413 101.571 529.413 Q105.205 529.413 107.01 525.871 Q108.839 522.306 108.839 515.2 Q108.839 508.07 107.01 504.529 Q105.205 500.964 101.571 500.964 M101.571 497.26 Q107.381 497.26 110.436 501.867 Q113.515 506.45 113.515 515.2 Q113.515 523.927 110.436 528.533 Q107.381 533.117 101.571 533.117 Q95.7604 533.117 92.6817 528.533 Q89.6262 523.927 89.6262 515.2 Q89.6262 506.45 92.6817 501.867 Q95.7604 497.26 101.571 497.26 Z" fill="#000000" fill-rule="nonzero" fill-opacity="1" /><path clip-path="url(#clip630)" d="M121.732 526.566 L126.617 526.566 L126.617 532.445 L121.732 532.445 L121.732 526.566 Z" fill="#000000" fill-rule="nonzero" fill-opacity="1" /><path clip-path="url(#clip630)" d="M146.802 500.964 Q143.191 500.964 141.362 504.529 Q139.556 508.07 139.556 515.2 Q139.556 522.306 141.362 525.871 Q143.191 529.413 146.802 529.413 Q150.436 529.413 152.242 525.871 Q154.07 522.306 154.07 515.2 Q154.07 508.07 152.242 504.529 Q150.436 500.964 146.802 500.964 M146.802 497.26 Q152.612 497.26 155.667 501.867 Q158.746 506.45 158.746 515.2 Q158.746 523.927 155.667 528.533 Q152.612 533.117 146.802 533.117 Q140.992 533.117 137.913 528.533 Q134.857 523.927 134.857 515.2 Q134.857 506.45 137.913 501.867 Q140.992 497.26 146.802 497.26 Z" fill="#000000" fill-rule="nonzero" fill-opacity="1" /><path clip-path="url(#clip630)" d="M181.13 513.811 Q184.487 514.529 186.362 516.797 Q188.26 519.066 188.26 522.399 Q188.26 527.515 184.741 530.316 Q181.223 533.117 174.741 533.117 Q172.566 533.117 170.251 532.677 Q167.959 532.26 165.505 531.404 L165.505 526.89 Q167.45 528.024 169.765 528.603 Q172.079 529.181 174.603 529.181 Q179.001 529.181 181.292 527.445 Q183.607 525.709 183.607 522.399 Q183.607 519.344 181.454 517.631 Q179.325 515.894 175.505 515.894 L171.478 515.894 L171.478 512.052 L175.691 512.052 Q179.14 512.052 180.968 510.686 Q182.797 509.297 182.797 506.705 Q182.797 504.043 180.899 502.631 Q179.024 501.195 175.505 501.195 Q173.584 501.195 171.385 501.612 Q169.186 502.029 166.547 502.908 L166.547 498.742 Q169.209 498.001 171.524 497.631 Q173.862 497.26 175.922 497.26 Q181.246 497.26 184.348 499.691 Q187.45 502.098 187.45 506.219 Q187.45 509.089 185.806 511.08 Q184.163 513.047 181.13 513.811 Z" fill="#000000" fill-rule="nonzero" fill-opacity="1" /><path clip-path="url(#clip630)" d="M100.76 250.553 Q97.1493 250.553 95.3206 254.117 Q93.515 257.659 93.515 264.789 Q93.515 271.895 95.3206 275.46 Q97.1493 279.002 100.76 279.002 Q104.395 279.002 106.2 275.46 Q108.029 271.895 108.029 264.789 Q108.029 257.659 106.2 254.117 Q104.395 250.553 100.76 250.553 M100.76 246.849 Q106.571 246.849 109.626 251.455 Q112.705 256.039 112.705 264.789 Q112.705 273.515 109.626 278.122 Q106.571 282.705 100.76 282.705 Q94.9502 282.705 91.8715 278.122 Q88.816 273.515 88.816 264.789 Q88.816 256.039 91.8715 251.455 Q94.9502 246.849 100.76 246.849 Z" fill="#000000" fill-rule="nonzero" fill-opacity="1" /><path clip-path="url(#clip630)" d="M120.922 276.154 L125.807 276.154 L125.807 282.034 L120.922 282.034 L120.922 276.154 Z" fill="#000000" fill-rule="nonzero" fill-opacity="1" /><path clip-path="url(#clip630)" d="M145.992 250.553 Q142.381 250.553 140.552 254.117 Q138.746 257.659 138.746 264.789 Q138.746 271.895 140.552 275.46 Q142.381 279.002 145.992 279.002 Q149.626 279.002 151.431 275.46 Q153.26 271.895 153.26 264.789 Q153.26 257.659 151.431 254.117 Q149.626 250.553 145.992 250.553 M145.992 246.849 Q151.802 246.849 154.857 251.455 Q157.936 256.039 157.936 264.789 Q157.936 273.515 154.857 278.122 Q151.802 282.705 145.992 282.705 Q140.181 282.705 137.103 278.122 Q134.047 273.515 134.047 264.789 Q134.047 256.039 137.103 251.455 Q140.181 246.849 145.992 246.849 Z" fill="#000000" fill-rule="nonzero" fill-opacity="1" /><path clip-path="url(#clip630)" d="M176.732 262.891 Q173.584 262.891 171.732 265.043 Q169.904 267.196 169.904 270.946 Q169.904 274.673 171.732 276.849 Q173.584 279.002 176.732 279.002 Q179.88 279.002 181.709 276.849 Q183.561 274.673 183.561 270.946 Q183.561 267.196 181.709 265.043 Q179.88 262.891 176.732 262.891 M186.015 248.238 L186.015 252.497 Q184.255 251.664 182.45 251.224 Q180.667 250.784 178.908 250.784 Q174.279 250.784 171.825 253.909 Q169.394 257.034 169.047 263.354 Q170.413 261.34 172.473 260.275 Q174.533 259.187 177.01 259.187 Q182.218 259.187 185.228 262.358 Q188.26 265.506 188.26 270.946 Q188.26 276.27 185.112 279.488 Q181.964 282.705 176.732 282.705 Q170.737 282.705 167.566 278.122 Q164.394 273.515 164.394 264.789 Q164.394 256.594 168.283 251.733 Q172.172 246.849 178.723 246.849 Q180.482 246.849 182.265 247.196 Q184.07 247.543 186.015 248.238 Z" fill="#000000" fill-rule="nonzero" fill-opacity="1" /><polyline clip-path="url(#clip632)" style="stroke:#009af9; stroke-linecap:round; stroke-linejoin:round; stroke-width:4; stroke-opacity:1; fill:none" points="284.5,690.71 304.581,690.148 324.661,688.432 344.741,685.468 364.821,681.099 384.901,675.102 404.981,667.193 425.061,657.036 445.142,644.265 465.222,628.528 485.302,609.538 505.382,587.153 525.462,561.459 545.542,532.864 565.622,502.173 585.703,470.631 605.783,439.926 625.863,412.119 645.943,389.51 666.023,374.432 686.103,368.994 706.184,374.801 726.264,392.682 746.344,422.479 766.424,462.915 786.504,511.596 806.584,565.148 826.664,619.477 846.745,670.156 866.825,712.864 886.905,743.853 906.985,760.369 927.065,760.975 947.145,745.732 967.225,716.215 987.306,675.357 1007.39,627.132 1027.47,576.127 1047.55,527.043 1067.63,484.192 1087.71,451.055 1107.79,429.939 1127.87,421.786 1147.95,426.147 1168.03,441.309 1188.11,464.571 1208.19,492.606 1228.27,521.887 1248.35,549.102 1268.43,571.518 1288.51,587.27 1308.59,595.514 1328.67,596.476 1348.75,591.369 1368.83,582.202 1388.91,571.512 1408.99,562.046 1429.07,556.421 1449.15,556.8 1469.23,564.614 1489.31,580.354 1509.39,603.46 1529.47,632.312 1549.55,664.342 1569.63,696.247 1589.71,724.304 1609.79,744.754 1629.87,754.212 1649.95,750.076 1670.03,730.874 1690.11,696.507 1710.19,648.366 1730.27,589.281 1750.35,523.305 1770.43,455.366 1790.51,390.793 1810.59,334.791 1830.67,291.918 1850.75,265.621 1870.83,257.891 1890.91,269.077 1910.99,297.874 1931.07,341.49 1951.15,395.967 1971.23,456.608 1991.31,518.474 2011.39,576.88 2031.47,627.84 2051.55,668.425 2071.63,696.979 2091.71,713.195 2111.79,718.045 2131.87,713.564 2151.95,702.538 2172.03,688.114 2192.11,673.393 2212.19,661.041 2232.28,652.967 2252.36,650.11 2272.44,652.342 2292.52,658.519 "/>
<polyline clip-path="url(#clip632)" style="stroke:#e26f46; stroke-linecap:round; stroke-linejoin:round; stroke-width:4; stroke-opacity:1; fill:none" points="294.54,759.959 314.621,748.414 334.701,735.937 354.781,721.886 374.861,705.61 394.941,686.487 415.021,664.003 435.101,637.873 455.182,608.204 475.262,575.677 495.342,541.721 515.422,508.64 535.502,479.632 555.582,458.661 575.663,450.158 595.743,458.525 615.823,487.508 635.903,539.487 655.983,614.794 676.063,711.197 696.143,823.645 716.224,944.396 736.304,1063.54 756.384,1169.93 776.464,1252.39 796.544,1301.09 816.624,1308.87 836.705,1272.36 856.785,1192.65 876.865,1075.47 896.945,930.74 917.025,771.633 937.105,613.143 957.185,470.409 977.266,356.996 997.346,283.331 1017.43,255.528 1037.51,274.733 1057.59,337.071 1077.67,434.204 1097.75,554.412 1117.83,684.05 1137.91,809.184 1157.99,917.202 1178.07,998.191 1198.15,1045.93 1218.23,1058.39 1238.31,1037.72 1258.39,989.746 1278.47,923.088 1298.55,848.017 1318.63,775.205 1338.71,714.506 1358.79,673.901 1378.87,658.676 1398.95,670.918 1419.03,709.327 1439.11,769.367 1459.19,843.714 1479.27,922.979 1499.35,996.636 1519.43,1054.1 1539.51,1085.87 1559.59,1084.62 1579.67,1046.15 1599.75,970.073 1619.83,860.159 1639.91,724.22 1659.99,573.549 1680.07,421.911 1700.15,284.172 1720.23,174.717 1740.31,105.821 1760.39,86.1857 1780.47,119.843 1800.55,205.56 1820.63,336.85 1840.71,502.608 1860.79,688.278 1880.87,877.433 1900.95,1053.54 1921.03,1201.74 1941.11,1310.34 1961.19,1371.99 1981.27,1384.24 2001.35,1349.63 2021.43,1275.18 2041.51,1171.43 2061.59,1051.11 2081.67,927.742 2101.75,814.074 2121.83,720.769 2141.91,655.314 2161.99,621.338 2182.07,618.366 2202.15,642.052 2222.23,684.842 2242.32,737.004 2262.4,787.898 2282.48,827.347 "/>
<polyline clip-path="url(#clip632)" style="stroke:#3da44d; stroke-linecap:round; stroke-linejoin:round; stroke-width:4; stroke-opacity:1; fill:none" points="284.5,763.904 304.581,763.892 324.661,763.851 344.741,763.776 364.821,763.654 384.901,763.469 404.981,763.199 425.061,762.818 445.142,762.296 465.222,761.601 485.302,760.703 505.382,759.579 525.462,758.221 545.542,756.644 565.622,754.888 585.703,753.031 605.783,751.182 625.863,749.48 645.943,748.08 666.023,747.133 686.103,746.77 706.184,747.072 726.264,748.055 746.344,749.656 766.424,751.739 786.504,754.103 806.584,756.505 826.664,758.7 846.745,760.468 866.825,761.645 886.905,762.147 906.985,761.975 927.065,761.21 947.145,759.995 967.225,758.512 987.306,756.953 1007.39,755.503 1027.47,754.314 1047.55,753.501 1067.63,753.134 1087.71,753.239 1107.79,753.803 1127.87,754.77 1147.95,756.052 1168.03,757.533 1188.11,759.08 1208.19,760.552 1228.27,761.825 1248.35,762.799 1268.43,763.421 1288.51,763.686 1308.59,763.639 1328.67,763.364 1348.75,762.963 1368.83,762.542 1388.91,762.184 1408.99,761.945 1429.07,761.845 1449.15,761.879 1469.23,762.019 1489.31,762.236 1509.39,762.503 1529.47,762.801 1549.55,763.122 1569.63,763.458 1589.71,763.802 1609.79,764.141 1629.87,764.459 1649.95,764.739 1670.03,764.966 1690.11,765.136 1710.19,765.252 1730.27,765.318 1750.35,765.331 1770.43,765.274 1790.51,765.104 1810.59,764.763 1830.67,764.179 1850.75,763.293 1870.83,762.073 1890.91,760.534 1910.99,758.751 1931.07,756.856 1951.15,755.018 1971.23,753.429 1991.31,752.261 2011.39,751.648 2031.47,751.657 2051.55,752.283 2071.63,753.45 2091.71,755.025 2111.79,756.844 2131.87,758.736 2151.95,760.544 2172.03,762.148 2192.11,763.468 2212.19,764.462 2232.28,765.112 2252.36,765.413 2272.44,765.344 2292.52,764.857 "/>
<polyline clip-path="url(#clip632)" style="stroke:#c271d2; stroke-linecap:round; stroke-linejoin:round; stroke-width:4; stroke-opacity:1; fill:none" points="284.5,765.577 304.581,765.409 324.661,765.238 344.741,765.062 364.821,764.876 384.901,764.674 404.981,764.45 425.061,764.193 445.142,763.891 465.222,763.528 485.302,763.086 505.382,762.542 525.462,761.875 545.542,761.06 565.622,760.079 585.703,758.918 605.783,757.571 625.863,756.046 645.943,754.366 666.023,752.569 686.103,750.707 706.184,748.841 726.264,747.04 746.344,745.368 766.424,743.88 786.504,742.614 806.584,741.587 826.664,740.79 846.745,740.191 866.825,739.738 886.905,739.37 906.985,739.019 927.065,738.62 947.145,738.123 967.225,737.491 987.306,736.706 1007.39,735.771 1027.47,734.705 1047.55,733.538 1067.63,732.312 1087.71,731.073 1107.79,729.867 1127.87,728.738 1147.95,727.722 1168.03,726.843 1188.11,726.116 1208.19,725.54 1228.27,725.101 1248.35,724.775 1268.43,724.528 1288.51,724.326 1308.59,724.134 1328.67,723.927 1348.75,723.686 1368.83,723.403 1388.91,723.082 1408.99,722.731 1429.07,722.362 1449.15,721.991 1469.23,721.628 1489.31,721.283 1509.39,720.963 1529.47,720.67 1549.55,720.409 1569.63,720.18 1589.71,719.985 1609.79,719.825 1629.87,719.697 1649.95,719.599 1670.03,719.527 1690.11,719.474 1710.19,719.436 1730.27,719.407 1750.35,719.382 1770.43,719.354 1790.51,719.316 1810.59,719.251 1830.67,719.141 1850.75,718.957 1870.83,718.667 1890.91,718.24 1910.99,717.646 1931.07,716.869 1951.15,715.905 1971.23,714.77 1991.31,713.497 2011.39,712.134 2031.47,710.742 2051.55,709.381 2071.63,708.11 2091.71,706.976 2111.79,706.012 2131.87,705.234 2151.95,704.64 2172.03,704.217 2192.11,703.94 2212.19,703.779 2232.28,703.7 2252.36,703.668 2272.44,703.649 2292.52,703.601 "/>
<path clip-path="url(#clip630)" d="M295.21 1377.32 L834.609 1377.32 L834.609 1118.12 L295.21 1118.12  Z" fill="#ffffff" fill-rule="evenodd" fill-opacity="1"/>
<polyline clip-path="url(#clip630)" style="stroke:#000000; stroke-linecap:round; stroke-linejoin:round; stroke-width:4; stroke-opacity:1; fill:none" points="295.21,1377.32 834.609,1377.32 834.609,1118.12 295.21,1118.12 295.21,1377.32 "/>
<polyline clip-path="url(#clip630)" style="stroke:#009af9; stroke-linecap:round; stroke-linejoin:round; stroke-width:4; stroke-opacity:1; fill:none" points="318.86,1169.96 460.759,1169.96 "/>
<path clip-path="url(#clip630)" d="M486.493 1165.94 Q487.905 1163.58 491.4 1161.49 Q492.766 1160.68 496.979 1160.68 Q501.701 1160.68 504.641 1164.43 Q507.604 1168.18 507.604 1174.3 Q507.604 1180.41 504.641 1184.16 Q501.701 1187.91 496.979 1187.91 Q494.132 1187.91 492.071 1186.8 Q490.034 1185.66 488.692 1183.35 L488.692 1197.1 L484.409 1197.1 L484.409 1174.53 Q484.409 1169.18 486.493 1165.94 M503.182 1174.3 Q503.182 1169.6 501.238 1166.93 Q499.317 1164.25 495.937 1164.25 Q492.558 1164.25 490.613 1166.93 Q488.692 1169.6 488.692 1174.3 Q488.692 1178.99 490.613 1181.68 Q492.558 1184.34 495.937 1184.34 Q499.317 1184.34 501.238 1181.68 Q503.182 1178.99 503.182 1174.3 Z" fill="#000000" fill-rule="nonzero" fill-opacity="1" /><path clip-path="url(#clip630)" d="M524.895 1151.26 Q521.793 1156.59 520.289 1161.8 Q518.784 1167 518.784 1172.35 Q518.784 1177.7 520.289 1182.95 Q521.817 1188.18 524.895 1193.49 L521.192 1193.49 Q517.719 1188.05 515.983 1182.79 Q514.27 1177.54 514.27 1172.35 Q514.27 1167.19 515.983 1161.96 Q517.696 1156.73 521.192 1151.26 L524.895 1151.26 Z" fill="#000000" fill-rule="nonzero" fill-opacity="1" /><path clip-path="url(#clip630)" d="M537.372 1153.95 L537.372 1161.31 L546.145 1161.31 L546.145 1164.62 L537.372 1164.62 L537.372 1178.69 Q537.372 1181.86 538.229 1182.77 Q539.108 1183.67 541.77 1183.67 L546.145 1183.67 L546.145 1187.24 L541.77 1187.24 Q536.84 1187.24 534.965 1185.41 Q533.09 1183.55 533.09 1178.69 L533.09 1164.62 L529.965 1164.62 L529.965 1161.31 L533.09 1161.31 L533.09 1153.95 L537.372 1153.95 Z" fill="#000000" fill-rule="nonzero" fill-opacity="1" /><path clip-path="url(#clip630)" d="M551.076 1151.26 L554.779 1151.26 Q558.252 1156.73 559.965 1161.96 Q561.701 1167.19 561.701 1172.35 Q561.701 1177.54 559.965 1182.79 Q558.252 1188.05 554.779 1193.49 L551.076 1193.49 Q554.154 1188.18 555.659 1182.95 Q557.187 1177.7 557.187 1172.35 Q557.187 1167 555.659 1161.8 Q554.154 1156.59 551.076 1151.26 Z" fill="#000000" fill-rule="nonzero" fill-opacity="1" /><path clip-path="url(#clip630)" d="M595.543 1151.26 Q592.441 1156.59 590.937 1161.8 Q589.432 1167 589.432 1172.35 Q589.432 1177.7 590.937 1182.95 Q592.464 1188.18 595.543 1193.49 L591.839 1193.49 Q588.367 1188.05 586.631 1182.79 Q584.918 1177.54 584.918 1172.35 Q584.918 1167.19 586.631 1161.96 Q588.344 1156.73 591.839 1151.26 L595.543 1151.26 Z" fill="#000000" fill-rule="nonzero" fill-opacity="1" /><path clip-path="url(#clip630)" d="M622.418 1174.3 Q622.418 1169.6 620.474 1166.93 Q618.552 1164.25 615.173 1164.25 Q611.793 1164.25 609.849 1166.93 Q607.927 1169.6 607.927 1174.3 Q607.927 1178.99 609.849 1181.68 Q611.793 1184.34 615.173 1184.34 Q618.552 1184.34 620.474 1181.68 Q622.418 1178.99 622.418 1174.3 M607.927 1165.24 Q609.27 1162.93 611.307 1161.82 Q613.367 1160.68 616.214 1160.68 Q620.936 1160.68 623.876 1164.43 Q626.839 1168.18 626.839 1174.3 Q626.839 1180.41 623.876 1184.16 Q620.936 1187.91 616.214 1187.91 Q613.367 1187.91 611.307 1186.8 Q609.27 1185.66 607.927 1183.35 L607.927 1187.24 L603.645 1187.24 L603.645 1151.22 L607.927 1151.22 L607.927 1165.24 Z" fill="#000000" fill-rule="nonzero" fill-opacity="1" /><path clip-path="url(#clip630)" d="M633.46 1177 L633.46 1161.31 L637.719 1161.31 L637.719 1176.84 Q637.719 1180.52 639.154 1182.37 Q640.589 1184.2 643.459 1184.2 Q646.909 1184.2 648.899 1182 Q650.913 1179.8 650.913 1176.01 L650.913 1161.31 L655.172 1161.31 L655.172 1187.24 L650.913 1187.24 L650.913 1183.25 Q649.362 1185.61 647.302 1186.77 Q645.265 1187.91 642.557 1187.91 Q638.089 1187.91 635.774 1185.13 Q633.46 1182.35 633.46 1177 M644.177 1160.68 L644.177 1160.68 Z" fill="#000000" fill-rule="nonzero" fill-opacity="1" /><path clip-path="url(#clip630)" d="M663.945 1151.22 L668.205 1151.22 L668.205 1187.24 L663.945 1187.24 L663.945 1151.22 Z" fill="#000000" fill-rule="nonzero" fill-opacity="1" /><path clip-path="url(#clip630)" d="M676.955 1151.22 L681.237 1151.22 L681.237 1172.49 L693.945 1161.31 L699.385 1161.31 L685.635 1173.44 L699.964 1187.24 L694.408 1187.24 L681.237 1174.57 L681.237 1187.24 L676.955 1187.24 L676.955 1151.22 Z" fill="#000000" fill-rule="nonzero" fill-opacity="1" /><path clip-path="url(#clip630)" d="M703.899 1151.26 L707.603 1151.26 Q711.075 1156.73 712.788 1161.96 Q714.524 1167.19 714.524 1172.35 Q714.524 1177.54 712.788 1182.79 Q711.075 1188.05 707.603 1193.49 L703.899 1193.49 Q706.978 1188.18 708.482 1182.95 Q710.01 1177.7 710.01 1172.35 Q710.01 1167 708.482 1161.8 Q706.978 1156.59 703.899 1151.26 Z" fill="#000000" fill-rule="nonzero" fill-opacity="1" /><polyline clip-path="url(#clip630)" style="stroke:#e26f46; stroke-linecap:round; stroke-linejoin:round; stroke-width:4; stroke-opacity:1; fill:none" points="318.86,1221.8 460.759,1221.8 "/>
<path clip-path="url(#clip630)" d="M503.321 1217.08 L503.321 1203.06 L507.581 1203.06 L507.581 1239.08 L503.321 1239.08 L503.321 1235.19 Q501.979 1237.5 499.919 1238.64 Q497.882 1239.75 495.011 1239.75 Q490.312 1239.75 487.349 1236 Q484.409 1232.25 484.409 1226.14 Q484.409 1220.02 487.349 1216.27 Q490.312 1212.52 495.011 1212.52 Q497.882 1212.52 499.919 1213.66 Q501.979 1214.77 503.321 1217.08 M488.808 1226.14 Q488.808 1230.83 490.729 1233.52 Q492.673 1236.18 496.053 1236.18 Q499.432 1236.18 501.377 1233.52 Q503.321 1230.83 503.321 1226.14 Q503.321 1221.44 501.377 1218.77 Q499.432 1216.09 496.053 1216.09 Q492.673 1216.09 490.729 1218.77 Q488.808 1221.44 488.808 1226.14 Z" fill="#000000" fill-rule="nonzero" fill-opacity="1" /><path clip-path="url(#clip630)" d="M518.275 1217.78 Q519.687 1215.42 523.182 1213.33 Q524.548 1212.52 528.761 1212.52 Q533.483 1212.52 536.423 1216.27 Q539.386 1220.02 539.386 1226.14 Q539.386 1232.25 536.423 1236 Q533.483 1239.75 528.761 1239.75 Q525.914 1239.75 523.854 1238.64 Q521.817 1237.5 520.474 1235.19 L520.474 1248.94 L516.192 1248.94 L516.192 1226.37 Q516.192 1221.02 518.275 1217.78 M534.965 1226.14 Q534.965 1221.44 533.02 1218.77 Q531.099 1216.09 527.719 1216.09 Q524.34 1216.09 522.395 1218.77 Q520.474 1221.44 520.474 1226.14 Q520.474 1230.83 522.395 1233.52 Q524.34 1236.18 527.719 1236.18 Q531.099 1236.18 533.02 1233.52 Q534.965 1230.83 534.965 1226.14 Z" fill="#000000" fill-rule="nonzero" fill-opacity="1" /><path clip-path="url(#clip630)" d="M556.678 1203.1 Q553.576 1208.43 552.071 1213.64 Q550.566 1218.84 550.566 1224.19 Q550.566 1229.54 552.071 1234.79 Q553.599 1240.02 556.678 1245.33 L552.974 1245.33 Q549.502 1239.89 547.766 1234.63 Q546.053 1229.38 546.053 1224.19 Q546.053 1219.03 547.766 1213.8 Q549.479 1208.57 552.974 1203.1 L556.678 1203.1 Z" fill="#000000" fill-rule="nonzero" fill-opacity="1" /><path clip-path="url(#clip630)" d="M569.154 1205.79 L569.154 1213.15 L577.927 1213.15 L577.927 1216.46 L569.154 1216.46 L569.154 1230.53 Q569.154 1233.7 570.011 1234.61 Q570.89 1235.51 573.552 1235.51 L577.927 1235.51 L577.927 1239.08 L573.552 1239.08 Q568.622 1239.08 566.747 1237.25 Q564.872 1235.39 564.872 1230.53 L564.872 1216.46 L561.747 1216.46 L561.747 1213.15 L564.872 1213.15 L564.872 1205.79 L569.154 1205.79 Z" fill="#000000" fill-rule="nonzero" fill-opacity="1" /><path clip-path="url(#clip630)" d="M582.858 1203.1 L586.562 1203.1 Q590.034 1208.57 591.747 1213.8 Q593.483 1219.03 593.483 1224.19 Q593.483 1229.38 591.747 1234.63 Q590.034 1239.89 586.562 1245.33 L582.858 1245.33 Q585.937 1240.02 587.441 1234.79 Q588.969 1229.54 588.969 1224.19 Q588.969 1218.84 587.441 1213.64 Q585.937 1208.43 582.858 1203.1 Z" fill="#000000" fill-rule="nonzero" fill-opacity="1" /><path clip-path="url(#clip630)" d="M609.594 1204.52 L613.529 1204.52 L601.492 1243.47 L597.557 1243.47 L609.594 1204.52 Z" fill="#000000" fill-rule="nonzero" fill-opacity="1" /><path clip-path="url(#clip630)" d="M635.057 1217.08 L635.057 1203.06 L639.316 1203.06 L639.316 1239.08 L635.057 1239.08 L635.057 1235.19 Q633.714 1237.5 631.654 1238.64 Q629.617 1239.75 626.747 1239.75 Q622.048 1239.75 619.085 1236 Q616.145 1232.25 616.145 1226.14 Q616.145 1220.02 619.085 1216.27 Q622.048 1212.52 626.747 1212.52 Q629.617 1212.52 631.654 1213.66 Q633.714 1214.77 635.057 1217.08 M620.543 1226.14 Q620.543 1230.83 622.464 1233.52 Q624.409 1236.18 627.788 1236.18 Q631.168 1236.18 633.112 1233.52 Q635.057 1230.83 635.057 1226.14 Q635.057 1221.44 633.112 1218.77 Q631.168 1216.09 627.788 1216.09 Q624.409 1216.09 622.464 1218.77 Q620.543 1221.44 620.543 1226.14 Z" fill="#000000" fill-rule="nonzero" fill-opacity="1" /><path clip-path="url(#clip630)" d="M652.302 1205.79 L652.302 1213.15 L661.075 1213.15 L661.075 1216.46 L652.302 1216.46 L652.302 1230.53 Q652.302 1233.7 653.159 1234.61 Q654.038 1235.51 656.7 1235.51 L661.075 1235.51 L661.075 1239.08 L656.7 1239.08 Q651.77 1239.08 649.895 1237.25 Q648.02 1235.39 648.02 1230.53 L648.02 1216.46 L644.895 1216.46 L644.895 1213.15 L648.02 1213.15 L648.02 1205.79 L652.302 1205.79 Z" fill="#000000" fill-rule="nonzero" fill-opacity="1" /><path clip-path="url(#clip630)" d="M691.978 1203.1 Q688.876 1208.43 687.371 1213.64 Q685.867 1218.84 685.867 1224.19 Q685.867 1229.54 687.371 1234.79 Q688.899 1240.02 691.978 1245.33 L688.274 1245.33 Q684.802 1239.89 683.066 1234.63 Q681.353 1229.38 681.353 1224.19 Q681.353 1219.03 683.066 1213.8 Q684.779 1208.57 688.274 1203.1 L691.978 1203.1 Z" fill="#000000" fill-rule="nonzero" fill-opacity="1" /><path clip-path="url(#clip630)" d="M718.853 1226.14 Q718.853 1221.44 716.908 1218.77 Q714.987 1216.09 711.607 1216.09 Q708.228 1216.09 706.283 1218.77 Q704.362 1221.44 704.362 1226.14 Q704.362 1230.83 706.283 1233.52 Q708.228 1236.18 711.607 1236.18 Q714.987 1236.18 716.908 1233.52 Q718.853 1230.83 718.853 1226.14 M704.362 1217.08 Q705.705 1214.77 707.742 1213.66 Q709.802 1212.52 712.649 1212.52 Q717.371 1212.52 720.311 1216.27 Q723.274 1220.02 723.274 1226.14 Q723.274 1232.25 720.311 1236 Q717.371 1239.75 712.649 1239.75 Q709.802 1239.75 707.742 1238.64 Q705.705 1237.5 704.362 1235.19 L704.362 1239.08 L700.08 1239.08 L700.08 1203.06 L704.362 1203.06 L704.362 1217.08 Z" fill="#000000" fill-rule="nonzero" fill-opacity="1" /><path clip-path="url(#clip630)" d="M729.894 1228.84 L729.894 1213.15 L734.153 1213.15 L734.153 1228.68 Q734.153 1232.36 735.589 1234.21 Q737.024 1236.04 739.894 1236.04 Q743.343 1236.04 745.334 1233.84 Q747.348 1231.64 747.348 1227.85 L747.348 1213.15 L751.607 1213.15 L751.607 1239.08 L747.348 1239.08 L747.348 1235.09 Q745.797 1237.45 743.737 1238.61 Q741.7 1239.75 738.991 1239.75 Q734.524 1239.75 732.209 1236.97 Q729.894 1234.19 729.894 1228.84 M740.612 1212.52 L740.612 1212.52 Z" fill="#000000" fill-rule="nonzero" fill-opacity="1" /><path clip-path="url(#clip630)" d="M760.38 1203.06 L764.639 1203.06 L764.639 1239.08 L760.38 1239.08 L760.38 1203.06 Z" fill="#000000" fill-rule="nonzero" fill-opacity="1" /><path clip-path="url(#clip630)" d="M773.389 1203.06 L777.672 1203.06 L777.672 1224.33 L790.38 1213.15 L795.82 1213.15 L782.07 1225.28 L796.398 1239.08 L790.843 1239.08 L777.672 1226.41 L777.672 1239.08 L773.389 1239.08 L773.389 1203.06 Z" fill="#000000" fill-rule="nonzero" fill-opacity="1" /><path clip-path="url(#clip630)" d="M800.334 1203.1 L804.037 1203.1 Q807.51 1208.57 809.222 1213.8 Q810.959 1219.03 810.959 1224.19 Q810.959 1229.38 809.222 1234.63 Q807.51 1239.89 804.037 1245.33 L800.334 1245.33 Q803.412 1240.02 804.917 1234.79 Q806.445 1229.54 806.445 1224.19 Q806.445 1218.84 804.917 1213.64 Q803.412 1208.43 800.334 1203.1 Z" fill="#000000" fill-rule="nonzero" fill-opacity="1" /><polyline clip-path="url(#clip630)" style="stroke:#3da44d; stroke-linecap:round; stroke-linejoin:round; stroke-width:4; stroke-opacity:1; fill:none" points="318.86,1273.64 460.759,1273.64 "/>
<path clip-path="url(#clip630)" d="M486.493 1269.62 Q487.905 1267.26 491.4 1265.17 Q492.766 1264.36 496.979 1264.36 Q501.701 1264.36 504.641 1268.11 Q507.604 1271.86 507.604 1277.98 Q507.604 1284.09 504.641 1287.84 Q501.701 1291.59 496.979 1291.59 Q494.132 1291.59 492.071 1290.48 Q490.034 1289.34 488.692 1287.03 L488.692 1300.78 L484.409 1300.78 L484.409 1278.21 Q484.409 1272.86 486.493 1269.62 M503.182 1277.98 Q503.182 1273.28 501.238 1270.61 Q499.317 1267.93 495.937 1267.93 Q492.558 1267.93 490.613 1270.61 Q488.692 1273.28 488.692 1277.98 Q488.692 1282.67 490.613 1285.36 Q492.558 1288.02 495.937 1288.02 Q499.317 1288.02 501.238 1285.36 Q503.182 1282.67 503.182 1277.98 Z" fill="#000000" fill-rule="nonzero" fill-opacity="1" /><path clip-path="url(#clip630)" d="M524.895 1254.94 Q521.793 1260.27 520.289 1265.48 Q518.784 1270.68 518.784 1276.03 Q518.784 1281.38 520.289 1286.63 Q521.817 1291.86 524.895 1297.17 L521.192 1297.17 Q517.719 1291.73 515.983 1286.47 Q514.27 1281.22 514.27 1276.03 Q514.27 1270.87 515.983 1265.64 Q517.696 1260.41 521.192 1254.94 L524.895 1254.94 Z" fill="#000000" fill-rule="nonzero" fill-opacity="1" /><path clip-path="url(#clip630)" d="M537.372 1257.63 L537.372 1264.99 L546.145 1264.99 L546.145 1268.3 L537.372 1268.3 L537.372 1282.37 Q537.372 1285.54 538.229 1286.45 Q539.108 1287.35 541.77 1287.35 L546.145 1287.35 L546.145 1290.92 L541.77 1290.92 Q536.84 1290.92 534.965 1289.09 Q533.09 1287.23 533.09 1282.37 L533.09 1268.3 L529.965 1268.3 L529.965 1264.99 L533.09 1264.99 L533.09 1257.63 L537.372 1257.63 Z" fill="#000000" fill-rule="nonzero" fill-opacity="1" /><path clip-path="url(#clip630)" d="M551.076 1254.94 L554.779 1254.94 Q558.252 1260.41 559.965 1265.64 Q561.701 1270.87 561.701 1276.03 Q561.701 1281.22 559.965 1286.47 Q558.252 1291.73 554.779 1297.17 L551.076 1297.17 Q554.154 1291.86 555.659 1286.63 Q557.187 1281.38 557.187 1276.03 Q557.187 1270.68 555.659 1265.48 Q554.154 1260.27 551.076 1254.94 Z" fill="#000000" fill-rule="nonzero" fill-opacity="1" /><path clip-path="url(#clip630)" d="M595.543 1254.94 Q592.441 1260.27 590.937 1265.48 Q589.432 1270.68 589.432 1276.03 Q589.432 1281.38 590.937 1286.63 Q592.464 1291.86 595.543 1297.17 L591.839 1297.17 Q588.367 1291.73 586.631 1286.47 Q584.918 1281.22 584.918 1276.03 Q584.918 1270.87 586.631 1265.64 Q588.344 1260.41 591.839 1254.94 L595.543 1254.94 Z" fill="#000000" fill-rule="nonzero" fill-opacity="1" /><path clip-path="url(#clip630)" d="M625.983 1276.89 L625.983 1278.97 L606.4 1278.97 Q606.677 1283.37 609.038 1285.68 Q611.423 1287.98 615.659 1287.98 Q618.112 1287.98 620.404 1287.37 Q622.719 1286.77 624.987 1285.57 L624.987 1289.6 Q622.696 1290.57 620.288 1291.08 Q617.881 1291.59 615.404 1291.59 Q609.2 1291.59 605.566 1287.98 Q601.955 1284.36 601.955 1278.21 Q601.955 1271.84 605.381 1268.11 Q608.83 1264.36 614.663 1264.36 Q619.895 1264.36 622.927 1267.74 Q625.983 1271.1 625.983 1276.89 M621.723 1275.64 Q621.677 1272.14 619.756 1270.06 Q617.858 1267.98 614.71 1267.98 Q611.145 1267.98 608.992 1269.99 Q606.862 1272 606.538 1275.66 L621.723 1275.64 Z" fill="#000000" fill-rule="nonzero" fill-opacity="1" /><path clip-path="url(#clip630)" d="M650.034 1268.92 L650.034 1254.9 L654.293 1254.9 L654.293 1290.92 L650.034 1290.92 L650.034 1287.03 Q648.691 1289.34 646.631 1290.48 Q644.594 1291.59 641.723 1291.59 Q637.024 1291.59 634.061 1287.84 Q631.122 1284.09 631.122 1277.98 Q631.122 1271.86 634.061 1268.11 Q637.024 1264.36 641.723 1264.36 Q644.594 1264.36 646.631 1265.5 Q648.691 1266.61 650.034 1268.92 M635.52 1277.98 Q635.52 1282.67 637.441 1285.36 Q639.385 1288.02 642.765 1288.02 Q646.145 1288.02 648.089 1285.36 Q650.034 1282.67 650.034 1277.98 Q650.034 1273.28 648.089 1270.61 Q646.145 1267.93 642.765 1267.93 Q639.385 1267.93 637.441 1270.61 Q635.52 1273.28 635.52 1277.98 Z" fill="#000000" fill-rule="nonzero" fill-opacity="1" /><path clip-path="url(#clip630)" d="M680.126 1277.65 Q680.126 1273.02 678.205 1270.48 Q676.307 1267.93 672.857 1267.93 Q669.432 1267.93 667.51 1270.48 Q665.612 1273.02 665.612 1277.65 Q665.612 1282.26 667.51 1284.8 Q669.432 1287.35 672.857 1287.35 Q676.307 1287.35 678.205 1284.8 Q680.126 1282.26 680.126 1277.65 M684.385 1287.7 Q684.385 1294.32 681.445 1297.54 Q678.506 1300.78 672.441 1300.78 Q670.195 1300.78 668.205 1300.43 Q666.214 1300.11 664.339 1299.41 L664.339 1295.27 Q666.214 1296.29 668.043 1296.77 Q669.871 1297.26 671.77 1297.26 Q675.959 1297.26 678.043 1295.06 Q680.126 1292.88 680.126 1288.46 L680.126 1286.36 Q678.807 1288.65 676.746 1289.78 Q674.686 1290.92 671.816 1290.92 Q667.047 1290.92 664.131 1287.28 Q661.214 1283.65 661.214 1277.65 Q661.214 1271.63 664.131 1268 Q667.047 1264.36 671.816 1264.36 Q674.686 1264.36 676.746 1265.5 Q678.807 1266.63 680.126 1268.92 L680.126 1264.99 L684.385 1264.99 L684.385 1287.7 Z" fill="#000000" fill-rule="nonzero" fill-opacity="1" /><path clip-path="url(#clip630)" d="M715.334 1276.89 L715.334 1278.97 L695.751 1278.97 Q696.029 1283.37 698.39 1285.68 Q700.774 1287.98 705.01 1287.98 Q707.464 1287.98 709.755 1287.37 Q712.07 1286.77 714.339 1285.57 L714.339 1289.6 Q712.047 1290.57 709.64 1291.08 Q707.232 1291.59 704.755 1291.59 Q698.552 1291.59 694.918 1287.98 Q691.306 1284.36 691.306 1278.21 Q691.306 1271.84 694.732 1268.11 Q698.181 1264.36 704.015 1264.36 Q709.246 1264.36 712.279 1267.74 Q715.334 1271.1 715.334 1276.89 M711.075 1275.64 Q711.029 1272.14 709.107 1270.06 Q707.209 1267.98 704.061 1267.98 Q700.496 1267.98 698.343 1269.99 Q696.214 1272 695.89 1275.66 L711.075 1275.64 Z" fill="#000000" fill-rule="nonzero" fill-opacity="1" /><path clip-path="url(#clip630)" d="M721.654 1254.94 L725.357 1254.94 Q728.829 1260.41 730.542 1265.64 Q732.278 1270.87 732.278 1276.03 Q732.278 1281.22 730.542 1286.47 Q728.829 1291.73 725.357 1297.17 L721.654 1297.17 Q724.732 1291.86 726.237 1286.63 Q727.765 1281.38 727.765 1276.03 Q727.765 1270.68 726.237 1265.48 Q724.732 1260.27 721.654 1254.94 Z" fill="#000000" fill-rule="nonzero" fill-opacity="1" /><polyline clip-path="url(#clip630)" style="stroke:#c271d2; stroke-linecap:round; stroke-linejoin:round; stroke-width:4; stroke-opacity:1; fill:none" points="318.86,1325.48 460.759,1325.48 "/>
<path clip-path="url(#clip630)" d="M492.882 1313.82 Q493.067 1309.95 494.942 1308.43 Q496.817 1306.88 498.553 1306.88 Q500.312 1306.88 501.77 1308.33 Q503.229 1309.77 503.692 1313.01 L500.266 1313.36 Q499.872 1310.35 498.553 1310.35 Q496.909 1310.35 496.724 1314.4 L495.22 1345.88 Q495.034 1349.75 493.159 1351.27 Q491.284 1352.82 489.525 1352.82 Q487.789 1352.82 486.331 1351.37 Q484.872 1349.93 484.409 1346.69 L487.835 1346.34 Q488.229 1349.35 489.548 1349.35 Q491.192 1349.35 491.377 1345.3 L492.882 1313.82 Z" fill="#000000" fill-rule="nonzero" fill-opacity="1" /><path clip-path="url(#clip630)" d="M512.789 1321.46 Q514.201 1319.1 517.696 1317.01 Q519.062 1316.2 523.275 1316.2 Q527.997 1316.2 530.937 1319.95 Q533.9 1323.7 533.9 1329.82 Q533.9 1335.93 530.937 1339.68 Q527.997 1343.43 523.275 1343.43 Q520.428 1343.43 518.368 1342.32 Q516.331 1341.18 514.988 1338.87 L514.988 1352.62 L510.706 1352.62 L510.706 1330.05 Q510.706 1324.7 512.789 1321.46 M529.479 1329.82 Q529.479 1325.12 527.534 1322.45 Q525.613 1319.77 522.233 1319.77 Q518.854 1319.77 516.909 1322.45 Q514.988 1325.12 514.988 1329.82 Q514.988 1334.51 516.909 1337.2 Q518.854 1339.86 522.233 1339.86 Q525.613 1339.86 527.534 1337.2 Q529.479 1334.51 529.479 1329.82 Z" fill="#000000" fill-rule="nonzero" fill-opacity="1" /><path clip-path="url(#clip630)" d="M551.191 1306.78 Q548.09 1312.11 546.585 1317.32 Q545.08 1322.52 545.08 1327.87 Q545.08 1333.22 546.585 1338.47 Q548.113 1343.7 551.191 1349.01 L547.488 1349.01 Q544.016 1343.57 542.279 1338.31 Q540.567 1333.06 540.567 1327.87 Q540.567 1322.71 542.279 1317.48 Q543.992 1312.25 547.488 1306.78 L551.191 1306.78 Z" fill="#000000" fill-rule="nonzero" fill-opacity="1" /><path clip-path="url(#clip630)" d="M563.668 1309.47 L563.668 1316.83 L572.441 1316.83 L572.441 1320.14 L563.668 1320.14 L563.668 1334.21 Q563.668 1337.38 564.525 1338.29 Q565.404 1339.19 568.066 1339.19 L572.441 1339.19 L572.441 1342.76 L568.066 1342.76 Q563.136 1342.76 561.261 1340.93 Q559.386 1339.07 559.386 1334.21 L559.386 1320.14 L556.261 1320.14 L556.261 1316.83 L559.386 1316.83 L559.386 1309.47 L563.668 1309.47 Z" fill="#000000" fill-rule="nonzero" fill-opacity="1" /><path clip-path="url(#clip630)" d="M577.372 1306.78 L581.076 1306.78 Q584.548 1312.25 586.261 1317.48 Q587.997 1322.71 587.997 1327.87 Q587.997 1333.06 586.261 1338.31 Q584.548 1343.57 581.076 1349.01 L577.372 1349.01 Q580.451 1343.7 581.955 1338.47 Q583.483 1333.22 583.483 1327.87 Q583.483 1322.52 581.955 1317.32 Q580.451 1312.11 577.372 1306.78 Z" fill="#000000" fill-rule="nonzero" fill-opacity="1" /><path clip-path="url(#clip630)" d="M613.599 1320.76 L613.599 1306.74 L617.858 1306.74 L617.858 1342.76 L613.599 1342.76 L613.599 1338.87 Q612.256 1341.18 610.196 1342.32 Q608.159 1343.43 605.288 1343.43 Q600.589 1343.43 597.626 1339.68 Q594.687 1335.93 594.687 1329.82 Q594.687 1323.7 597.626 1319.95 Q600.589 1316.2 605.288 1316.2 Q608.159 1316.2 610.196 1317.34 Q612.256 1318.45 613.599 1320.76 M599.085 1329.82 Q599.085 1334.51 601.006 1337.2 Q602.95 1339.86 606.33 1339.86 Q609.71 1339.86 611.654 1337.2 Q613.599 1334.51 613.599 1329.82 Q613.599 1325.12 611.654 1322.45 Q609.71 1319.77 606.33 1319.77 Q602.95 1319.77 601.006 1322.45 Q599.085 1325.12 599.085 1329.82 Z" fill="#000000" fill-rule="nonzero" fill-opacity="1" /><path clip-path="url(#clip630)" d="M630.844 1309.47 L630.844 1316.83 L639.617 1316.83 L639.617 1320.14 L630.844 1320.14 L630.844 1334.21 Q630.844 1337.38 631.7 1338.29 Q632.58 1339.19 635.242 1339.19 L639.617 1339.19 L639.617 1342.76 L635.242 1342.76 Q630.311 1342.76 628.436 1340.93 Q626.561 1339.07 626.561 1334.21 L626.561 1320.14 L623.436 1320.14 L623.436 1316.83 L626.561 1316.83 L626.561 1309.47 L630.844 1309.47 Z" fill="#000000" fill-rule="nonzero" fill-opacity="1" /><path clip-path="url(#clip630)" d="M670.52 1306.78 Q667.418 1312.11 665.913 1317.32 Q664.408 1322.52 664.408 1327.87 Q664.408 1333.22 665.913 1338.47 Q667.441 1343.7 670.52 1349.01 L666.816 1349.01 Q663.344 1343.57 661.608 1338.31 Q659.895 1333.06 659.895 1327.87 Q659.895 1322.71 661.608 1317.48 Q663.32 1312.25 666.816 1306.78 L670.52 1306.78 Z" fill="#000000" fill-rule="nonzero" fill-opacity="1" /><path clip-path="url(#clip630)" d="M700.959 1328.73 L700.959 1330.81 L681.376 1330.81 Q681.654 1335.21 684.015 1337.52 Q686.399 1339.82 690.635 1339.82 Q693.089 1339.82 695.381 1339.21 Q697.695 1338.61 699.964 1337.41 L699.964 1341.44 Q697.672 1342.41 695.265 1342.92 Q692.857 1343.43 690.381 1343.43 Q684.177 1343.43 680.543 1339.82 Q676.932 1336.2 676.932 1330.05 Q676.932 1323.68 680.357 1319.95 Q683.806 1316.2 689.64 1316.2 Q694.871 1316.2 697.904 1319.58 Q700.959 1322.94 700.959 1328.73 M696.7 1327.48 Q696.654 1323.98 694.732 1321.9 Q692.834 1319.82 689.686 1319.82 Q686.121 1319.82 683.969 1321.83 Q681.839 1323.84 681.515 1327.5 L696.7 1327.48 Z" fill="#000000" fill-rule="nonzero" fill-opacity="1" /><path clip-path="url(#clip630)" d="M725.01 1320.76 L725.01 1306.74 L729.269 1306.74 L729.269 1342.76 L725.01 1342.76 L725.01 1338.87 Q723.667 1341.18 721.607 1342.32 Q719.57 1343.43 716.7 1343.43 Q712.001 1343.43 709.038 1339.68 Q706.098 1335.93 706.098 1329.82 Q706.098 1323.7 709.038 1319.95 Q712.001 1316.2 716.7 1316.2 Q719.57 1316.2 721.607 1317.34 Q723.667 1318.45 725.01 1320.76 M710.496 1329.82 Q710.496 1334.51 712.417 1337.2 Q714.362 1339.86 717.742 1339.86 Q721.121 1339.86 723.066 1337.2 Q725.01 1334.51 725.01 1329.82 Q725.01 1325.12 723.066 1322.45 Q721.121 1319.77 717.742 1319.77 Q714.362 1319.77 712.417 1322.45 Q710.496 1325.12 710.496 1329.82 Z" fill="#000000" fill-rule="nonzero" fill-opacity="1" /><path clip-path="url(#clip630)" d="M755.102 1329.49 Q755.102 1324.86 753.181 1322.32 Q751.283 1319.77 747.834 1319.77 Q744.408 1319.77 742.487 1322.32 Q740.589 1324.86 740.589 1329.49 Q740.589 1334.1 742.487 1336.64 Q744.408 1339.19 747.834 1339.19 Q751.283 1339.19 753.181 1336.64 Q755.102 1334.1 755.102 1329.49 M759.362 1339.54 Q759.362 1346.16 756.422 1349.38 Q753.482 1352.62 747.417 1352.62 Q745.172 1352.62 743.181 1352.27 Q741.19 1351.95 739.315 1351.25 L739.315 1347.11 Q741.19 1348.13 743.019 1348.61 Q744.848 1349.1 746.746 1349.1 Q750.936 1349.1 753.019 1346.9 Q755.102 1344.72 755.102 1340.3 L755.102 1338.2 Q753.783 1340.49 751.723 1341.62 Q749.663 1342.76 746.792 1342.76 Q742.024 1342.76 739.107 1339.12 Q736.19 1335.49 736.19 1329.49 Q736.19 1323.47 739.107 1319.84 Q742.024 1316.2 746.792 1316.2 Q749.663 1316.2 751.723 1317.34 Q753.783 1318.47 755.102 1320.76 L755.102 1316.83 L759.362 1316.83 L759.362 1339.54 Z" fill="#000000" fill-rule="nonzero" fill-opacity="1" /><path clip-path="url(#clip630)" d="M790.311 1328.73 L790.311 1330.81 L770.727 1330.81 Q771.005 1335.21 773.366 1337.52 Q775.75 1339.82 779.987 1339.82 Q782.44 1339.82 784.732 1339.21 Q787.047 1338.61 789.315 1337.41 L789.315 1341.44 Q787.024 1342.41 784.616 1342.92 Q782.209 1343.43 779.732 1343.43 Q773.528 1343.43 769.894 1339.82 Q766.283 1336.2 766.283 1330.05 Q766.283 1323.68 769.709 1319.95 Q773.158 1316.2 778.991 1316.2 Q784.223 1316.2 787.255 1319.58 Q790.311 1322.94 790.311 1328.73 M786.051 1327.48 Q786.005 1323.98 784.084 1321.9 Q782.186 1319.82 779.037 1319.82 Q775.473 1319.82 773.32 1321.83 Q771.19 1323.84 770.866 1327.5 L786.051 1327.48 Z" fill="#000000" fill-rule="nonzero" fill-opacity="1" /><path clip-path="url(#clip630)" d="M796.63 1306.78 L800.334 1306.78 Q803.806 1312.25 805.519 1317.48 Q807.255 1322.71 807.255 1327.87 Q807.255 1333.06 805.519 1338.31 Q803.806 1343.57 800.334 1349.01 L796.63 1349.01 Q799.709 1343.7 801.213 1338.47 Q802.741 1333.22 802.741 1327.87 Q802.741 1322.52 801.213 1317.32 Q799.709 1312.11 796.63 1306.78 Z" fill="#000000" fill-rule="nonzero" fill-opacity="1" /></svg>
