<?xml version="1.0" encoding="utf-8"?>
<svg xmlns="http://www.w3.org/2000/svg" xmlns:xlink="http://www.w3.org/1999/xlink" width="600" height="400" viewBox="0 0 2400 1600">
<defs>
  <clipPath id="clip410">
    <rect x="0" y="0" width="2400" height="1600"/>
  </clipPath>
</defs>
<path clip-path="url(#clip410)" d="M0 1600 L2400 1600 L2400 0 L0 0  Z" fill="#ffffff" fill-rule="evenodd" fill-opacity="1"/>
<defs>
  <clipPath id="clip411">
    <rect x="480" y="0" width="1681" height="1600"/>
  </clipPath>
</defs>
<path clip-path="url(#clip410)" d="M210.746 1423.18 L2352.76 1423.18 L2352.76 47.2441 L210.746 47.2441  Z" fill="#ffffff" fill-rule="evenodd" fill-opacity="1"/>
<defs>
  <clipPath id="clip412">
    <rect x="210" y="47" width="2143" height="1377"/>
  </clipPath>
</defs>
<polyline clip-path="url(#clip412)" style="stroke:#000000; stroke-linecap:round; stroke-linejoin:round; stroke-width:2; stroke-opacity:0.1; fill:none" points="308.11,1423.18 308.11,47.2441 "/>
<polyline clip-path="url(#clip412)" style="stroke:#000000; stroke-linecap:round; stroke-linejoin:round; stroke-width:2; stroke-opacity:0.1; fill:none" points="607.692,1423.18 607.692,47.2441 "/>
<polyline clip-path="url(#clip412)" style="stroke:#000000; stroke-linecap:round; stroke-linejoin:round; stroke-width:2; stroke-opacity:0.1; fill:none" points="907.274,1423.18 907.274,47.2441 "/>
<polyline clip-path="url(#clip412)" style="stroke:#000000; stroke-linecap:round; stroke-linejoin:round; stroke-width:2; stroke-opacity:0.1; fill:none" points="1206.86,1423.18 1206.86,47.2441 "/>
<polyline clip-path="url(#clip412)" style="stroke:#000000; stroke-linecap:round; stroke-linejoin:round; stroke-width:2; stroke-opacity:0.1; fill:none" points="1506.44,1423.18 1506.44,47.2441 "/>
<polyline clip-path="url(#clip412)" style="stroke:#000000; stroke-linecap:round; stroke-linejoin:round; stroke-width:2; stroke-opacity:0.1; fill:none" points="1806.02,1423.18 1806.02,47.2441 "/>
<polyline clip-path="url(#clip412)" style="stroke:#000000; stroke-linecap:round; stroke-linejoin:round; stroke-width:2; stroke-opacity:0.1; fill:none" points="2105.6,1423.18 2105.6,47.2441 "/>
<polyline clip-path="url(#clip412)" style="stroke:#000000; stroke-linecap:round; stroke-linejoin:round; stroke-width:2; stroke-opacity:0.1; fill:none" points="210.746,1377.62 2352.76,1377.62 "/>
<polyline clip-path="url(#clip412)" style="stroke:#000000; stroke-linecap:round; stroke-linejoin:round; stroke-width:2; stroke-opacity:0.1; fill:none" points="210.746,1078.03 2352.76,1078.03 "/>
<polyline clip-path="url(#clip412)" style="stroke:#000000; stroke-linecap:round; stroke-linejoin:round; stroke-width:2; stroke-opacity:0.1; fill:none" points="210.746,778.453 2352.76,778.453 "/>
<polyline clip-path="url(#clip412)" style="stroke:#000000; stroke-linecap:round; stroke-linejoin:round; stroke-width:2; stroke-opacity:0.1; fill:none" points="210.746,478.871 2352.76,478.871 "/>
<polyline clip-path="url(#clip412)" style="stroke:#000000; stroke-linecap:round; stroke-linejoin:round; stroke-width:2; stroke-opacity:0.1; fill:none" points="210.746,179.289 2352.76,179.289 "/>
<polyline clip-path="url(#clip410)" style="stroke:#000000; stroke-linecap:round; stroke-linejoin:round; stroke-width:4; stroke-opacity:1; fill:none" points="210.746,1423.18 2352.76,1423.18 "/>
<polyline clip-path="url(#clip410)" style="stroke:#000000; stroke-linecap:round; stroke-linejoin:round; stroke-width:4; stroke-opacity:1; fill:none" points="308.11,1423.18 308.11,1404.28 "/>
<polyline clip-path="url(#clip410)" style="stroke:#000000; stroke-linecap:round; stroke-linejoin:round; stroke-width:4; stroke-opacity:1; fill:none" points="607.692,1423.18 607.692,1404.28 "/>
<polyline clip-path="url(#clip410)" style="stroke:#000000; stroke-linecap:round; stroke-linejoin:round; stroke-width:4; stroke-opacity:1; fill:none" points="907.274,1423.18 907.274,1404.28 "/>
<polyline clip-path="url(#clip410)" style="stroke:#000000; stroke-linecap:round; stroke-linejoin:round; stroke-width:4; stroke-opacity:1; fill:none" points="1206.86,1423.18 1206.86,1404.28 "/>
<polyline clip-path="url(#clip410)" style="stroke:#000000; stroke-linecap:round; stroke-linejoin:round; stroke-width:4; stroke-opacity:1; fill:none" points="1506.44,1423.18 1506.44,1404.28 "/>
<polyline clip-path="url(#clip410)" style="stroke:#000000; stroke-linecap:round; stroke-linejoin:round; stroke-width:4; stroke-opacity:1; fill:none" points="1806.02,1423.18 1806.02,1404.28 "/>
<polyline clip-path="url(#clip410)" style="stroke:#000000; stroke-linecap:round; stroke-linejoin:round; stroke-width:4; stroke-opacity:1; fill:none" points="2105.6,1423.18 2105.6,1404.28 "/>
<path clip-path="url(#clip410)" d="M277.578 1468.75 L307.254 1468.75 L307.254 1472.69 L277.578 1472.69 L277.578 1468.75 Z" fill="#000000" fill-rule="nonzero" fill-opacity="1" /><path clip-path="url(#clip410)" d="M331.513 1466.95 Q334.869 1467.66 336.744 1469.93 Q338.642 1472.2 338.642 1475.53 Q338.642 1480.65 335.124 1483.45 Q331.605 1486.25 325.124 1486.25 Q322.948 1486.25 320.633 1485.81 Q318.341 1485.39 315.888 1484.54 L315.888 1480.02 Q317.832 1481.16 320.147 1481.74 Q322.462 1482.32 324.985 1482.32 Q329.383 1482.32 331.675 1480.58 Q333.99 1478.84 333.99 1475.53 Q333.99 1472.48 331.837 1470.77 Q329.707 1469.03 325.888 1469.03 L321.86 1469.03 L321.86 1465.19 L326.073 1465.19 Q329.522 1465.19 331.351 1463.82 Q333.179 1462.43 333.179 1459.84 Q333.179 1457.18 331.281 1455.77 Q329.406 1454.33 325.888 1454.33 Q323.966 1454.33 321.767 1454.75 Q319.568 1455.16 316.929 1456.04 L316.929 1451.88 Q319.591 1451.14 321.906 1450.77 Q324.244 1450.39 326.304 1450.39 Q331.628 1450.39 334.73 1452.83 Q337.832 1455.23 337.832 1459.35 Q337.832 1462.22 336.189 1464.21 Q334.545 1466.18 331.513 1466.95 Z" fill="#000000" fill-rule="nonzero" fill-opacity="1" /><path clip-path="url(#clip410)" d="M577.634 1468.75 L607.31 1468.75 L607.31 1472.69 L577.634 1472.69 L577.634 1468.75 Z" fill="#000000" fill-rule="nonzero" fill-opacity="1" /><path clip-path="url(#clip410)" d="M621.43 1481.64 L637.75 1481.64 L637.75 1485.58 L615.805 1485.58 L615.805 1481.64 Q618.467 1478.89 623.051 1474.26 Q627.657 1469.61 628.838 1468.27 Q631.083 1465.74 631.963 1464.01 Q632.865 1462.25 632.865 1460.56 Q632.865 1457.8 630.921 1456.07 Q629 1454.33 625.898 1454.33 Q623.699 1454.33 621.245 1455.09 Q618.814 1455.86 616.037 1457.41 L616.037 1452.69 Q618.861 1451.55 621.314 1450.97 Q623.768 1450.39 625.805 1450.39 Q631.176 1450.39 634.37 1453.08 Q637.564 1455.77 637.564 1460.26 Q637.564 1462.39 636.754 1464.31 Q635.967 1466.2 633.861 1468.8 Q633.282 1469.47 630.18 1472.69 Q627.078 1475.88 621.43 1481.64 Z" fill="#000000" fill-rule="nonzero" fill-opacity="1" /><path clip-path="url(#clip410)" d="M877.031 1468.75 L906.707 1468.75 L906.707 1472.69 L877.031 1472.69 L877.031 1468.75 Z" fill="#000000" fill-rule="nonzero" fill-opacity="1" /><path clip-path="url(#clip410)" d="M917.609 1481.64 L925.248 1481.64 L925.248 1455.28 L916.938 1456.95 L916.938 1452.69 L925.202 1451.02 L929.878 1451.02 L929.878 1481.64 L937.517 1481.64 L937.517 1485.58 L917.609 1485.58 L917.609 1481.64 Z" fill="#000000" fill-rule="nonzero" fill-opacity="1" /><path clip-path="url(#clip410)" d="M1206.86 1454.1 Q1203.24 1454.1 1201.42 1457.66 Q1199.61 1461.2 1199.61 1468.33 Q1199.61 1475.44 1201.42 1479.01 Q1203.24 1482.55 1206.86 1482.55 Q1210.49 1482.55 1212.3 1479.01 Q1214.12 1475.44 1214.12 1468.33 Q1214.12 1461.2 1212.3 1457.66 Q1210.49 1454.1 1206.86 1454.1 M1206.86 1450.39 Q1212.67 1450.39 1215.72 1455 Q1218.8 1459.58 1218.8 1468.33 Q1218.8 1477.06 1215.72 1481.67 Q1212.67 1486.25 1206.86 1486.25 Q1201.05 1486.25 1197.97 1481.67 Q1194.91 1477.06 1194.91 1468.33 Q1194.91 1459.58 1197.97 1455 Q1201.05 1450.39 1206.86 1450.39 Z" fill="#000000" fill-rule="nonzero" fill-opacity="1" /><path clip-path="url(#clip410)" d="M1496.82 1481.64 L1504.46 1481.64 L1504.46 1455.28 L1496.15 1456.95 L1496.15 1452.69 L1504.41 1451.02 L1509.09 1451.02 L1509.09 1481.64 L1516.73 1481.64 L1516.73 1485.58 L1496.82 1485.58 L1496.82 1481.64 Z" fill="#000000" fill-rule="nonzero" fill-opacity="1" /><path clip-path="url(#clip410)" d="M1800.67 1481.64 L1816.99 1481.64 L1816.99 1485.58 L1795.05 1485.58 L1795.05 1481.64 Q1797.71 1478.89 1802.29 1474.26 Q1806.9 1469.61 1808.08 1468.27 Q1810.32 1465.74 1811.2 1464.01 Q1812.11 1462.25 1812.11 1460.56 Q1812.11 1457.8 1810.16 1456.07 Q1808.24 1454.33 1805.14 1454.33 Q1802.94 1454.33 1800.49 1455.09 Q1798.06 1455.86 1795.28 1457.41 L1795.28 1452.69 Q1798.1 1451.55 1800.56 1450.97 Q1803.01 1450.39 1805.05 1450.39 Q1810.42 1450.39 1813.61 1453.08 Q1816.81 1455.77 1816.81 1460.26 Q1816.81 1462.39 1816 1464.31 Q1815.21 1466.2 1813.1 1468.8 Q1812.52 1469.47 1809.42 1472.69 Q1806.32 1475.88 1800.67 1481.64 Z" fill="#000000" fill-rule="nonzero" fill-opacity="1" /><path clip-path="url(#clip410)" d="M2109.85 1466.95 Q2113.21 1467.66 2115.08 1469.93 Q2116.98 1472.2 2116.98 1475.53 Q2116.98 1480.65 2113.46 1483.45 Q2109.94 1486.25 2103.46 1486.25 Q2101.28 1486.25 2098.97 1485.81 Q2096.68 1485.39 2094.22 1484.54 L2094.22 1480.02 Q2096.17 1481.16 2098.48 1481.74 Q2100.8 1482.32 2103.32 1482.32 Q2107.72 1482.32 2110.01 1480.58 Q2112.33 1478.84 2112.33 1475.53 Q2112.33 1472.48 2110.17 1470.77 Q2108.04 1469.03 2104.22 1469.03 L2100.2 1469.03 L2100.2 1465.19 L2104.41 1465.19 Q2107.86 1465.19 2109.69 1463.82 Q2111.52 1462.43 2111.52 1459.84 Q2111.52 1457.18 2109.62 1455.77 Q2107.74 1454.33 2104.22 1454.33 Q2102.3 1454.33 2100.1 1454.75 Q2097.9 1455.16 2095.27 1456.04 L2095.27 1451.88 Q2097.93 1451.14 2100.24 1450.77 Q2102.58 1450.39 2104.64 1450.39 Q2109.96 1450.39 2113.07 1452.83 Q2116.17 1455.23 2116.17 1459.35 Q2116.17 1462.22 2114.52 1464.21 Q2112.88 1466.18 2109.85 1466.95 Z" fill="#000000" fill-rule="nonzero" fill-opacity="1" /><path clip-path="url(#clip410)" d="M1298.37 1532.4 L1285.47 1549.74 L1299.03 1568.04 L1292.13 1568.04 L1281.75 1554.04 L1271.37 1568.04 L1264.47 1568.04 L1278.31 1549.39 L1265.65 1532.4 L1272.55 1532.4 L1282.01 1545.1 L1291.46 1532.4 L1298.37 1532.4 Z" fill="#000000" fill-rule="nonzero" fill-opacity="1" /><polyline clip-path="url(#clip410)" style="stroke:#000000; stroke-linecap:round; stroke-linejoin:round; stroke-width:4; stroke-opacity:1; fill:none" points="210.746,1423.18 210.746,47.2441 "/>
<polyline clip-path="url(#clip410)" style="stroke:#000000; stroke-linecap:round; stroke-linejoin:round; stroke-width:4; stroke-opacity:1; fill:none" points="210.746,1377.62 229.644,1377.62 "/>
<polyline clip-path="url(#clip410)" style="stroke:#000000; stroke-linecap:round; stroke-linejoin:round; stroke-width:4; stroke-opacity:1; fill:none" points="210.746,1078.03 229.644,1078.03 "/>
<polyline clip-path="url(#clip410)" style="stroke:#000000; stroke-linecap:round; stroke-linejoin:round; stroke-width:4; stroke-opacity:1; fill:none" points="210.746,778.453 229.644,778.453 "/>
<polyline clip-path="url(#clip410)" style="stroke:#000000; stroke-linecap:round; stroke-linejoin:round; stroke-width:4; stroke-opacity:1; fill:none" points="210.746,478.871 229.644,478.871 "/>
<polyline clip-path="url(#clip410)" style="stroke:#000000; stroke-linecap:round; stroke-linejoin:round; stroke-width:4; stroke-opacity:1; fill:none" points="210.746,179.289 229.644,179.289 "/>
<path clip-path="url(#clip410)" d="M114.631 1378.07 L144.306 1378.07 L144.306 1382 L114.631 1382 L114.631 1378.07 Z" fill="#000000" fill-rule="nonzero" fill-opacity="1" /><path clip-path="url(#clip410)" d="M158.427 1390.96 L174.746 1390.96 L174.746 1394.9 L152.802 1394.9 L152.802 1390.96 Q155.464 1388.21 160.047 1383.58 Q164.653 1378.92 165.834 1377.58 Q168.079 1375.06 168.959 1373.32 Q169.862 1371.56 169.862 1369.87 Q169.862 1367.12 167.917 1365.38 Q165.996 1363.65 162.894 1363.65 Q160.695 1363.65 158.241 1364.41 Q155.811 1365.17 153.033 1366.73 L153.033 1362 Q155.857 1360.87 158.311 1360.29 Q160.765 1359.71 162.802 1359.71 Q168.172 1359.71 171.366 1362.4 Q174.561 1365.08 174.561 1369.57 Q174.561 1371.7 173.751 1373.62 Q172.964 1375.52 170.857 1378.11 Q170.278 1378.79 167.177 1382 Q164.075 1385.2 158.427 1390.96 Z" fill="#000000" fill-rule="nonzero" fill-opacity="1" /><path clip-path="url(#clip410)" d="M114.26 1078.49 L143.936 1078.49 L143.936 1082.42 L114.26 1082.42 L114.26 1078.49 Z" fill="#000000" fill-rule="nonzero" fill-opacity="1" /><path clip-path="url(#clip410)" d="M154.839 1091.38 L162.477 1091.38 L162.477 1065.01 L154.167 1066.68 L154.167 1062.42 L162.431 1060.75 L167.107 1060.75 L167.107 1091.38 L174.746 1091.38 L174.746 1095.31 L154.839 1095.31 L154.839 1091.38 Z" fill="#000000" fill-rule="nonzero" fill-opacity="1" /><path clip-path="url(#clip410)" d="M162.802 764.252 Q159.19 764.252 157.362 767.816 Q155.556 771.358 155.556 778.488 Q155.556 785.594 157.362 789.159 Q159.19 792.7 162.802 792.7 Q166.436 792.7 168.241 789.159 Q170.07 785.594 170.07 778.488 Q170.07 771.358 168.241 767.816 Q166.436 764.252 162.802 764.252 M162.802 760.548 Q168.612 760.548 171.667 765.154 Q174.746 769.738 174.746 778.488 Q174.746 787.214 171.667 791.821 Q168.612 796.404 162.802 796.404 Q156.991 796.404 153.913 791.821 Q150.857 787.214 150.857 778.488 Q150.857 769.738 153.913 765.154 Q156.991 760.548 162.802 760.548 Z" fill="#000000" fill-rule="nonzero" fill-opacity="1" /><path clip-path="url(#clip410)" d="M154.839 492.216 L162.477 492.216 L162.477 465.85 L154.167 467.517 L154.167 463.258 L162.431 461.591 L167.107 461.591 L167.107 492.216 L174.746 492.216 L174.746 496.151 L154.839 496.151 L154.839 492.216 Z" fill="#000000" fill-rule="nonzero" fill-opacity="1" /><path clip-path="url(#clip410)" d="M158.427 192.634 L174.746 192.634 L174.746 196.569 L152.802 196.569 L152.802 192.634 Q155.464 189.879 160.047 185.25 Q164.653 180.597 165.834 179.255 Q168.079 176.731 168.959 174.995 Q169.862 173.236 169.862 171.546 Q169.862 168.792 167.917 167.056 Q165.996 165.319 162.894 165.319 Q160.695 165.319 158.241 166.083 Q155.811 166.847 153.033 168.398 L153.033 163.676 Q155.857 162.542 158.311 161.963 Q160.765 161.384 162.802 161.384 Q168.172 161.384 171.366 164.069 Q174.561 166.755 174.561 171.245 Q174.561 173.375 173.751 175.296 Q172.964 177.194 170.857 179.787 Q170.278 180.458 167.177 183.676 Q164.075 186.87 158.427 192.634 Z" fill="#000000" fill-rule="nonzero" fill-opacity="1" /><path clip-path="url(#clip410)" d="M67.3143 733.525 Q73.68 736.008 75.6216 738.363 Q77.5631 740.718 77.5631 744.665 L77.5631 749.344 L72.6615 749.344 L72.6615 745.906 Q72.6615 743.487 71.5157 742.151 Q70.3699 740.814 66.1048 739.191 L63.4312 738.14 L28.3562 752.559 L28.3562 746.352 L56.238 735.212 L28.3562 724.072 L28.3562 717.865 L67.3143 733.525 Z" fill="#000000" fill-rule="nonzero" fill-opacity="1" /><polyline clip-path="url(#clip412)" style="stroke:#009af9; stroke-linecap:round; stroke-linejoin:round; stroke-width:4; stroke-opacity:1; fill:none" points="308.11,1297.34 457.901,1210.86 "/>
<polyline clip-path="url(#clip412)" style="stroke:#009af9; stroke-linecap:round; stroke-linejoin:round; stroke-width:4; stroke-opacity:1; fill:none" points="457.901,1037.9 457.901,1210.86 "/>
<polyline clip-path="url(#clip412)" style="stroke:#009af9; stroke-linecap:round; stroke-linejoin:round; stroke-width:4; stroke-opacity:1; fill:none" points="457.901,1037.9 607.692,951.417 "/>
<polyline clip-path="url(#clip412)" style="stroke:#009af9; stroke-linecap:round; stroke-linejoin:round; stroke-width:4; stroke-opacity:1; fill:none" points="607.692,778.453 607.692,951.417 "/>
<polyline clip-path="url(#clip412)" style="stroke:#009af9; stroke-linecap:round; stroke-linejoin:round; stroke-width:4; stroke-opacity:1; fill:none" points="607.692,778.453 757.483,691.971 "/>
<polyline clip-path="url(#clip412)" style="stroke:#009af9; stroke-linecap:round; stroke-linejoin:round; stroke-width:4; stroke-opacity:1; fill:none" points="757.483,519.007 757.483,691.971 "/>
<polyline clip-path="url(#clip412)" style="stroke:#009af9; stroke-linecap:round; stroke-linejoin:round; stroke-width:4; stroke-opacity:1; fill:none" points="757.483,519.007 907.274,432.526 "/>
<polyline clip-path="url(#clip412)" style="stroke:#009af9; stroke-linecap:round; stroke-linejoin:round; stroke-width:4; stroke-opacity:1; fill:none" points="907.274,259.562 907.274,432.526 "/>
<polyline clip-path="url(#clip412)" style="stroke:#009af9; stroke-linecap:round; stroke-linejoin:round; stroke-width:4; stroke-opacity:1; fill:none" points="907.274,259.562 1057.06,173.08 "/>
<polyline clip-path="url(#clip412)" style="stroke:#009af9; stroke-linecap:round; stroke-linejoin:round; stroke-width:4; stroke-opacity:1; fill:none" points="607.692,1297.34 457.901,1210.86 "/>
<polyline clip-path="url(#clip412)" style="stroke:#009af9; stroke-linecap:round; stroke-linejoin:round; stroke-width:4; stroke-opacity:1; fill:none" points="607.692,1297.34 757.483,1210.86 "/>
<polyline clip-path="url(#clip412)" style="stroke:#009af9; stroke-linecap:round; stroke-linejoin:round; stroke-width:4; stroke-opacity:1; fill:none" points="757.483,1037.9 757.483,1210.86 "/>
<polyline clip-path="url(#clip412)" style="stroke:#009af9; stroke-linecap:round; stroke-linejoin:round; stroke-width:4; stroke-opacity:1; fill:none" points="757.483,1037.9 607.692,951.417 "/>
<polyline clip-path="url(#clip412)" style="stroke:#009af9; stroke-linecap:round; stroke-linejoin:round; stroke-width:4; stroke-opacity:1; fill:none" points="757.483,1037.9 907.274,951.417 "/>
<polyline clip-path="url(#clip412)" style="stroke:#009af9; stroke-linecap:round; stroke-linejoin:round; stroke-width:4; stroke-opacity:1; fill:none" points="907.274,778.453 907.274,951.417 "/>
<polyline clip-path="url(#clip412)" style="stroke:#009af9; stroke-linecap:round; stroke-linejoin:round; stroke-width:4; stroke-opacity:1; fill:none" points="907.274,778.453 757.483,691.971 "/>
<polyline clip-path="url(#clip412)" style="stroke:#009af9; stroke-linecap:round; stroke-linejoin:round; stroke-width:4; stroke-opacity:1; fill:none" points="907.274,778.453 1057.06,691.971 "/>
<polyline clip-path="url(#clip412)" style="stroke:#009af9; stroke-linecap:round; stroke-linejoin:round; stroke-width:4; stroke-opacity:1; fill:none" points="1057.06,519.007 1057.06,691.971 "/>
<polyline clip-path="url(#clip412)" style="stroke:#009af9; stroke-linecap:round; stroke-linejoin:round; stroke-width:4; stroke-opacity:1; fill:none" points="1057.06,519.007 907.274,432.526 "/>
<polyline clip-path="url(#clip412)" style="stroke:#009af9; stroke-linecap:round; stroke-linejoin:round; stroke-width:4; stroke-opacity:1; fill:none" points="1057.06,519.007 1206.86,432.526 "/>
<polyline clip-path="url(#clip412)" style="stroke:#009af9; stroke-linecap:round; stroke-linejoin:round; stroke-width:4; stroke-opacity:1; fill:none" points="1206.86,259.562 1206.86,432.526 "/>
<polyline clip-path="url(#clip412)" style="stroke:#009af9; stroke-linecap:round; stroke-linejoin:round; stroke-width:4; stroke-opacity:1; fill:none" points="1206.86,259.562 1057.06,173.08 "/>
<polyline clip-path="url(#clip412)" style="stroke:#009af9; stroke-linecap:round; stroke-linejoin:round; stroke-width:4; stroke-opacity:1; fill:none" points="1206.86,259.562 1356.65,173.08 "/>
<polyline clip-path="url(#clip412)" style="stroke:#009af9; stroke-linecap:round; stroke-linejoin:round; stroke-width:4; stroke-opacity:1; fill:none" points="907.274,1297.34 757.483,1210.86 "/>
<polyline clip-path="url(#clip412)" style="stroke:#009af9; stroke-linecap:round; stroke-linejoin:round; stroke-width:4; stroke-opacity:1; fill:none" points="907.274,1297.34 1057.06,1210.86 "/>
<polyline clip-path="url(#clip412)" style="stroke:#009af9; stroke-linecap:round; stroke-linejoin:round; stroke-width:4; stroke-opacity:1; fill:none" points="1057.06,1037.9 1057.06,1210.86 "/>
<polyline clip-path="url(#clip412)" style="stroke:#009af9; stroke-linecap:round; stroke-linejoin:round; stroke-width:4; stroke-opacity:1; fill:none" points="1057.06,1037.9 907.274,951.417 "/>
<polyline clip-path="url(#clip412)" style="stroke:#009af9; stroke-linecap:round; stroke-linejoin:round; stroke-width:4; stroke-opacity:1; fill:none" points="1057.06,1037.9 1206.86,951.417 "/>
<polyline clip-path="url(#clip412)" style="stroke:#009af9; stroke-linecap:round; stroke-linejoin:round; stroke-width:4; stroke-opacity:1; fill:none" points="1206.86,778.453 1206.86,951.417 "/>
<polyline clip-path="url(#clip412)" style="stroke:#009af9; stroke-linecap:round; stroke-linejoin:round; stroke-width:4; stroke-opacity:1; fill:none" points="1206.86,778.453 1057.06,691.971 "/>
<polyline clip-path="url(#clip412)" style="stroke:#009af9; stroke-linecap:round; stroke-linejoin:round; stroke-width:4; stroke-opacity:1; fill:none" points="1206.86,778.453 1356.65,691.971 "/>
<polyline clip-path="url(#clip412)" style="stroke:#009af9; stroke-linecap:round; stroke-linejoin:round; stroke-width:4; stroke-opacity:1; fill:none" points="1356.65,519.007 1356.65,691.971 "/>
<polyline clip-path="url(#clip412)" style="stroke:#009af9; stroke-linecap:round; stroke-linejoin:round; stroke-width:4; stroke-opacity:1; fill:none" points="1356.65,519.007 1206.86,432.526 "/>
<polyline clip-path="url(#clip412)" style="stroke:#009af9; stroke-linecap:round; stroke-linejoin:round; stroke-width:4; stroke-opacity:1; fill:none" points="1356.65,519.007 1506.44,432.526 "/>
<polyline clip-path="url(#clip412)" style="stroke:#009af9; stroke-linecap:round; stroke-linejoin:round; stroke-width:4; stroke-opacity:1; fill:none" points="1506.44,259.562 1506.44,432.526 "/>
<polyline clip-path="url(#clip412)" style="stroke:#009af9; stroke-linecap:round; stroke-linejoin:round; stroke-width:4; stroke-opacity:1; fill:none" points="1506.44,259.562 1356.65,173.08 "/>
<polyline clip-path="url(#clip412)" style="stroke:#009af9; stroke-linecap:round; stroke-linejoin:round; stroke-width:4; stroke-opacity:1; fill:none" points="1506.44,259.562 1656.23,173.08 "/>
<polyline clip-path="url(#clip412)" style="stroke:#009af9; stroke-linecap:round; stroke-linejoin:round; stroke-width:4; stroke-opacity:1; fill:none" points="1206.86,1297.34 1057.06,1210.86 "/>
<polyline clip-path="url(#clip412)" style="stroke:#009af9; stroke-linecap:round; stroke-linejoin:round; stroke-width:4; stroke-opacity:1; fill:none" points="1206.86,1297.34 1356.65,1210.86 "/>
<polyline clip-path="url(#clip412)" style="stroke:#009af9; stroke-linecap:round; stroke-linejoin:round; stroke-width:4; stroke-opacity:1; fill:none" points="1356.65,1037.9 1356.65,1210.86 "/>
<polyline clip-path="url(#clip412)" style="stroke:#009af9; stroke-linecap:round; stroke-linejoin:round; stroke-width:4; stroke-opacity:1; fill:none" points="1356.65,1037.9 1206.86,951.417 "/>
<polyline clip-path="url(#clip412)" style="stroke:#009af9; stroke-linecap:round; stroke-linejoin:round; stroke-width:4; stroke-opacity:1; fill:none" points="1356.65,1037.9 1506.44,951.417 "/>
<polyline clip-path="url(#clip412)" style="stroke:#009af9; stroke-linecap:round; stroke-linejoin:round; stroke-width:4; stroke-opacity:1; fill:none" points="1506.44,778.453 1506.44,951.417 "/>
<polyline clip-path="url(#clip412)" style="stroke:#009af9; stroke-linecap:round; stroke-linejoin:round; stroke-width:4; stroke-opacity:1; fill:none" points="1506.44,778.453 1356.65,691.971 "/>
<polyline clip-path="url(#clip412)" style="stroke:#009af9; stroke-linecap:round; stroke-linejoin:round; stroke-width:4; stroke-opacity:1; fill:none" points="1506.44,778.453 1656.23,691.971 "/>
<polyline clip-path="url(#clip412)" style="stroke:#009af9; stroke-linecap:round; stroke-linejoin:round; stroke-width:4; stroke-opacity:1; fill:none" points="1656.23,519.007 1656.23,691.971 "/>
<polyline clip-path="url(#clip412)" style="stroke:#009af9; stroke-linecap:round; stroke-linejoin:round; stroke-width:4; stroke-opacity:1; fill:none" points="1656.23,519.007 1506.44,432.526 "/>
<polyline clip-path="url(#clip412)" style="stroke:#009af9; stroke-linecap:round; stroke-linejoin:round; stroke-width:4; stroke-opacity:1; fill:none" points="1656.23,519.007 1806.02,432.526 "/>
<polyline clip-path="url(#clip412)" style="stroke:#009af9; stroke-linecap:round; stroke-linejoin:round; stroke-width:4; stroke-opacity:1; fill:none" points="1806.02,259.562 1806.02,432.526 "/>
<polyline clip-path="url(#clip412)" style="stroke:#009af9; stroke-linecap:round; stroke-linejoin:round; stroke-width:4; stroke-opacity:1; fill:none" points="1806.02,259.562 1656.23,173.08 "/>
<polyline clip-path="url(#clip412)" style="stroke:#009af9; stroke-linecap:round; stroke-linejoin:round; stroke-width:4; stroke-opacity:1; fill:none" points="1806.02,259.562 1955.81,173.08 "/>
<polyline clip-path="url(#clip412)" style="stroke:#009af9; stroke-linecap:round; stroke-linejoin:round; stroke-width:4; stroke-opacity:1; fill:none" points="1506.44,1297.34 1356.65,1210.86 "/>
<polyline clip-path="url(#clip412)" style="stroke:#009af9; stroke-linecap:round; stroke-linejoin:round; stroke-width:4; stroke-opacity:1; fill:none" points="1506.44,1297.34 1656.23,1210.86 "/>
<polyline clip-path="url(#clip412)" style="stroke:#009af9; stroke-linecap:round; stroke-linejoin:round; stroke-width:4; stroke-opacity:1; fill:none" points="1656.23,1037.9 1656.23,1210.86 "/>
<polyline clip-path="url(#clip412)" style="stroke:#009af9; stroke-linecap:round; stroke-linejoin:round; stroke-width:4; stroke-opacity:1; fill:none" points="1656.23,1037.9 1506.44,951.417 "/>
<polyline clip-path="url(#clip412)" style="stroke:#009af9; stroke-linecap:round; stroke-linejoin:round; stroke-width:4; stroke-opacity:1; fill:none" points="1656.23,1037.9 1806.02,951.417 "/>
<polyline clip-path="url(#clip412)" style="stroke:#009af9; stroke-linecap:round; stroke-linejoin:round; stroke-width:4; stroke-opacity:1; fill:none" points="1806.02,778.453 1806.02,951.417 "/>
<polyline clip-path="url(#clip412)" style="stroke:#009af9; stroke-linecap:round; stroke-linejoin:round; stroke-width:4; stroke-opacity:1; fill:none" points="1806.02,778.453 1656.23,691.971 "/>
<polyline clip-path="url(#clip412)" style="stroke:#009af9; stroke-linecap:round; stroke-linejoin:round; stroke-width:4; stroke-opacity:1; fill:none" points="1806.02,778.453 1955.81,691.971 "/>
<polyline clip-path="url(#clip412)" style="stroke:#009af9; stroke-linecap:round; stroke-linejoin:round; stroke-width:4; stroke-opacity:1; fill:none" points="1955.81,519.007 1955.81,691.971 "/>
<polyline clip-path="url(#clip412)" style="stroke:#009af9; stroke-linecap:round; stroke-linejoin:round; stroke-width:4; stroke-opacity:1; fill:none" points="1955.81,519.007 1806.02,432.526 "/>
<polyline clip-path="url(#clip412)" style="stroke:#009af9; stroke-linecap:round; stroke-linejoin:round; stroke-width:4; stroke-opacity:1; fill:none" points="1955.81,519.007 2105.6,432.526 "/>
<polyline clip-path="url(#clip412)" style="stroke:#009af9; stroke-linecap:round; stroke-linejoin:round; stroke-width:4; stroke-opacity:1; fill:none" points="2105.6,259.562 2105.6,432.526 "/>
<polyline clip-path="url(#clip412)" style="stroke:#009af9; stroke-linecap:round; stroke-linejoin:round; stroke-width:4; stroke-opacity:1; fill:none" points="2105.6,259.562 1955.81,173.08 "/>
<polyline clip-path="url(#clip412)" style="stroke:#009af9; stroke-linecap:round; stroke-linejoin:round; stroke-width:4; stroke-opacity:1; fill:none" points="2105.6,259.562 2255.39,173.08 "/>
<circle clip-path="url(#clip412)" cx="308.11" cy="1297.34" r="14.4" fill="#e26f46" fill-rule="evenodd" fill-opacity="1" stroke="#000000" stroke-opacity="1" stroke-width="3.2"/>
<circle clip-path="url(#clip412)" cx="457.901" cy="1210.86" r="14.4" fill="#e26f46" fill-rule="evenodd" fill-opacity="1" stroke="#000000" stroke-opacity="1" stroke-width="3.2"/>
<circle clip-path="url(#clip412)" cx="457.901" cy="1037.9" r="14.4" fill="#e26f46" fill-rule="evenodd" fill-opacity="1" stroke="#000000" stroke-opacity="1" stroke-width="3.2"/>
<circle clip-path="url(#clip412)" cx="607.692" cy="951.417" r="14.4" fill="#e26f46" fill-rule="evenodd" fill-opacity="1" stroke="#000000" stroke-opacity="1" stroke-width="3.2"/>
<circle clip-path="url(#clip412)" cx="607.692" cy="778.453" r="14.4" fill="#e26f46" fill-rule="evenodd" fill-opacity="1" stroke="#000000" stroke-opacity="1" stroke-width="3.2"/>
<circle clip-path="url(#clip412)" cx="757.483" cy="691.971" r="14.4" fill="#e26f46" fill-rule="evenodd" fill-opacity="1" stroke="#000000" stroke-opacity="1" stroke-width="3.2"/>
<circle clip-path="url(#clip412)" cx="757.483" cy="519.007" r="14.4" fill="#e26f46" fill-rule="evenodd" fill-opacity="1" stroke="#000000" stroke-opacity="1" stroke-width="3.2"/>
<circle clip-path="url(#clip412)" cx="907.274" cy="432.526" r="14.4" fill="#e26f46" fill-rule="evenodd" fill-opacity="1" stroke="#000000" stroke-opacity="1" stroke-width="3.2"/>
<circle clip-path="url(#clip412)" cx="907.274" cy="259.562" r="14.4" fill="#e26f46" fill-rule="evenodd" fill-opacity="1" stroke="#000000" stroke-opacity="1" stroke-width="3.2"/>
<circle clip-path="url(#clip412)" cx="1057.06" cy="173.08" r="14.4" fill="#e26f46" fill-rule="evenodd" fill-opacity="1" stroke="#000000" stroke-opacity="1" stroke-width="3.2"/>
<circle clip-path="url(#clip412)" cx="607.692" cy="1297.34" r="14.4" fill="#e26f46" fill-rule="evenodd" fill-opacity="1" stroke="#000000" stroke-opacity="1" stroke-width="3.2"/>
<circle clip-path="url(#clip412)" cx="757.483" cy="1210.86" r="14.4" fill="#e26f46" fill-rule="evenodd" fill-opacity="1" stroke="#000000" stroke-opacity="1" stroke-width="3.2"/>
<circle clip-path="url(#clip412)" cx="757.483" cy="1037.9" r="14.4" fill="#e26f46" fill-rule="evenodd" fill-opacity="1" stroke="#000000" stroke-opacity="1" stroke-width="3.2"/>
<circle clip-path="url(#clip412)" cx="907.274" cy="951.417" r="14.4" fill="#e26f46" fill-rule="evenodd" fill-opacity="1" stroke="#000000" stroke-opacity="1" stroke-width="3.2"/>
<circle clip-path="url(#clip412)" cx="907.274" cy="778.453" r="14.4" fill="#e26f46" fill-rule="evenodd" fill-opacity="1" stroke="#000000" stroke-opacity="1" stroke-width="3.2"/>
<circle clip-path="url(#clip412)" cx="1057.06" cy="691.971" r="14.4" fill="#e26f46" fill-rule="evenodd" fill-opacity="1" stroke="#000000" stroke-opacity="1" stroke-width="3.2"/>
<circle clip-path="url(#clip412)" cx="1057.06" cy="519.007" r="14.4" fill="#e26f46" fill-rule="evenodd" fill-opacity="1" stroke="#000000" stroke-opacity="1" stroke-width="3.2"/>
<circle clip-path="url(#clip412)" cx="1206.86" cy="432.526" r="14.4" fill="#e26f46" fill-rule="evenodd" fill-opacity="1" stroke="#000000" stroke-opacity="1" stroke-width="3.2"/>
<circle clip-path="url(#clip412)" cx="1206.86" cy="259.562" r="14.4" fill="#e26f46" fill-rule="evenodd" fill-opacity="1" stroke="#000000" stroke-opacity="1" stroke-width="3.2"/>
<circle clip-path="url(#clip412)" cx="1356.65" cy="173.08" r="14.4" fill="#e26f46" fill-rule="evenodd" fill-opacity="1" stroke="#000000" stroke-opacity="1" stroke-width="3.2"/>
<circle clip-path="url(#clip412)" cx="907.274" cy="1297.34" r="14.4" fill="#e26f46" fill-rule="evenodd" fill-opacity="1" stroke="#000000" stroke-opacity="1" stroke-width="3.2"/>
<circle clip-path="url(#clip412)" cx="1057.06" cy="1210.86" r="14.4" fill="#e26f46" fill-rule="evenodd" fill-opacity="1" stroke="#000000" stroke-opacity="1" stroke-width="3.2"/>
<circle clip-path="url(#clip412)" cx="1057.06" cy="1037.9" r="14.4" fill="#e26f46" fill-rule="evenodd" fill-opacity="1" stroke="#000000" stroke-opacity="1" stroke-width="3.2"/>
<circle clip-path="url(#clip412)" cx="1206.86" cy="951.417" r="14.4" fill="#e26f46" fill-rule="evenodd" fill-opacity="1" stroke="#000000" stroke-opacity="1" stroke-width="3.2"/>
<circle clip-path="url(#clip412)" cx="1206.86" cy="778.453" r="14.4" fill="#e26f46" fill-rule="evenodd" fill-opacity="1" stroke="#000000" stroke-opacity="1" stroke-width="3.2"/>
<circle clip-path="url(#clip412)" cx="1356.65" cy="691.971" r="14.4" fill="#e26f46" fill-rule="evenodd" fill-opacity="1" stroke="#000000" stroke-opacity="1" stroke-width="3.2"/>
<circle clip-path="url(#clip412)" cx="1356.65" cy="519.007" r="14.4" fill="#e26f46" fill-rule="evenodd" fill-opacity="1" stroke="#000000" stroke-opacity="1" stroke-width="3.2"/>
<circle clip-path="url(#clip412)" cx="1506.44" cy="432.526" r="14.4" fill="#e26f46" fill-rule="evenodd" fill-opacity="1" stroke="#000000" stroke-opacity="1" stroke-width="3.2"/>
<circle clip-path="url(#clip412)" cx="1506.44" cy="259.562" r="14.4" fill="#e26f46" fill-rule="evenodd" fill-opacity="1" stroke="#000000" stroke-opacity="1" stroke-width="3.2"/>
<circle clip-path="url(#clip412)" cx="1656.23" cy="173.08" r="14.4" fill="#e26f46" fill-rule="evenodd" fill-opacity="1" stroke="#000000" stroke-opacity="1" stroke-width="3.2"/>
<circle clip-path="url(#clip412)" cx="1206.86" cy="1297.34" r="14.4" fill="#e26f46" fill-rule="evenodd" fill-opacity="1" stroke="#000000" stroke-opacity="1" stroke-width="3.2"/>
<circle clip-path="url(#clip412)" cx="1356.65" cy="1210.86" r="14.4" fill="#e26f46" fill-rule="evenodd" fill-opacity="1" stroke="#000000" stroke-opacity="1" stroke-width="3.2"/>
<circle clip-path="url(#clip412)" cx="1356.65" cy="1037.9" r="14.4" fill="#e26f46" fill-rule="evenodd" fill-opacity="1" stroke="#000000" stroke-opacity="1" stroke-width="3.2"/>
<circle clip-path="url(#clip412)" cx="1506.44" cy="951.417" r="14.4" fill="#e26f46" fill-rule="evenodd" fill-opacity="1" stroke="#000000" stroke-opacity="1" stroke-width="3.2"/>
<circle clip-path="url(#clip412)" cx="1506.44" cy="778.453" r="14.4" fill="#e26f46" fill-rule="evenodd" fill-opacity="1" stroke="#000000" stroke-opacity="1" stroke-width="3.2"/>
<circle clip-path="url(#clip412)" cx="1656.23" cy="691.971" r="14.4" fill="#e26f46" fill-rule="evenodd" fill-opacity="1" stroke="#000000" stroke-opacity="1" stroke-width="3.2"/>
<circle clip-path="url(#clip412)" cx="1656.23" cy="519.007" r="14.4" fill="#e26f46" fill-rule="evenodd" fill-opacity="1" stroke="#000000" stroke-opacity="1" stroke-width="3.2"/>
<circle clip-path="url(#clip412)" cx="1806.02" cy="432.526" r="14.4" fill="#e26f46" fill-rule="evenodd" fill-opacity="1" stroke="#000000" stroke-opacity="1" stroke-width="3.2"/>
<circle clip-path="url(#clip412)" cx="1806.02" cy="259.562" r="14.4" fill="#e26f46" fill-rule="evenodd" fill-opacity="1" stroke="#000000" stroke-opacity="1" stroke-width="3.2"/>
<circle clip-path="url(#clip412)" cx="1955.81" cy="173.08" r="14.4" fill="#e26f46" fill-rule="evenodd" fill-opacity="1" stroke="#000000" stroke-opacity="1" stroke-width="3.2"/>
<circle clip-path="url(#clip412)" cx="1506.44" cy="1297.34" r="14.4" fill="#e26f46" fill-rule="evenodd" fill-opacity="1" stroke="#000000" stroke-opacity="1" stroke-width="3.2"/>
<circle clip-path="url(#clip412)" cx="1656.23" cy="1210.86" r="14.4" fill="#e26f46" fill-rule="evenodd" fill-opacity="1" stroke="#000000" stroke-opacity="1" stroke-width="3.2"/>
<circle clip-path="url(#clip412)" cx="1656.23" cy="1037.9" r="14.4" fill="#e26f46" fill-rule="evenodd" fill-opacity="1" stroke="#000000" stroke-opacity="1" stroke-width="3.2"/>
<circle clip-path="url(#clip412)" cx="1806.02" cy="951.417" r="14.4" fill="#e26f46" fill-rule="evenodd" fill-opacity="1" stroke="#000000" stroke-opacity="1" stroke-width="3.2"/>
<circle clip-path="url(#clip412)" cx="1806.02" cy="778.453" r="14.4" fill="#e26f46" fill-rule="evenodd" fill-opacity="1" stroke="#000000" stroke-opacity="1" stroke-width="3.2"/>
<circle clip-path="url(#clip412)" cx="1955.81" cy="691.971" r="14.4" fill="#e26f46" fill-rule="evenodd" fill-opacity="1" stroke="#000000" stroke-opacity="1" stroke-width="3.2"/>
<circle clip-path="url(#clip412)" cx="1955.81" cy="519.007" r="14.4" fill="#e26f46" fill-rule="evenodd" fill-opacity="1" stroke="#000000" stroke-opacity="1" stroke-width="3.2"/>
<circle clip-path="url(#clip412)" cx="2105.6" cy="432.526" r="14.4" fill="#e26f46" fill-rule="evenodd" fill-opacity="1" stroke="#000000" stroke-opacity="1" stroke-width="3.2"/>
<circle clip-path="url(#clip412)" cx="2105.6" cy="259.562" r="14.4" fill="#e26f46" fill-rule="evenodd" fill-opacity="1" stroke="#000000" stroke-opacity="1" stroke-width="3.2"/>
<circle clip-path="url(#clip412)" cx="2255.39" cy="173.08" r="14.4" fill="#e26f46" fill-rule="evenodd" fill-opacity="1" stroke="#000000" stroke-opacity="1" stroke-width="3.2"/>
<circle clip-path="url(#clip412)" cx="907.274" cy="1297.34" r="21.6" fill="#ff0000" fill-rule="evenodd" fill-opacity="1" stroke="#000000" stroke-opacity="1" stroke-width="3.2"/>
<circle clip-path="url(#clip412)" cx="1057.06" cy="1037.9" r="21.6" fill="#ff0000" fill-rule="evenodd" fill-opacity="1" stroke="#000000" stroke-opacity="1" stroke-width="3.2"/>
<circle clip-path="url(#clip412)" cx="1206.86" cy="778.453" r="21.6" fill="#ff0000" fill-rule="evenodd" fill-opacity="1" stroke="#000000" stroke-opacity="1" stroke-width="3.2"/>
<circle clip-path="url(#clip412)" cx="1206.86" cy="1297.34" r="21.6" fill="#ff0000" fill-rule="evenodd" fill-opacity="1" stroke="#000000" stroke-opacity="1" stroke-width="3.2"/>
<circle clip-path="url(#clip412)" cx="1356.65" cy="1037.9" r="21.6" fill="#ff0000" fill-rule="evenodd" fill-opacity="1" stroke="#000000" stroke-opacity="1" stroke-width="3.2"/>
<circle clip-path="url(#clip412)" cx="1506.44" cy="778.453" r="21.6" fill="#ff0000" fill-rule="evenodd" fill-opacity="1" stroke="#000000" stroke-opacity="1" stroke-width="3.2"/>
<circle clip-path="url(#clip412)" cx="1506.44" cy="1297.34" r="21.6" fill="#ff0000" fill-rule="evenodd" fill-opacity="1" stroke="#000000" stroke-opacity="1" stroke-width="3.2"/>
<circle clip-path="url(#clip412)" cx="1656.23" cy="1037.9" r="21.6" fill="#ff0000" fill-rule="evenodd" fill-opacity="1" stroke="#000000" stroke-opacity="1" stroke-width="3.2"/>
<circle clip-path="url(#clip412)" cx="1806.02" cy="778.453" r="21.6" fill="#ff0000" fill-rule="evenodd" fill-opacity="1" stroke="#000000" stroke-opacity="1" stroke-width="3.2"/>
</svg>
