<?xml version="1.0" encoding="utf-8"?>
<svg xmlns="http://www.w3.org/2000/svg" xmlns:xlink="http://www.w3.org/1999/xlink" width="600" height="400" viewBox="0 0 2400 1600">
<defs>
  <clipPath id="clip140">
    <rect x="0" y="0" width="2400" height="1600"/>
  </clipPath>
</defs>
<path clip-path="url(#clip140)" d="M0 1600 L2400 1600 L2400 0 L0 0  Z" fill="#ffffff" fill-rule="evenodd" fill-opacity="1"/>
<defs>
  <clipPath id="clip141">
    <rect x="480" y="0" width="1681" height="1600"/>
  </clipPath>
</defs>
<path clip-path="url(#clip140)" d="M287.366 1423.18 L2352.76 1423.18 L2352.76 123.472 L287.366 123.472  Z" fill="#ffffff" fill-rule="evenodd" fill-opacity="1"/>
<defs>
  <clipPath id="clip142">
    <rect x="287" y="123" width="2066" height="1301"/>
  </clipPath>
</defs>
<polyline clip-path="url(#clip142)" style="stroke:#000000; stroke-linecap:round; stroke-linejoin:round; stroke-width:2; stroke-opacity:0.1; fill:none" points="287.366,1423.18 287.366,123.472 "/>
<polyline clip-path="url(#clip142)" style="stroke:#000000; stroke-linecap:round; stroke-linejoin:round; stroke-width:2; stroke-opacity:0.1; fill:none" points="975.829,1423.18 975.829,123.472 "/>
<polyline clip-path="url(#clip142)" style="stroke:#000000; stroke-linecap:round; stroke-linejoin:round; stroke-width:2; stroke-opacity:0.1; fill:none" points="1664.29,1423.18 1664.29,123.472 "/>
<polyline clip-path="url(#clip142)" style="stroke:#000000; stroke-linecap:round; stroke-linejoin:round; stroke-width:2; stroke-opacity:0.1; fill:none" points="2352.76,1423.18 2352.76,123.472 "/>
<polyline clip-path="url(#clip142)" style="stroke:#000000; stroke-linecap:round; stroke-linejoin:round; stroke-width:2; stroke-opacity:0.1; fill:none" points="287.366,1309.99 2352.76,1309.99 "/>
<polyline clip-path="url(#clip142)" style="stroke:#000000; stroke-linecap:round; stroke-linejoin:round; stroke-width:2; stroke-opacity:0.1; fill:none" points="287.366,1085.84 2352.76,1085.84 "/>
<polyline clip-path="url(#clip142)" style="stroke:#000000; stroke-linecap:round; stroke-linejoin:round; stroke-width:2; stroke-opacity:0.1; fill:none" points="287.366,861.691 2352.76,861.691 "/>
<polyline clip-path="url(#clip142)" style="stroke:#000000; stroke-linecap:round; stroke-linejoin:round; stroke-width:2; stroke-opacity:0.1; fill:none" points="287.366,637.544 2352.76,637.544 "/>
<polyline clip-path="url(#clip142)" style="stroke:#000000; stroke-linecap:round; stroke-linejoin:round; stroke-width:2; stroke-opacity:0.1; fill:none" points="287.366,413.397 2352.76,413.397 "/>
<polyline clip-path="url(#clip142)" style="stroke:#000000; stroke-linecap:round; stroke-linejoin:round; stroke-width:2; stroke-opacity:0.1; fill:none" points="287.366,189.25 2352.76,189.25 "/>
<polyline clip-path="url(#clip140)" style="stroke:#000000; stroke-linecap:round; stroke-linejoin:round; stroke-width:4; stroke-opacity:1; fill:none" points="287.366,1423.18 2352.76,1423.18 "/>
<polyline clip-path="url(#clip140)" style="stroke:#000000; stroke-linecap:round; stroke-linejoin:round; stroke-width:4; stroke-opacity:1; fill:none" points="287.366,1423.18 287.366,1404.28 "/>
<polyline clip-path="url(#clip140)" style="stroke:#000000; stroke-linecap:round; stroke-linejoin:round; stroke-width:4; stroke-opacity:1; fill:none" points="975.829,1423.18 975.829,1404.28 "/>
<polyline clip-path="url(#clip140)" style="stroke:#000000; stroke-linecap:round; stroke-linejoin:round; stroke-width:4; stroke-opacity:1; fill:none" points="1664.29,1423.18 1664.29,1404.28 "/>
<polyline clip-path="url(#clip140)" style="stroke:#000000; stroke-linecap:round; stroke-linejoin:round; stroke-width:4; stroke-opacity:1; fill:none" points="2352.76,1423.18 2352.76,1404.28 "/>
<path clip-path="url(#clip140)" d="M241.429 1468.75 L271.104 1468.75 L271.104 1472.69 L241.429 1472.69 L241.429 1468.75 Z" fill="#000000" fill-rule="nonzero" fill-opacity="1" /><path clip-path="url(#clip140)" d="M282.007 1481.64 L289.646 1481.64 L289.646 1455.28 L281.336 1456.95 L281.336 1452.69 L289.6 1451.02 L294.276 1451.02 L294.276 1481.64 L301.914 1481.64 L301.914 1485.58 L282.007 1485.58 L282.007 1481.64 Z" fill="#000000" fill-rule="nonzero" fill-opacity="1" /><path clip-path="url(#clip140)" d="M321.359 1454.1 Q317.748 1454.1 315.919 1457.66 Q314.113 1461.2 314.113 1468.33 Q314.113 1475.44 315.919 1479.01 Q317.748 1482.55 321.359 1482.55 Q324.993 1482.55 326.799 1479.01 Q328.627 1475.44 328.627 1468.33 Q328.627 1461.2 326.799 1457.66 Q324.993 1454.1 321.359 1454.1 M321.359 1450.39 Q327.169 1450.39 330.224 1455 Q333.303 1459.58 333.303 1468.33 Q333.303 1477.06 330.224 1481.67 Q327.169 1486.25 321.359 1486.25 Q315.549 1486.25 312.47 1481.67 Q309.414 1477.06 309.414 1468.33 Q309.414 1459.58 312.47 1455 Q315.549 1450.39 321.359 1450.39 Z" fill="#000000" fill-rule="nonzero" fill-opacity="1" /><path clip-path="url(#clip140)" d="M975.829 1454.1 Q972.218 1454.1 970.389 1457.66 Q968.584 1461.2 968.584 1468.33 Q968.584 1475.44 970.389 1479.01 Q972.218 1482.55 975.829 1482.55 Q979.463 1482.55 981.269 1479.01 Q983.098 1475.44 983.098 1468.33 Q983.098 1461.2 981.269 1457.66 Q979.463 1454.1 975.829 1454.1 M975.829 1450.39 Q981.639 1450.39 984.695 1455 Q987.774 1459.58 987.774 1468.33 Q987.774 1477.06 984.695 1481.67 Q981.639 1486.25 975.829 1486.25 Q970.019 1486.25 966.94 1481.67 Q963.885 1477.06 963.885 1468.33 Q963.885 1459.58 966.94 1455 Q970.019 1450.39 975.829 1450.39 Z" fill="#000000" fill-rule="nonzero" fill-opacity="1" /><path clip-path="url(#clip140)" d="M1638.98 1481.64 L1646.62 1481.64 L1646.62 1455.28 L1638.31 1456.95 L1638.31 1452.69 L1646.57 1451.02 L1651.25 1451.02 L1651.25 1481.64 L1658.89 1481.64 L1658.89 1485.58 L1638.98 1485.58 L1638.98 1481.64 Z" fill="#000000" fill-rule="nonzero" fill-opacity="1" /><path clip-path="url(#clip140)" d="M1678.33 1454.1 Q1674.72 1454.1 1672.89 1457.66 Q1671.09 1461.2 1671.09 1468.33 Q1671.09 1475.44 1672.89 1479.01 Q1674.72 1482.55 1678.33 1482.55 Q1681.97 1482.55 1683.77 1479.01 Q1685.6 1475.44 1685.6 1468.33 Q1685.6 1461.2 1683.77 1457.66 Q1681.97 1454.1 1678.33 1454.1 M1678.33 1450.39 Q1684.14 1450.39 1687.2 1455 Q1690.28 1459.58 1690.28 1468.33 Q1690.28 1477.06 1687.2 1481.67 Q1684.14 1486.25 1678.33 1486.25 Q1672.52 1486.25 1669.44 1481.67 Q1666.39 1477.06 1666.39 1468.33 Q1666.39 1459.58 1669.44 1455 Q1672.52 1450.39 1678.33 1450.39 Z" fill="#000000" fill-rule="nonzero" fill-opacity="1" /><path clip-path="url(#clip140)" d="M2331.53 1481.64 L2347.85 1481.64 L2347.85 1485.58 L2325.9 1485.58 L2325.9 1481.64 Q2328.57 1478.89 2333.15 1474.26 Q2337.76 1469.61 2338.94 1468.27 Q2341.18 1465.74 2342.06 1464.01 Q2342.96 1462.25 2342.96 1460.56 Q2342.96 1457.8 2341.02 1456.07 Q2339.1 1454.33 2336 1454.33 Q2333.8 1454.33 2331.34 1455.09 Q2328.91 1455.86 2326.14 1457.41 L2326.14 1452.69 Q2328.96 1451.55 2331.41 1450.97 Q2333.87 1450.39 2335.9 1450.39 Q2341.27 1450.39 2344.47 1453.08 Q2347.66 1455.77 2347.66 1460.26 Q2347.66 1462.39 2346.85 1464.31 Q2346.07 1466.2 2343.96 1468.8 Q2343.38 1469.47 2340.28 1472.69 Q2337.18 1475.88 2331.53 1481.64 Z" fill="#000000" fill-rule="nonzero" fill-opacity="1" /><path clip-path="url(#clip140)" d="M2367.66 1454.1 Q2364.05 1454.1 2362.22 1457.66 Q2360.42 1461.2 2360.42 1468.33 Q2360.42 1475.44 2362.22 1479.01 Q2364.05 1482.55 2367.66 1482.55 Q2371.3 1482.55 2373.1 1479.01 Q2374.93 1475.44 2374.93 1468.33 Q2374.93 1461.2 2373.1 1457.66 Q2371.3 1454.1 2367.66 1454.1 M2367.66 1450.39 Q2373.47 1450.39 2376.53 1455 Q2379.61 1459.58 2379.61 1468.33 Q2379.61 1477.06 2376.53 1481.67 Q2373.47 1486.25 2367.66 1486.25 Q2361.85 1486.25 2358.77 1481.67 Q2355.72 1477.06 2355.72 1468.33 Q2355.72 1459.58 2358.77 1455 Q2361.85 1450.39 2367.66 1450.39 Z" fill="#000000" fill-rule="nonzero" fill-opacity="1" /><path clip-path="url(#clip140)" d="M1310.35 1568.97 Q1297.14 1568.97 1297.14 1550.06 Q1297.14 1542.58 1302.08 1532.4 L1308.38 1532.4 Q1303.83 1542.58 1303.83 1550.22 Q1303.83 1564 1310.89 1564 Q1317.36 1564 1317.36 1546.88 L1322.77 1546.88 Q1322.77 1564 1329.23 1564 Q1336.29 1564 1336.29 1550.22 Q1336.29 1542.58 1331.74 1532.4 L1338.04 1532.4 Q1342.98 1542.58 1342.98 1550.06 Q1342.98 1568.97 1329.77 1568.97 Q1321.11 1568.97 1320.06 1559.45 Q1318.76 1568.97 1310.35 1568.97 Z" fill="#000000" fill-rule="nonzero" fill-opacity="1" /><polyline clip-path="url(#clip140)" style="stroke:#000000; stroke-linecap:round; stroke-linejoin:round; stroke-width:4; stroke-opacity:1; fill:none" points="287.366,1423.18 287.366,123.472 "/>
<polyline clip-path="url(#clip140)" style="stroke:#000000; stroke-linecap:round; stroke-linejoin:round; stroke-width:4; stroke-opacity:1; fill:none" points="287.366,1309.99 306.264,1309.99 "/>
<polyline clip-path="url(#clip140)" style="stroke:#000000; stroke-linecap:round; stroke-linejoin:round; stroke-width:4; stroke-opacity:1; fill:none" points="287.366,1085.84 306.264,1085.84 "/>
<polyline clip-path="url(#clip140)" style="stroke:#000000; stroke-linecap:round; stroke-linejoin:round; stroke-width:4; stroke-opacity:1; fill:none" points="287.366,861.691 306.264,861.691 "/>
<polyline clip-path="url(#clip140)" style="stroke:#000000; stroke-linecap:round; stroke-linejoin:round; stroke-width:4; stroke-opacity:1; fill:none" points="287.366,637.544 306.264,637.544 "/>
<polyline clip-path="url(#clip140)" style="stroke:#000000; stroke-linecap:round; stroke-linejoin:round; stroke-width:4; stroke-opacity:1; fill:none" points="287.366,413.397 306.264,413.397 "/>
<polyline clip-path="url(#clip140)" style="stroke:#000000; stroke-linecap:round; stroke-linejoin:round; stroke-width:4; stroke-opacity:1; fill:none" points="287.366,189.25 306.264,189.25 "/>
<path clip-path="url(#clip140)" d="M114.26 1310.44 L143.936 1310.44 L143.936 1314.37 L114.26 1314.37 L114.26 1310.44 Z" fill="#000000" fill-rule="nonzero" fill-opacity="1" /><path clip-path="url(#clip140)" d="M164.028 1295.78 Q160.417 1295.78 158.589 1299.35 Q156.783 1302.89 156.783 1310.02 Q156.783 1317.13 158.589 1320.69 Q160.417 1324.23 164.028 1324.23 Q167.663 1324.23 169.468 1320.69 Q171.297 1317.13 171.297 1310.02 Q171.297 1302.89 169.468 1299.35 Q167.663 1295.78 164.028 1295.78 M164.028 1292.08 Q169.839 1292.08 172.894 1296.69 Q175.973 1301.27 175.973 1310.02 Q175.973 1318.75 172.894 1323.35 Q169.839 1327.94 164.028 1327.94 Q158.218 1327.94 155.14 1323.35 Q152.084 1318.75 152.084 1310.02 Q152.084 1301.27 155.14 1296.69 Q158.218 1292.08 164.028 1292.08 Z" fill="#000000" fill-rule="nonzero" fill-opacity="1" /><path clip-path="url(#clip140)" d="M184.19 1321.39 L189.075 1321.39 L189.075 1327.27 L184.19 1327.27 L184.19 1321.39 Z" fill="#000000" fill-rule="nonzero" fill-opacity="1" /><path clip-path="url(#clip140)" d="M199.306 1292.71 L217.662 1292.71 L217.662 1296.64 L203.588 1296.64 L203.588 1305.11 Q204.607 1304.77 205.625 1304.6 Q206.644 1304.42 207.662 1304.42 Q213.449 1304.42 216.829 1307.59 Q220.209 1310.76 220.209 1316.18 Q220.209 1321.76 216.736 1324.86 Q213.264 1327.94 206.945 1327.94 Q204.769 1327.94 202.5 1327.57 Q200.255 1327.2 197.848 1326.45 L197.848 1321.76 Q199.931 1322.89 202.153 1323.45 Q204.375 1324 206.852 1324 Q210.857 1324 213.195 1321.89 Q215.533 1319.79 215.533 1316.18 Q215.533 1312.57 213.195 1310.46 Q210.857 1308.35 206.852 1308.35 Q204.977 1308.35 203.102 1308.77 Q201.25 1309.19 199.306 1310.07 L199.306 1292.71 Z" fill="#000000" fill-rule="nonzero" fill-opacity="1" /><path clip-path="url(#clip140)" d="M239.422 1295.78 Q235.81 1295.78 233.982 1299.35 Q232.176 1302.89 232.176 1310.02 Q232.176 1317.13 233.982 1320.69 Q235.81 1324.23 239.422 1324.23 Q243.056 1324.23 244.861 1320.69 Q246.69 1317.13 246.69 1310.02 Q246.69 1302.89 244.861 1299.35 Q243.056 1295.78 239.422 1295.78 M239.422 1292.08 Q245.232 1292.08 248.287 1296.69 Q251.366 1301.27 251.366 1310.02 Q251.366 1318.75 248.287 1323.35 Q245.232 1327.94 239.422 1327.94 Q233.611 1327.94 230.533 1323.35 Q227.477 1318.75 227.477 1310.02 Q227.477 1301.27 230.533 1296.69 Q233.611 1292.08 239.422 1292.08 Z" fill="#000000" fill-rule="nonzero" fill-opacity="1" /><path clip-path="url(#clip140)" d="M115.256 1086.29 L144.931 1086.29 L144.931 1090.22 L115.256 1090.22 L115.256 1086.29 Z" fill="#000000" fill-rule="nonzero" fill-opacity="1" /><path clip-path="url(#clip140)" d="M165.024 1071.64 Q161.413 1071.64 159.584 1075.2 Q157.778 1078.74 157.778 1085.87 Q157.778 1092.98 159.584 1096.54 Q161.413 1100.09 165.024 1100.09 Q168.658 1100.09 170.464 1096.54 Q172.292 1092.98 172.292 1085.87 Q172.292 1078.74 170.464 1075.2 Q168.658 1071.64 165.024 1071.64 M165.024 1067.93 Q170.834 1067.93 173.889 1072.54 Q176.968 1077.12 176.968 1085.87 Q176.968 1094.6 173.889 1099.21 Q170.834 1103.79 165.024 1103.79 Q159.214 1103.79 156.135 1099.21 Q153.079 1094.6 153.079 1085.87 Q153.079 1077.12 156.135 1072.54 Q159.214 1067.93 165.024 1067.93 Z" fill="#000000" fill-rule="nonzero" fill-opacity="1" /><path clip-path="url(#clip140)" d="M185.186 1097.24 L190.07 1097.24 L190.07 1103.12 L185.186 1103.12 L185.186 1097.24 Z" fill="#000000" fill-rule="nonzero" fill-opacity="1" /><path clip-path="url(#clip140)" d="M204.283 1099.18 L220.602 1099.18 L220.602 1103.12 L198.658 1103.12 L198.658 1099.18 Q201.32 1096.43 205.903 1091.8 Q210.51 1087.15 211.69 1085.8 Q213.936 1083.28 214.815 1081.54 Q215.718 1079.78 215.718 1078.09 Q215.718 1075.34 213.774 1073.6 Q211.852 1071.87 208.75 1071.87 Q206.551 1071.87 204.098 1072.63 Q201.667 1073.4 198.889 1074.95 L198.889 1070.22 Q201.713 1069.09 204.167 1068.51 Q206.621 1067.93 208.658 1067.93 Q214.028 1067.93 217.223 1070.62 Q220.417 1073.3 220.417 1077.79 Q220.417 1079.92 219.607 1081.84 Q218.82 1083.74 216.713 1086.34 Q216.135 1087.01 213.033 1090.22 Q209.931 1093.42 204.283 1099.18 Z" fill="#000000" fill-rule="nonzero" fill-opacity="1" /><path clip-path="url(#clip140)" d="M230.463 1068.56 L248.82 1068.56 L248.82 1072.49 L234.746 1072.49 L234.746 1080.97 Q235.764 1080.62 236.783 1080.46 Q237.801 1080.27 238.82 1080.27 Q244.607 1080.27 247.986 1083.44 Q251.366 1086.61 251.366 1092.03 Q251.366 1097.61 247.894 1100.71 Q244.421 1103.79 238.102 1103.79 Q235.926 1103.79 233.658 1103.42 Q231.412 1103.05 229.005 1102.31 L229.005 1097.61 Q231.088 1098.74 233.31 1099.3 Q235.533 1099.85 238.009 1099.85 Q242.014 1099.85 244.352 1097.75 Q246.69 1095.64 246.69 1092.03 Q246.69 1088.42 244.352 1086.31 Q242.014 1084.21 238.009 1084.21 Q236.135 1084.21 234.26 1084.62 Q232.408 1085.04 230.463 1085.92 L230.463 1068.56 Z" fill="#000000" fill-rule="nonzero" fill-opacity="1" /><path clip-path="url(#clip140)" d="M164.028 847.49 Q160.417 847.49 158.589 851.054 Q156.783 854.596 156.783 861.726 Q156.783 868.832 158.589 872.397 Q160.417 875.939 164.028 875.939 Q167.663 875.939 169.468 872.397 Q171.297 868.832 171.297 861.726 Q171.297 854.596 169.468 851.054 Q167.663 847.49 164.028 847.49 M164.028 843.786 Q169.839 843.786 172.894 848.392 Q175.973 852.976 175.973 861.726 Q175.973 870.452 172.894 875.059 Q169.839 879.642 164.028 879.642 Q158.218 879.642 155.14 875.059 Q152.084 870.452 152.084 861.726 Q152.084 852.976 155.14 848.392 Q158.218 843.786 164.028 843.786 Z" fill="#000000" fill-rule="nonzero" fill-opacity="1" /><path clip-path="url(#clip140)" d="M184.19 873.091 L189.075 873.091 L189.075 878.971 L184.19 878.971 L184.19 873.091 Z" fill="#000000" fill-rule="nonzero" fill-opacity="1" /><path clip-path="url(#clip140)" d="M209.26 847.49 Q205.649 847.49 203.82 851.054 Q202.014 854.596 202.014 861.726 Q202.014 868.832 203.82 872.397 Q205.649 875.939 209.26 875.939 Q212.894 875.939 214.699 872.397 Q216.528 868.832 216.528 861.726 Q216.528 854.596 214.699 851.054 Q212.894 847.49 209.26 847.49 M209.26 843.786 Q215.07 843.786 218.125 848.392 Q221.204 852.976 221.204 861.726 Q221.204 870.452 218.125 875.059 Q215.07 879.642 209.26 879.642 Q203.449 879.642 200.371 875.059 Q197.315 870.452 197.315 861.726 Q197.315 852.976 200.371 848.392 Q203.449 843.786 209.26 843.786 Z" fill="#000000" fill-rule="nonzero" fill-opacity="1" /><path clip-path="url(#clip140)" d="M239.422 847.49 Q235.81 847.49 233.982 851.054 Q232.176 854.596 232.176 861.726 Q232.176 868.832 233.982 872.397 Q235.81 875.939 239.422 875.939 Q243.056 875.939 244.861 872.397 Q246.69 868.832 246.69 861.726 Q246.69 854.596 244.861 851.054 Q243.056 847.49 239.422 847.49 M239.422 843.786 Q245.232 843.786 248.287 848.392 Q251.366 852.976 251.366 861.726 Q251.366 870.452 248.287 875.059 Q245.232 879.642 239.422 879.642 Q233.611 879.642 230.533 875.059 Q227.477 870.452 227.477 861.726 Q227.477 852.976 230.533 848.392 Q233.611 843.786 239.422 843.786 Z" fill="#000000" fill-rule="nonzero" fill-opacity="1" /><path clip-path="url(#clip140)" d="M165.024 623.343 Q161.413 623.343 159.584 626.907 Q157.778 630.449 157.778 637.579 Q157.778 644.685 159.584 648.25 Q161.413 651.791 165.024 651.791 Q168.658 651.791 170.464 648.25 Q172.292 644.685 172.292 637.579 Q172.292 630.449 170.464 626.907 Q168.658 623.343 165.024 623.343 M165.024 619.639 Q170.834 619.639 173.889 624.245 Q176.968 628.829 176.968 637.579 Q176.968 646.305 173.889 650.912 Q170.834 655.495 165.024 655.495 Q159.214 655.495 156.135 650.912 Q153.079 646.305 153.079 637.579 Q153.079 628.829 156.135 624.245 Q159.214 619.639 165.024 619.639 Z" fill="#000000" fill-rule="nonzero" fill-opacity="1" /><path clip-path="url(#clip140)" d="M185.186 648.944 L190.07 648.944 L190.07 654.824 L185.186 654.824 L185.186 648.944 Z" fill="#000000" fill-rule="nonzero" fill-opacity="1" /><path clip-path="url(#clip140)" d="M204.283 650.889 L220.602 650.889 L220.602 654.824 L198.658 654.824 L198.658 650.889 Q201.32 648.134 205.903 643.504 Q210.51 638.852 211.69 637.509 Q213.936 634.986 214.815 633.25 Q215.718 631.491 215.718 629.801 Q215.718 627.046 213.774 625.31 Q211.852 623.574 208.75 623.574 Q206.551 623.574 204.098 624.338 Q201.667 625.102 198.889 626.653 L198.889 621.93 Q201.713 620.796 204.167 620.218 Q206.621 619.639 208.658 619.639 Q214.028 619.639 217.223 622.324 Q220.417 625.009 220.417 629.5 Q220.417 631.63 219.607 633.551 Q218.82 635.449 216.713 638.042 Q216.135 638.713 213.033 641.93 Q209.931 645.125 204.283 650.889 Z" fill="#000000" fill-rule="nonzero" fill-opacity="1" /><path clip-path="url(#clip140)" d="M230.463 620.264 L248.82 620.264 L248.82 624.199 L234.746 624.199 L234.746 632.671 Q235.764 632.324 236.783 632.162 Q237.801 631.977 238.82 631.977 Q244.607 631.977 247.986 635.148 Q251.366 638.319 251.366 643.736 Q251.366 649.315 247.894 652.416 Q244.421 655.495 238.102 655.495 Q235.926 655.495 233.658 655.125 Q231.412 654.754 229.005 654.014 L229.005 649.315 Q231.088 650.449 233.31 651.004 Q235.533 651.56 238.009 651.56 Q242.014 651.56 244.352 649.453 Q246.69 647.347 246.69 643.736 Q246.69 640.125 244.352 638.018 Q242.014 635.912 238.009 635.912 Q236.135 635.912 234.26 636.329 Q232.408 636.745 230.463 637.625 L230.463 620.264 Z" fill="#000000" fill-rule="nonzero" fill-opacity="1" /><path clip-path="url(#clip140)" d="M164.028 399.195 Q160.417 399.195 158.589 402.76 Q156.783 406.302 156.783 413.431 Q156.783 420.538 158.589 424.103 Q160.417 427.644 164.028 427.644 Q167.663 427.644 169.468 424.103 Q171.297 420.538 171.297 413.431 Q171.297 406.302 169.468 402.76 Q167.663 399.195 164.028 399.195 M164.028 395.492 Q169.839 395.492 172.894 400.098 Q175.973 404.682 175.973 413.431 Q175.973 422.158 172.894 426.765 Q169.839 431.348 164.028 431.348 Q158.218 431.348 155.14 426.765 Q152.084 422.158 152.084 413.431 Q152.084 404.682 155.14 400.098 Q158.218 395.492 164.028 395.492 Z" fill="#000000" fill-rule="nonzero" fill-opacity="1" /><path clip-path="url(#clip140)" d="M184.19 424.797 L189.075 424.797 L189.075 430.677 L184.19 430.677 L184.19 424.797 Z" fill="#000000" fill-rule="nonzero" fill-opacity="1" /><path clip-path="url(#clip140)" d="M199.306 396.117 L217.662 396.117 L217.662 400.052 L203.588 400.052 L203.588 408.524 Q204.607 408.177 205.625 408.015 Q206.644 407.83 207.662 407.83 Q213.449 407.83 216.829 411.001 Q220.209 414.172 220.209 419.589 Q220.209 425.168 216.736 428.269 Q213.264 431.348 206.945 431.348 Q204.769 431.348 202.5 430.978 Q200.255 430.607 197.848 429.867 L197.848 425.168 Q199.931 426.302 202.153 426.857 Q204.375 427.413 206.852 427.413 Q210.857 427.413 213.195 425.306 Q215.533 423.2 215.533 419.589 Q215.533 415.978 213.195 413.871 Q210.857 411.765 206.852 411.765 Q204.977 411.765 203.102 412.181 Q201.25 412.598 199.306 413.478 L199.306 396.117 Z" fill="#000000" fill-rule="nonzero" fill-opacity="1" /><path clip-path="url(#clip140)" d="M239.422 399.195 Q235.81 399.195 233.982 402.76 Q232.176 406.302 232.176 413.431 Q232.176 420.538 233.982 424.103 Q235.81 427.644 239.422 427.644 Q243.056 427.644 244.861 424.103 Q246.69 420.538 246.69 413.431 Q246.69 406.302 244.861 402.76 Q243.056 399.195 239.422 399.195 M239.422 395.492 Q245.232 395.492 248.287 400.098 Q251.366 404.682 251.366 413.431 Q251.366 422.158 248.287 426.765 Q245.232 431.348 239.422 431.348 Q233.611 431.348 230.533 426.765 Q227.477 422.158 227.477 413.431 Q227.477 404.682 230.533 400.098 Q233.611 395.492 239.422 395.492 Z" fill="#000000" fill-rule="nonzero" fill-opacity="1" /><path clip-path="url(#clip140)" d="M165.024 175.048 Q161.413 175.048 159.584 178.613 Q157.778 182.155 157.778 189.284 Q157.778 196.391 159.584 199.956 Q161.413 203.497 165.024 203.497 Q168.658 203.497 170.464 199.956 Q172.292 196.391 172.292 189.284 Q172.292 182.155 170.464 178.613 Q168.658 175.048 165.024 175.048 M165.024 171.345 Q170.834 171.345 173.889 175.951 Q176.968 180.534 176.968 189.284 Q176.968 198.011 173.889 202.618 Q170.834 207.201 165.024 207.201 Q159.214 207.201 156.135 202.618 Q153.079 198.011 153.079 189.284 Q153.079 180.534 156.135 175.951 Q159.214 171.345 165.024 171.345 Z" fill="#000000" fill-rule="nonzero" fill-opacity="1" /><path clip-path="url(#clip140)" d="M185.186 200.65 L190.07 200.65 L190.07 206.53 L185.186 206.53 L185.186 200.65 Z" fill="#000000" fill-rule="nonzero" fill-opacity="1" /><path clip-path="url(#clip140)" d="M199.075 171.97 L221.297 171.97 L221.297 173.96 L208.75 206.53 L203.866 206.53 L215.672 175.905 L199.075 175.905 L199.075 171.97 Z" fill="#000000" fill-rule="nonzero" fill-opacity="1" /><path clip-path="url(#clip140)" d="M230.463 171.97 L248.82 171.97 L248.82 175.905 L234.746 175.905 L234.746 184.377 Q235.764 184.03 236.783 183.868 Q237.801 183.683 238.82 183.683 Q244.607 183.683 247.986 186.854 Q251.366 190.025 251.366 195.442 Q251.366 201.02 247.894 204.122 Q244.421 207.201 238.102 207.201 Q235.926 207.201 233.658 206.831 Q231.412 206.46 229.005 205.719 L229.005 201.02 Q231.088 202.155 233.31 202.71 Q235.533 203.266 238.009 203.266 Q242.014 203.266 244.352 201.159 Q246.69 199.053 246.69 195.442 Q246.69 191.831 244.352 189.724 Q242.014 187.618 238.009 187.618 Q236.135 187.618 234.26 188.034 Q232.408 188.451 230.463 189.331 L230.463 171.97 Z" fill="#000000" fill-rule="nonzero" fill-opacity="1" /><path clip-path="url(#clip140)" d="M16.4842 857.91 L16.4842 851.481 L58.5933 851.481 L58.5933 828.342 L64.0042 828.342 L64.0042 857.91 L16.4842 857.91 Z" fill="#000000" fill-rule="nonzero" fill-opacity="1" /><path clip-path="url(#clip140)" d="M21.7677 815.165 L58.7206 815.165 L58.7206 807.398 Q58.7206 797.563 54.2646 793.012 Q49.8086 788.429 40.1964 788.429 Q30.6479 788.429 26.2237 793.012 Q21.7677 797.563 21.7677 807.398 L21.7677 815.165 M16.4842 821.594 L16.4842 808.385 Q16.4842 794.572 22.2451 788.11 Q27.9743 781.649 40.1964 781.649 Q52.4822 781.649 58.2432 788.142 Q64.0042 794.635 64.0042 808.385 L64.0042 821.594 L16.4842 821.594 Z" fill="#000000" fill-rule="nonzero" fill-opacity="1" /><path clip-path="url(#clip140)" d="M20.8447 752.112 Q20.8447 759.115 26.0645 763.252 Q31.2844 767.358 40.2919 767.358 Q49.2675 767.358 54.4874 763.252 Q59.7073 759.115 59.7073 752.112 Q59.7073 745.11 54.4874 741.036 Q49.2675 736.93 40.2919 736.93 Q31.2844 736.93 26.0645 741.036 Q20.8447 745.11 20.8447 752.112 M15.6248 752.112 Q15.6248 742.118 22.3406 736.134 Q29.0246 730.151 40.2919 730.151 Q51.5274 730.151 58.2432 736.134 Q64.9272 742.118 64.9272 752.112 Q64.9272 762.138 58.2432 768.154 Q51.5592 774.138 40.2919 774.138 Q29.0246 774.138 22.3406 768.154 Q15.6248 762.138 15.6248 752.112 Z" fill="#000000" fill-rule="nonzero" fill-opacity="1" /><path clip-path="url(#clip140)" d="M18.0438 691.606 L24.314 691.606 Q22.5634 695.267 21.704 698.513 Q20.8447 701.76 20.8447 704.783 Q20.8447 710.035 22.8817 712.9 Q24.9187 715.732 28.6745 715.732 Q31.8255 715.732 33.4488 713.854 Q35.0402 711.945 36.0269 706.661 L36.8226 702.778 Q38.1912 695.585 41.6605 692.179 Q45.098 688.742 50.8908 688.742 Q57.7976 688.742 61.3624 693.389 Q64.9272 698.004 64.9272 706.948 Q64.9272 710.321 64.1633 714.141 Q63.3994 717.928 61.9035 722.002 L55.2831 722.002 Q57.4793 718.088 58.5933 714.332 Q59.7073 710.576 59.7073 706.948 Q59.7073 701.441 57.543 698.449 Q55.3786 695.457 51.3682 695.457 Q47.8671 695.457 45.8937 697.622 Q43.9204 699.754 42.9337 704.656 L42.1698 708.571 Q40.7375 715.764 37.682 718.979 Q34.6264 722.193 29.1837 722.193 Q22.8817 722.193 19.2532 717.769 Q15.6248 713.313 15.6248 705.515 Q15.6248 702.173 16.2295 698.704 Q16.8343 695.235 18.0438 691.606 Z" fill="#000000" fill-rule="nonzero" fill-opacity="1" /><path clip-path="url(#clip140)" d="M958.234 12.096 L966.417 12.096 L966.417 65.6895 L995.867 65.6895 L995.867 72.576 L958.234 72.576 L958.234 12.096 Z" fill="#000000" fill-rule="nonzero" fill-opacity="1" /><path clip-path="url(#clip140)" d="M1012.64 18.8205 L1012.64 65.8515 L1022.52 65.8515 Q1035.04 65.8515 1040.83 60.1802 Q1046.67 54.509 1046.67 42.2752 Q1046.67 30.1225 1040.83 24.4918 Q1035.04 18.8205 1022.52 18.8205 L1012.64 18.8205 M1004.45 12.096 L1021.27 12.096 Q1038.85 12.096 1047.07 19.4281 Q1055.29 26.7198 1055.29 42.2752 Q1055.29 57.9117 1047.03 65.2439 Q1038.77 72.576 1021.27 72.576 L1004.45 72.576 L1004.45 12.096 Z" fill="#000000" fill-rule="nonzero" fill-opacity="1" /><path clip-path="url(#clip140)" d="M1092.89 17.6457 Q1083.97 17.6457 1078.71 24.2892 Q1073.48 30.9327 1073.48 42.3968 Q1073.48 53.8203 1078.71 60.4638 Q1083.97 67.1073 1092.89 67.1073 Q1101.8 67.1073 1106.98 60.4638 Q1112.21 53.8203 1112.21 42.3968 Q1112.21 30.9327 1106.98 24.2892 Q1101.8 17.6457 1092.89 17.6457 M1092.89 11.0023 Q1105.61 11.0023 1113.22 19.5497 Q1120.84 28.0566 1120.84 42.3968 Q1120.84 56.6965 1113.22 65.2439 Q1105.61 73.7508 1092.89 73.7508 Q1080.13 73.7508 1072.47 65.2439 Q1064.85 56.737 1064.85 42.3968 Q1064.85 28.0566 1072.47 19.5497 Q1080.13 11.0023 1092.89 11.0023 Z" fill="#000000" fill-rule="nonzero" fill-opacity="1" /><path clip-path="url(#clip140)" d="M1169.89 14.0809 L1169.89 22.0612 Q1165.24 19.8332 1161.1 18.7395 Q1156.97 17.6457 1153.12 17.6457 Q1146.44 17.6457 1142.79 20.2383 Q1139.19 22.8309 1139.19 27.611 Q1139.19 31.6214 1141.58 33.6873 Q1144.01 35.7128 1150.73 36.9686 L1155.68 37.9813 Q1164.83 39.7232 1169.16 44.1387 Q1173.54 48.5136 1173.54 55.8863 Q1173.54 64.6767 1167.63 69.2137 Q1161.75 73.7508 1150.37 73.7508 Q1146.07 73.7508 1141.21 72.7785 Q1136.39 71.8063 1131.21 69.9024 L1131.21 61.4765 Q1136.19 64.2716 1140.97 65.6895 Q1145.75 67.1073 1150.37 67.1073 Q1157.38 67.1073 1161.18 64.3527 Q1164.99 61.598 1164.99 56.4939 Q1164.99 52.0379 1162.24 49.5264 Q1159.52 47.0148 1153.29 45.759 L1148.3 44.7868 Q1139.15 42.9639 1135.06 39.075 Q1130.96 35.1862 1130.96 28.2591 Q1130.96 20.2383 1136.6 15.6203 Q1142.27 11.0023 1152.19 11.0023 Q1156.44 11.0023 1160.86 11.7719 Q1165.28 12.5416 1169.89 14.0809 Z" fill="#000000" fill-rule="nonzero" fill-opacity="1" /><path clip-path="url(#clip140)" d="M1245 28.9478 L1245 35.9153 Q1241.84 34.1734 1238.64 33.3227 Q1235.48 32.4315 1232.24 32.4315 Q1224.99 32.4315 1220.98 37.0496 Q1216.97 41.6271 1216.97 49.9314 Q1216.97 58.2358 1220.98 62.8538 Q1224.99 67.4314 1232.24 67.4314 Q1235.48 67.4314 1238.64 66.5807 Q1241.84 65.6895 1245 63.9476 L1245 70.8341 Q1241.88 72.2924 1238.52 73.0216 Q1235.19 73.7508 1231.43 73.7508 Q1221.18 73.7508 1215.14 67.3098 Q1209.11 60.8689 1209.11 49.9314 Q1209.11 38.832 1215.18 32.472 Q1221.3 26.1121 1231.91 26.1121 Q1235.36 26.1121 1238.64 26.8413 Q1241.92 27.5299 1245 28.9478 Z" fill="#000000" fill-rule="nonzero" fill-opacity="1" /><path clip-path="url(#clip140)" d="M1275.54 32.4315 Q1269.55 32.4315 1266.06 37.1306 Q1262.58 41.7891 1262.58 49.9314 Q1262.58 58.0738 1266.02 62.7728 Q1269.51 67.4314 1275.54 67.4314 Q1281.5 67.4314 1284.98 62.7323 Q1288.46 58.0333 1288.46 49.9314 Q1288.46 41.8701 1284.98 37.1711 Q1281.5 32.4315 1275.54 32.4315 M1275.54 26.1121 Q1285.26 26.1121 1290.81 32.4315 Q1296.36 38.7509 1296.36 49.9314 Q1296.36 61.0714 1290.81 67.4314 Q1285.26 73.7508 1275.54 73.7508 Q1265.78 73.7508 1260.23 67.4314 Q1254.72 61.0714 1254.72 49.9314 Q1254.72 38.7509 1260.23 32.4315 Q1265.78 26.1121 1275.54 26.1121 Z" fill="#000000" fill-rule="nonzero" fill-opacity="1" /><path clip-path="url(#clip140)" d="M1344.04 35.9153 Q1346.84 30.8922 1350.73 28.5022 Q1354.62 26.1121 1359.88 26.1121 Q1366.97 26.1121 1370.82 31.0947 Q1374.67 36.0368 1374.67 45.1919 L1374.67 72.576 L1367.17 72.576 L1367.17 45.4349 Q1367.17 38.913 1364.86 35.7533 Q1362.55 32.5936 1357.82 32.5936 Q1352.02 32.5936 1348.66 36.4419 Q1345.3 40.2903 1345.3 46.9338 L1345.3 72.576 L1337.8 72.576 L1337.8 45.4349 Q1337.8 38.8725 1335.49 35.7533 Q1333.19 32.5936 1328.37 32.5936 Q1322.65 32.5936 1319.29 36.4824 Q1315.93 40.3308 1315.93 46.9338 L1315.93 72.576 L1308.43 72.576 L1308.43 27.2059 L1315.93 27.2059 L1315.93 34.2544 Q1318.48 30.082 1322.05 28.0971 Q1325.61 26.1121 1330.51 26.1121 Q1335.45 26.1121 1338.9 28.6237 Q1342.38 31.1352 1344.04 35.9153 Z" fill="#000000" fill-rule="nonzero" fill-opacity="1" /><path clip-path="url(#clip140)" d="M1396.74 65.7705 L1396.74 89.8329 L1389.25 89.8329 L1389.25 27.2059 L1396.74 27.2059 L1396.74 34.0924 Q1399.09 30.0415 1402.66 28.0971 Q1406.26 26.1121 1411.25 26.1121 Q1419.51 26.1121 1424.66 32.6746 Q1429.84 39.2371 1429.84 49.9314 Q1429.84 60.6258 1424.66 67.1883 Q1419.51 73.7508 1411.25 73.7508 Q1406.26 73.7508 1402.66 71.8063 Q1399.09 69.8214 1396.74 65.7705 M1422.1 49.9314 Q1422.1 41.7081 1418.7 37.0496 Q1415.34 32.3505 1409.42 32.3505 Q1403.51 32.3505 1400.11 37.0496 Q1396.74 41.7081 1396.74 49.9314 Q1396.74 58.1548 1400.11 62.8538 Q1403.51 67.5124 1409.42 67.5124 Q1415.34 67.5124 1418.7 62.8538 Q1422.1 58.1548 1422.1 49.9314 Z" fill="#000000" fill-rule="nonzero" fill-opacity="1" /><path clip-path="url(#clip140)" d="M1462.81 49.7694 Q1453.78 49.7694 1450.3 51.8354 Q1446.81 53.9013 1446.81 58.8839 Q1446.81 62.8538 1449.41 65.2034 Q1452.04 67.5124 1456.54 67.5124 Q1462.73 67.5124 1466.46 63.1374 Q1470.23 58.7219 1470.23 51.4303 L1470.23 49.7694 L1462.81 49.7694 M1477.68 46.6907 L1477.68 72.576 L1470.23 72.576 L1470.23 65.6895 Q1467.68 69.8214 1463.87 71.8063 Q1460.06 73.7508 1454.55 73.7508 Q1447.58 73.7508 1443.45 69.8619 Q1439.36 65.9325 1439.36 59.3701 Q1439.36 51.7138 1444.46 47.825 Q1449.61 43.9361 1459.78 43.9361 L1470.23 43.9361 L1470.23 43.2069 Q1470.23 38.0623 1466.83 35.2672 Q1463.46 32.4315 1457.35 32.4315 Q1453.46 32.4315 1449.77 33.3632 Q1446.08 34.295 1442.68 36.1584 L1442.68 29.2718 Q1446.77 27.692 1450.62 26.9223 Q1454.47 26.1121 1458.12 26.1121 Q1467.96 26.1121 1472.82 31.2163 Q1477.68 36.3204 1477.68 46.6907 Z" fill="#000000" fill-rule="nonzero" fill-opacity="1" /><path clip-path="url(#clip140)" d="M1519.32 34.1734 Q1518.07 33.4443 1516.57 33.1202 Q1515.11 32.7556 1513.33 32.7556 Q1507.01 32.7556 1503.61 36.8875 Q1500.25 40.9789 1500.25 48.6757 L1500.25 72.576 L1492.75 72.576 L1492.75 27.2059 L1500.25 27.2059 L1500.25 34.2544 Q1502.59 30.1225 1506.36 28.1376 Q1510.13 26.1121 1515.52 26.1121 Q1516.29 26.1121 1517.22 26.2337 Q1518.15 26.3147 1519.28 26.5172 L1519.32 34.1734 Z" fill="#000000" fill-rule="nonzero" fill-opacity="1" /><path clip-path="url(#clip140)" d="M1527.14 27.2059 L1534.6 27.2059 L1534.6 72.576 L1527.14 72.576 L1527.14 27.2059 M1527.14 9.54393 L1534.6 9.54393 L1534.6 18.9825 L1527.14 18.9825 L1527.14 9.54393 Z" fill="#000000" fill-rule="nonzero" fill-opacity="1" /><path clip-path="url(#clip140)" d="M1579.12 28.5427 L1579.12 35.5912 Q1575.96 33.9709 1572.55 33.1607 Q1569.15 32.3505 1565.51 32.3505 Q1559.96 32.3505 1557.16 34.0519 Q1554.41 35.7533 1554.41 39.156 Q1554.41 41.7486 1556.39 43.2475 Q1558.38 44.7058 1564.37 46.0426 L1566.92 46.6097 Q1574.86 48.3111 1578.18 51.4303 Q1581.55 54.509 1581.55 60.0587 Q1581.55 66.3781 1576.52 70.0644 Q1571.54 73.7508 1562.79 73.7508 Q1559.15 73.7508 1555.18 73.0216 Q1551.25 72.3329 1546.87 70.9151 L1546.87 63.2184 Q1551 65.3654 1555.01 66.4591 Q1559.02 67.5124 1562.95 67.5124 Q1568.22 67.5124 1571.05 65.73 Q1573.89 63.9071 1573.89 60.6258 Q1573.89 57.5877 1571.82 55.9673 Q1569.8 54.3469 1562.87 52.8481 L1560.28 52.2405 Q1553.35 50.7821 1550.27 47.7845 Q1547.2 44.7463 1547.2 39.4801 Q1547.2 33.0797 1551.73 29.5959 Q1556.27 26.1121 1564.61 26.1121 Q1568.75 26.1121 1572.39 26.7198 Q1576.04 27.3274 1579.12 28.5427 Z" fill="#000000" fill-rule="nonzero" fill-opacity="1" /><path clip-path="url(#clip140)" d="M1611 32.4315 Q1605 32.4315 1601.52 37.1306 Q1598.03 41.7891 1598.03 49.9314 Q1598.03 58.0738 1601.48 62.7728 Q1604.96 67.4314 1611 67.4314 Q1616.95 67.4314 1620.44 62.7323 Q1623.92 58.0333 1623.92 49.9314 Q1623.92 41.8701 1620.44 37.1711 Q1616.95 32.4315 1611 32.4315 M1611 26.1121 Q1620.72 26.1121 1626.27 32.4315 Q1631.82 38.7509 1631.82 49.9314 Q1631.82 61.0714 1626.27 67.4314 Q1620.72 73.7508 1611 73.7508 Q1601.23 73.7508 1595.68 67.4314 Q1590.18 61.0714 1590.18 49.9314 Q1590.18 38.7509 1595.68 32.4315 Q1601.23 26.1121 1611 26.1121 Z" fill="#000000" fill-rule="nonzero" fill-opacity="1" /><path clip-path="url(#clip140)" d="M1681.89 45.1919 L1681.89 72.576 L1674.43 72.576 L1674.43 45.4349 Q1674.43 38.994 1671.92 35.7938 Q1669.41 32.5936 1664.39 32.5936 Q1658.35 32.5936 1654.87 36.4419 Q1651.38 40.2903 1651.38 46.9338 L1651.38 72.576 L1643.89 72.576 L1643.89 27.2059 L1651.38 27.2059 L1651.38 34.2544 Q1654.06 30.163 1657.66 28.1376 Q1661.31 26.1121 1666.05 26.1121 Q1673.87 26.1121 1677.88 30.9732 Q1681.89 35.7938 1681.89 45.1919 Z" fill="#000000" fill-rule="nonzero" fill-opacity="1" /><polyline clip-path="url(#clip142)" style="stroke:#009af9; stroke-linecap:round; stroke-linejoin:round; stroke-width:4; stroke-opacity:1; fill:none" points="287.366,861.553 294.089,861.562 300.813,861.581 362.98,861.586 425.148,861.587 462.508,862.053 499.868,861.806 531.456,862.436 563.043,864.125 571.622,862.584 580.2,862.184 588.778,862.178 597.356,862.533 605.934,863.761 614.513,868.624 616.657,871.086 618.802,873.446 620.946,874.26 623.091,872.848 627.38,868.141 631.669,865.442 639.577,863.561 647.486,862.474 655.394,862.127 663.303,862.083 671.211,862.249 679.119,862.706 687.028,863.816 694.936,867.058 697.056,868.88 699.175,871.447 701.295,874.816 703.415,878.355 705.534,880.254 707.654,879.074 709.774,875.921 711.893,872.731 716.133,868.708 720.372,867.111 724.611,866.801 728.85,867.301 733.09,868.516 737.329,870.575 741.568,873.835 745.808,878.996 747.927,882.672 750.047,887.413 752.167,893.61 754.286,901.834 755.346,906.959 756.406,912.942 757.466,919.961 758.526,928.238 759.585,938.049 760.645,949.739 761.705,963.738 762.765,980.578 763.379,991.882 763.993,1004.5 764.607,1018.59 765.221,1034.31 765.835,1051.84 766.449,1071.36 767.063,1093 767.677,1116.88 768.291,1143.03 768.904,1171.37 769.518,1201.64 770.132,1233.33 770.746,1265.62 771.36,1297.34 771.974,1326.92 772.588,1352.5 773.202,1372.09 773.816,1383.85 774.43,1386.4 775.044,1379.08 775.658,1362.14 776.272,1336.62 776.886,1304.15 777.5,1266.62 778.114,1225.9 778.728,1183.59 779.342,1140.94 779.956,1098.81 780.57,1057.71 781.184,1017.88 781.798,979.315 782.412,941.889 783.639,869.385 784.867,797.698 785.481,761.196 786.095,723.729 786.709,684.922 787.323,644.437 787.937,602.004 788.551,557.464 789.165,510.821 789.779,462.32 790.393,412.529 791.007,362.423 791.621,313.451 792.235,267.531 792.849,226.958 793.463,194.169 794.077,171.396 794.691,160.256 795.305,161.414 795.919,174.427 796.532,197.835 797.146,229.469 797.76,266.847 798.374,307.55 798.988,349.482 799.602,391.002 800.216,430.939 800.83,468.544 801.444,503.404 802.058,535.353 802.672,564.399 803.286,590.658 803.9,614.31 804.514,635.564 805.128,654.643 805.742,671.762 806.356,687.128 806.97,700.931 807.584,713.343 808.198,724.52 808.812,734.601 809.426,743.707 810.653,759.419 811.881,772.376 813.109,783.14 814.337,792.142 815.565,799.721 816.793,806.142 819.249,816.298 821.705,823.814 824.161,829.467 826.616,833.768 829.072,837.063 831.528,839.586 836.44,842.915 841.351,844.506 845.716,844.65 850.081,843.437 852.264,842.155 854.446,840.242 856.628,837.468 858.811,833.465 860.993,827.656 863.176,819.148 864.267,813.499 865.358,806.684 866.449,798.549 867.541,789.043 868.632,778.358 869.723,767.122 870.814,756.586 871.906,748.564 872.451,746.098 872.997,744.908 873.542,745.083 874.088,746.609 875.179,753.196 876.27,763.033 878.453,785.207 880.635,803.871 881.727,811.176 882.818,817.25 883.909,822.269 885,826.407 887.183,832.645 889.365,836.92 891.548,839.85 893.73,841.817 898.095,843.649 902.46,843.011 904.642,841.581 906.825,839.235 909.007,836.171 911.19,833.587 913.103,833.228 915.017,834.866 916.931,837.284 918.845,839.386 922.672,841.537 926.5,841.421 930.328,839.579 934.155,835.933 936.069,833.23 937.983,829.721 939.897,825.139 941.811,819.089 942.767,815.345 943.724,811.01 944.681,805.989 945.638,800.184 947.552,785.954 949.466,768.573 950.423,759.433 951.38,750.796 952.336,743.38 953.293,737.681 955.207,730.905 957.121,725.113 958.078,720.327 959.035,713.398 959.992,703.907 960.949,691.624 961.905,676.566 962.862,659.159 963.819,640.467 964.776,622.377 965.255,614.369 965.733,607.546 966.212,602.271 966.69,598.861 967.168,597.547 967.647,598.446 968.125,601.546 968.604,606.707 969.082,613.684 969.561,622.154 970.039,631.756 970.518,642.127 971.475,663.866 972.431,685.235 973.475,706.607 974.518,725.256 975.561,741.059 976.605,754.211 977.648,765.03 978.691,773.852 979.734,780.982 980.778,786.677 981.821,791.143 982.864,794.54 983.908,796.984 984.951,798.553 985.994,799.294 987.037,799.222 988.081,798.33 989.124,796.594 991.211,790.5 993.297,781.277 995.384,771.226 997.47,764.459 999.557,761.616 1001.64,757.641 1002.69,753.485 1003.73,747.291 1004.77,738.853 1005.82,728.192 1006.86,715.692 1007.9,702.304 1008.95,689.698 1009.99,680.137 1010.51,677.216 1011.03,675.821 1011.55,676.051 1012.08,677.89 1012.6,681.21 1013.12,685.792 1013.64,691.361 1014.16,697.615 1015.21,711.047 1016.25,724.207 1017.29,735.934 1018.34,745.689 1019.38,753.33 1020.42,758.908 1021.47,762.544 1022.51,764.353 1023.55,764.412 1024.6,762.737 1025.64,759.286 1026.68,753.951 1027.73,746.574 1028.77,736.964 1029.81,724.949 1030.86,710.481 1031.9,693.799 1032.94,675.668 1033.99,657.587 1035.03,641.741 1035.55,635.405 1036.07,630.463 1036.59,627.07 1037.11,625.276 1037.64,625.026 1038.16,626.168 1038.68,628.483 1039.2,631.711 1040.25,639.868 1041.3,648.533 1042.35,656.036 1043.4,661.281 1044.45,663.836 1045.5,663.915 1046.55,662.214 1047.6,659.575 1049.7,653.264 1051.8,644.744 1052.84,639.838 1053.89,636.069 1054.42,635.249 1054.94,635.491 1055.47,637.001 1055.99,639.899 1056.52,644.194 1057.04,649.783 1057.57,656.471 1058.09,663.997 1059.14,680.412 1060.19,696.903 1061.24,711.958 1062.29,724.769 1063.34,735.039 1064.39,742.757 1065.44,748.028 1066.49,750.981 1067.54,751.736 1068.59,750.427 1070.69,742.58 1072.79,731.295 1073.83,726.313 1074.88,722.601 1075.93,720.323 1076.98,719.472 1078.03,720.219 1079.08,723.009 1080.13,728.263 1081.18,735.958 1083.28,755.917 1085.38,775.908 1086.43,784.431 1087.48,791.743 1088.53,797.884 1089.58,802.967 1091.68,810.479 1093.77,815.183 1095.87,817.672 1097.97,818.226 1100.07,816.903 1102.17,813.76 1103.22,811.638 1104.27,809.34 1105.32,807.082 1106.37,805.072 1108.69,801.769 1111.01,798.79 1112.17,796.809 1113.33,794.228 1114.49,790.837 1115.65,786.429 1116.81,780.884 1117.97,774.206 1119.13,766.494 1120.29,757.87 1121.45,748.442 1122.61,738.36 1123.77,728.018 1124.93,718.31 1125.51,714.155 1126.09,710.778 1126.67,708.419 1127.25,707.284 1127.83,707.502 1128.41,709.104 1129,712.002 1129.58,716.012 1130.74,726.305 1131.9,737.775 1133.06,748.699 1134.22,758.234 1135.38,766.272 1136.54,773.09 1137.7,778.984 1138.86,784.067 1140.02,788.26 1141.18,791.424 1142.34,793.474 1143.5,794.439 1145.82,793.697 1148.14,790.33 1149.3,787.627 1150.46,784.027 1151.62,779.327 1152.78,773.37 1153.94,766.19 1155.1,758.2 1156.26,750.323 1157.42,743.908 1158,741.694 1158.58,740.324 1159.16,739.863 1159.74,740.303 1160.9,743.492 1162.06,748.635 1163.23,754.234 1164.39,759.06 1165.55,762.305 1166.71,763.535 1167.87,762.649 1169.03,759.898 1170.19,755.997 1171.35,752.194 1172.51,750.07 1173.67,750.898 1174.83,754.915 1175.99,761.203 1177.15,768.32 1178.31,775.028 1179.47,780.611 1180.63,784.82 1181.73,787.581 1182.84,789.245 1183.94,789.886 1185.05,789.49 1186.15,787.955 1187.25,785.129 1188.36,780.84 1189.46,774.926 1190.57,767.275 1191.67,757.924 1192.77,747.221 1193.88,736.029 1194.98,725.854 1196.09,718.615 1196.64,716.634 1197.19,715.904 1197.74,716.423 1198.29,718.085 1200.5,731.787 1202.71,745.925 1203.81,750.509 1204.92,753.11 1206.02,753.76 1207.13,752.481 1208.23,749.273 1209.33,744.26 1210.44,737.919 1211.54,731.273 1212.65,725.856 1213.75,723.263 1214.3,723.348 1214.86,724.376 1215.41,726.259 1215.96,728.843 1217.06,735.326 1218.17,742.234 1219.27,748.305 1220.38,752.736 1221.48,755.071 1222.58,755.066 1223.69,752.624 1224.79,747.815 1227,732.756 1229.21,717.15 1229.76,714.461 1230.31,712.559 1230.86,711.53 1231.42,711.423 1231.97,712.254 1232.52,714.013 1233.07,716.67 1233.62,720.169 1234.73,729.334 1235.83,740.512 1236.94,752.457 1238.04,764.062 1239.14,774.602 1240.25,783.742 1241.35,791.413 1242.46,797.702 1243.56,802.758 1244.66,806.745 1245.77,809.815 1246.87,812.089 1249.08,814.581 1251.29,814.567 1253.58,812.196 1255.88,809.219 1258.18,809.018 1260.47,812.35 1262.77,817.314 1265.06,822.555 1267.36,826.711 1269.66,829.066 1274.25,830.963 1278.84,833.233 1283.43,831.586 1288.02,830.567 1290.32,832.398 1292.61,834.204 1294.91,834.634 1297.21,833.191 1299.5,829.907 1301.8,825.589 1304.09,821.35 1306.39,818.306 1308.69,818.478 1310.98,821.637 1313.28,825.042 1315.57,827.752 1320.16,833.761 1324.76,838.896 1332.49,846.587 1340.22,850.65 1347.95,850.659 1355.68,850.263 1363.41,850.033 1371.14,848.876 1375,847.819 1378.87,844.302 1380.8,841.967 1382.74,840.356 1384.67,840.616 1386.6,842.72 1391.32,849.162 1396.04,852.806 1400.76,853.81 1405.48,853.151 1414.91,853.022 1424.35,851.877 1443.23,855.475 1462.11,856.438 1479.4,856.054 1496.69,855.519 1501.01,853.895 1505.34,853.219 1509.66,853.997 1513.98,855.521 1522.63,857.478 1531.27,858.586 1595.15,858.853 1659.86,860.379 1732.39,860.197 1798.1,859.209 1816.91,858.03 1835.72,856.231 1845.13,854.096 1854.53,849.894 1856.88,848.224 1859.24,845.963 1861.59,842.812 1863.94,838.341 1866.29,832.026 1868.64,823.803 1869.82,819.476 1870.99,815.68 1872.17,813.04 1873.34,811.92 1875.52,813.249 1877.7,816.399 1879.87,818.875 1882.05,819.237 1884.23,816.824 1886.41,811.307 1888.58,802.521 1890.76,791.119 1892.94,779.199 1895.11,767.535 1896.2,760.737 1897.29,752.415 1898.38,742.096 1899.47,729.656 1900.56,715.49 1901.64,700.667 1902.73,686.934 1903.82,676.299 1904.37,672.641 1904.91,670.211 1905.45,668.987 1906,668.867 1907.09,671.265 1908.18,675.862 1909.26,681.128 1910.35,685.688 1911.44,688.31 1912.53,687.986 1913.07,686.5 1913.62,684.072 1914.16,680.7 1914.71,676.423 1915.8,665.545 1916.88,652.794 1917.97,640.457 1919.06,631.357 1919.61,628.798 1920.15,627.796 1920.69,628.36 1921.24,630.364 1922.33,637.704 1923.42,647.547 1924.5,658.081 1925.59,668.639 1927.77,690.901 1929.95,714.45 1931.04,724.92 1932.12,733.581 1933.21,740.218 1934.3,745.013 1936.48,750.772 1938.65,753.122 1939.74,752.752 1940.83,751.132 1941.92,748.481 1943.01,745.513 1944.08,743.411 1945.16,743.353 1946.23,746.107 1947.3,751.568 1948.37,758.841 1949.45,766.742 1950.52,774.303 1951.59,780.994 1953.74,791.585 1955.89,799.781 1958.03,806.272 1960.18,810.715 1964.47,817.588 1968.76,823.399 1970.91,824.178 1973.06,825.006 1975.2,827.235 1977.35,830.091 1979.5,832.159 1981.64,833.037 1983.79,832.962 1985.94,832.763 1988.08,833.879 1990.23,836.803 1992.37,840.371 1994.52,843.357 1996.67,845.371 1998.81,846.458 2000.96,846.703 2003.11,846.105 2005.25,844.58 2007.4,842.061 2009.55,838.763 2011.69,835.542 2013.78,833.931 2015.86,834.902 2017.94,837.927 2020.03,841.565 2024.19,846.772 2028.36,849.125 2032.53,851.176 2036.7,852.493 2040.87,852.389 2045.03,851.745 2061.71,853.592 2078.38,854.07 2146.74,859.221 2221.63,860.636 2330.44,860.788 2352.76,860.941 "/>
<polyline clip-path="url(#clip142)" style="stroke:#e26f46; stroke-linecap:round; stroke-linejoin:round; stroke-width:4; stroke-opacity:1; fill:none" points="287.366,861.45 300.813,861.441 425.148,861.333 499.868,861.268 563.043,861.307 597.356,861.028 631.669,861.444 647.486,860.947 663.303,860.801 671.211,860.862 679.119,861.064 687.028,861.627 694.936,863.426 697.056,864.47 699.175,865.953 701.295,867.909 703.415,869.964 705.534,871.04 707.654,870.28 709.774,868.342 711.893,866.377 716.133,863.831 720.372,862.698 724.611,862.292 728.85,862.317 733.09,862.697 737.329,863.479 741.568,864.827 745.808,867.075 747.927,868.722 750.047,870.882 752.167,873.745 754.286,877.594 755.346,880.012 756.406,882.851 757.466,886.198 758.526,890.162 759.585,894.883 760.645,900.53 761.705,907.317 762.765,915.51 763.379,921.023 763.993,927.186 764.607,934.079 765.221,941.783 765.835,950.386 766.449,959.971 767.063,970.612 767.677,982.363 768.291,995.24 768.904,1009.2 769.518,1024.11 770.132,1039.72 770.746,1055.61 771.36,1071.19 771.974,1085.67 772.588,1098.13 773.202,1107.55 773.816,1113.01 774.43,1113.81 775.044,1109.64 775.658,1100.58 776.272,1087.18 776.886,1070.25 777.5,1050.72 778.114,1029.52 778.728,1007.46 779.342,985.152 779.956,963.017 781.184,920.117 782.412,879.211 783.639,839.436 784.867,799.296 785.481,778.548 786.095,757.051 786.709,734.592 787.323,710.982 787.937,686.068 788.551,659.766 789.165,632.089 789.779,603.197 790.393,573.445 791.007,543.437 791.621,514.064 792.235,486.506 792.849,462.17 793.463,442.55 794.077,429.014 794.691,422.554 795.305,423.58 795.919,431.823 796.532,446.394 797.146,465.969 797.76,489.034 798.374,514.111 798.988,539.921 799.602,565.463 800.216,590.022 800.83,613.142 801.444,634.57 802.058,654.208 802.672,672.059 803.286,688.196 803.9,702.73 804.514,715.788 805.128,727.508 805.742,738.022 806.356,747.457 806.97,755.928 807.584,763.542 808.198,770.394 808.812,776.569 809.426,782.142 810.04,787.179 810.653,791.74 811.267,795.876 811.881,799.631 813.109,806.159 814.337,811.587 815.565,816.125 816.793,819.933 818.021,823.138 819.249,825.842 820.477,828.124 821.705,830.048 824.161,833.017 826.616,835.052 829.072,836.345 831.528,837.019 833.984,837.141 836.44,836.738 838.895,835.797 841.351,834.266 843.534,832.329 845.716,829.736 847.899,826.319 850.081,821.835 851.172,819.086 852.264,815.921 853.355,812.269 854.446,808.036 855.537,803.111 856.628,797.352 857.72,790.584 858.811,782.587 859.356,778.044 859.902,773.085 860.448,767.665 860.993,761.735 861.539,755.238 862.085,748.114 862.63,740.296 863.176,731.712 863.721,722.287 864.267,711.942 864.813,700.599 865.358,688.183 865.904,674.634 866.449,659.908 866.995,643.996 867.541,626.94 868.632,589.935 869.723,551.055 870.269,532.165 870.814,514.59 871.36,499.173 871.906,486.777 872.451,478.182 872.997,473.979 873.542,474.465 874.088,479.598 874.634,488.997 875.179,502.017 875.725,517.843 876.27,535.61 877.362,573.779 878.453,611.405 878.998,629.025 879.544,645.573 880.09,660.957 880.635,675.148 881.181,688.165 881.727,700.056 882.272,710.886 882.818,720.73 883.363,729.666 883.909,737.771 884.455,745.12 885,751.782 885.546,757.822 886.091,763.298 886.637,768.263 887.183,772.766 887.728,776.848 888.274,780.549 888.819,783.902 889.365,786.937 890.456,792.156 891.548,796.382 892.639,799.749 893.73,802.359 894.821,804.283 895.912,805.567 897.004,806.234 898.095,806.285 899.186,805.701 900.277,804.437 901.369,802.424 902.46,799.57 903.551,795.76 904.642,790.868 905.733,784.782 906.825,777.464 907.916,769.045 909.007,759.963 910.098,751.067 911.19,743.542 911.668,740.975 912.146,738.954 912.625,737.501 913.103,736.599 914.06,736.18 915.017,736.886 915.974,737.702 916.931,737.729 917.888,736.353 918.845,733.307 919.802,728.691 920.759,723.009 921.716,717.201 922.672,712.577 923.151,711.152 923.629,710.525 924.108,710.802 924.586,712.036 925.065,714.216 925.543,717.276 926.022,721.098 926.5,725.533 927.457,735.585 928.414,746.185 929.371,756.388 930.328,765.632 931.285,773.667 932.241,780.447 933.198,786.034 934.155,790.536 935.112,794.071 936.069,796.744 937.026,798.647 937.983,799.847 938.94,800.393 939.897,800.312 940.854,799.613 941.811,798.285 942.767,796.3 943.724,793.612 944.681,790.161 945.638,785.874 946.595,780.678 947.552,774.514 948.509,767.359 949.466,759.257 950.423,750.331 951.38,740.753 952.336,730.665 953.293,720.076 954.25,708.826 955.207,696.69 956.164,683.568 957.121,669.636 958.078,655.348 959.035,641.258 959.992,627.829 960.949,615.449 961.427,609.823 961.905,604.725 962.384,600.32 962.862,596.807 963.341,594.405 963.819,593.326 964.298,593.748 964.776,595.786 965.255,599.471 965.733,604.742 966.212,611.452 966.69,619.386 967.647,637.875 968.604,658.058 969.561,678.11 970.518,696.797 970.996,705.405 971.475,713.462 971.953,720.952 972.431,727.875 972.953,734.79 973.475,741.069 973.996,746.745 974.518,751.852 975.04,756.427 975.561,760.507 976.083,764.125 976.605,767.313 977.648,772.51 978.691,776.288 979.734,778.786 980.778,780.096 981.821,780.261 982.864,779.28 983.908,777.106 984.951,773.646 985.994,768.76 987.037,762.257 987.559,758.33 988.081,753.91 988.602,748.966 989.124,743.468 989.646,737.391 990.167,730.718 990.689,723.445 991.211,715.587 992.254,698.33 993.297,679.809 993.819,670.576 994.34,661.751 994.862,653.688 995.384,646.769 995.905,641.361 996.427,637.779 996.949,636.235 997.47,636.81 997.992,639.437 998.514,643.912 999.035,649.926 999.557,657.107 1000.6,673.439 1001.64,690.183 1002.17,698.091 1002.69,705.478 1003.21,712.251 1003.73,718.354 1004.25,723.763 1004.77,728.48 1005.29,732.523 1005.82,735.926 1006.86,741.016 1007.9,744.283 1008.95,746.469 1009.99,748.459 1011.03,751.086 1012.08,754.83 1013.12,759.638 1014.16,765.025 1015.21,770.366 1016.25,775.143 1017.29,779.037 1018.34,781.899 1019.38,783.683 1020.42,784.389 1021.47,784.02 1022.51,782.569 1023.55,780 1024.6,776.257 1025.64,771.255 1026.68,764.888 1027.73,757.016 1028.77,747.466 1029.29,742 1029.81,736.043 1030.33,729.58 1030.86,722.611 1031.9,707.259 1032.94,690.54 1033.99,673.713 1035.03,658.784 1035.55,652.77 1036.07,648.085 1036.59,644.917 1037.11,643.351 1037.64,643.357 1038.16,644.792 1038.68,647.424 1039.2,650.96 1040.25,659.547 1041.3,668.178 1041.83,671.94 1042.35,675.129 1042.87,677.647 1043.4,679.442 1043.92,680.496 1044.45,680.828 1044.97,680.484 1045.5,679.53 1046.55,676.139 1047.6,671.343 1048.65,665.639 1049.7,659.162 1050.75,651.792 1051.8,643.537 1052.84,635.002 1053.89,627.672 1054.42,625.112 1054.94,623.642 1055.47,623.469 1055.99,624.705 1056.52,627.352 1057.04,631.297 1057.57,636.332 1058.09,642.185 1059.14,655.168 1060.19,668.139 1060.72,674.157 1061.24,679.726 1061.77,684.797 1062.29,689.356 1062.81,693.406 1063.34,696.956 1063.86,700.017 1064.39,702.591 1064.91,704.678 1065.44,706.273 1065.96,707.377 1066.49,708.002 1067.54,707.934 1068.59,706.509 1070.69,702.305 1072.79,699.495 1074.88,697.727 1076.98,695.008 1078.03,693.689 1079.08,693.535 1079.61,694.253 1080.13,695.661 1080.66,697.828 1081.18,700.771 1081.71,704.451 1082.23,708.778 1082.76,713.626 1083.28,718.852 1084.33,729.857 1085.38,740.778 1086.43,750.91 1087.48,759.836 1088.53,767.356 1089.58,773.413 1090.63,778.038 1091.68,781.297 1092.73,783.268 1093.77,784.013 1094.82,783.584 1095.87,782.027 1096.92,779.389 1097.97,775.728 1099.02,771.113 1100.07,765.643 1101.12,759.51 1102.17,753.098 1103.22,747.028 1104.27,742.035 1104.79,740.134 1105.32,738.681 1105.84,737.672 1106.37,737.067 1108.69,737.296 1111.01,737.829 1112.17,737.47 1113.33,736.671 1114.49,735.196 1115.65,732.601 1116.23,730.751 1116.81,728.492 1117.39,725.826 1117.97,722.775 1119.13,715.719 1120.29,707.84 1121.45,699.701 1122.61,691.762 1123.77,684.42 1124.93,678.258 1125.51,675.911 1126.09,674.251 1126.67,673.428 1127.25,673.559 1127.83,674.702 1128.41,676.841 1129,679.881 1129.58,683.669 1131.9,702.663 1134.22,721.091 1134.8,724.896 1135.38,728.25 1135.96,731.112 1136.54,733.457 1137.12,735.274 1137.7,736.568 1138.28,737.354 1138.86,737.668 1140.02,737.11 1141.18,735.593 1141.76,734.803 1142.34,734.205 1142.92,733.965 1143.5,734.226 1144.08,735.096 1144.66,736.628 1145.24,738.813 1145.82,741.585 1146.98,748.437 1148.14,756.115 1149.3,763.615 1150.46,770.241 1151.62,775.597 1152.78,779.486 1153.94,781.83 1155.1,782.663 1156.26,782.131 1157.42,780.501 1159.74,775.425 1162.06,770.675 1163.23,769.226 1164.39,768.285 1165.55,767.277 1166.71,765.485 1167.87,762.387 1169.03,757.918 1170.19,752.661 1171.35,747.922 1171.93,746.299 1172.51,745.464 1173.09,745.582 1173.67,746.731 1174.25,748.899 1174.83,751.976 1175.41,755.786 1175.99,760.114 1177.15,769.453 1178.31,778.542 1179.47,786.523 1180.63,793.07 1181.73,797.967 1182.84,801.684 1183.94,804.367 1185.05,806.141 1186.15,807.098 1187.25,807.285 1188.36,806.694 1189.46,805.263 1190.57,802.922 1191.67,799.665 1192.77,795.642 1193.88,791.257 1194.98,787.216 1196.09,784.394 1196.64,783.679 1197.19,783.493 1197.74,783.832 1198.29,784.644 1199.4,787.319 1200.5,790.661 1201.61,793.922 1202.71,796.723 1204.92,801.223 1207.13,805.723 1209.33,809.837 1211.54,811.961 1213.75,812.312 1215.96,812.159 1220.38,813.235 1224.79,814.994 1227,813.848 1229.21,812.359 1230.31,812.069 1231.42,812.386 1232.52,813.476 1233.62,815.416 1234.73,818.136 1235.83,821.396 1236.94,824.871 1238.04,828.277 1240.25,834.237 1242.46,838.713 1244.66,841.792 1246.87,843.813 1249.08,845.127 1251.29,845.989 1260.47,848.057 1269.66,849.005 1274.25,850.158 1278.84,852.344 1283.43,853.244 1288.02,853.003 1297.21,853.486 1306.39,853.055 1310.98,853.166 1315.57,852.805 1320.16,853.763 1324.76,855.408 1340.22,856.699 1355.68,857.406 1371.14,856.804 1386.6,856.551 1462.11,858.991 1531.27,860.533 1595.15,860.909 1659.86,860.98 1696.12,860.945 1732.39,860.793 1765.24,860.365 1798.1,859.7 1816.91,858.552 1835.72,856.088 1840.42,854.838 1845.13,853.034 1849.83,850.304 1854.53,845.961 1855.71,844.457 1856.88,842.706 1858.06,840.653 1859.24,838.228 1860.41,835.344 1861.59,831.891 1862.76,827.737 1863.94,822.726 1865.11,816.691 1866.29,809.488 1867.46,801.077 1868.64,791.646 1869.82,781.776 1870.99,772.501 1871.58,768.484 1872.17,765.08 1872.75,762.395 1873.34,760.49 1873.89,759.432 1874.43,759.034 1874.98,759.251 1875.52,760.021 1876.61,762.901 1877.7,766.918 1878.79,771.185 1879.87,774.848 1880.96,777.26 1882.05,778.055 1883.14,777.165 1884.23,774.811 1885.32,771.51 1886.41,768.013 1887.49,765.096 1888.58,763.257 1889.67,762.558 1890.76,762.802 1891.85,763.834 1892.94,765.611 1894.02,767.992 1895.11,770.543 1896.2,772.605 1897.29,773.521 1897.83,773.395 1898.38,772.831 1898.92,771.815 1899.47,770.354 1900.56,766.226 1901.64,760.949 1902.73,755.4 1903.82,750.69 1904.37,748.984 1904.91,747.841 1905.45,747.32 1906,747.443 1906.54,748.208 1907.09,749.591 1907.63,751.561 1908.18,754.076 1909.26,760.537 1910.35,768.42 1911.44,776.959 1912.53,785.35 1913.62,792.968 1914.71,799.468 1915.8,804.759 1916.88,808.913 1917.97,812.081 1919.06,814.422 1920.15,816.046 1921.24,817.011 1923.42,817.252 1925.59,816.774 1926.68,817.24 1927.77,818.579 1928.86,820.741 1929.95,823.416 1932.12,828.847 1934.3,833.125 1936.48,836.184 1938.65,838.353 1940.83,839.763 1943.01,840.444 1947.3,840.309 1951.59,838.6 1953.74,837.867 1955.89,838.575 1958.03,840.375 1960.18,841.941 1964.47,843.281 1968.76,844.276 1973.06,844.097 1977.35,843.883 1979.5,844.163 1981.64,845.445 1983.79,847.682 1985.94,849.947 1990.23,852.841 1994.52,854.576 2003.11,856.674 2011.69,857.834 2045.03,859.484 2078.38,860.486 2146.74,861.115 2221.63,861.299 2330.44,861.463 2352.76,861.49 "/>
<polyline clip-path="url(#clip142)" style="stroke:#808080; stroke-linecap:round; stroke-linejoin:round; stroke-width:4; stroke-opacity:1; fill:none" stroke-dasharray="16, 10" points="906.983,2722.89 906.983,-1176.24 "/>
<path clip-path="url(#clip140)" d="M1790.82 374.156 L2283.91 374.156 L2283.91 166.796 L1790.82 166.796  Z" fill="#ffffff" fill-rule="evenodd" fill-opacity="1"/>
<polyline clip-path="url(#clip140)" style="stroke:#000000; stroke-linecap:round; stroke-linejoin:round; stroke-width:4; stroke-opacity:1; fill:none" points="1790.82,374.156 2283.91,374.156 2283.91,166.796 1790.82,166.796 1790.82,374.156 "/>
<polyline clip-path="url(#clip140)" style="stroke:#009af9; stroke-linecap:round; stroke-linejoin:round; stroke-width:4; stroke-opacity:1; fill:none" points="1813.77,218.636 1951.46,218.636 "/>
<path clip-path="url(#clip140)" d="M1979.09 219.411 L1979.09 232.073 L1986.59 232.073 Q1990.36 232.073 1992.17 230.522 Q1993.99 228.948 1993.99 225.731 Q1993.99 222.49 1992.17 220.962 Q1990.36 219.411 1986.59 219.411 L1979.09 219.411 M1979.09 205.198 L1979.09 215.615 L1986.01 215.615 Q1989.43 215.615 1991.1 214.342 Q1992.79 213.045 1992.79 210.407 Q1992.79 207.791 1991.1 206.495 Q1989.43 205.198 1986.01 205.198 L1979.09 205.198 M1974.41 201.356 L1986.36 201.356 Q1991.7 201.356 1994.6 203.578 Q1997.49 205.8 1997.49 209.897 Q1997.49 213.069 1996.01 214.944 Q1994.53 216.819 1991.66 217.282 Q1995.11 218.022 1997 220.383 Q1998.93 222.721 1998.93 226.24 Q1998.93 230.869 1995.78 233.393 Q1992.63 235.916 1986.82 235.916 L1974.41 235.916 L1974.41 201.356 Z" fill="#000000" fill-rule="nonzero" fill-opacity="1" /><path clip-path="url(#clip140)" d="M2006.31 225.684 L2006.31 209.99 L2010.57 209.99 L2010.57 225.522 Q2010.57 229.203 2012 231.055 Q2013.44 232.883 2016.31 232.883 Q2019.76 232.883 2021.75 230.684 Q2023.76 228.485 2023.76 224.689 L2023.76 209.99 L2028.02 209.99 L2028.02 235.916 L2023.76 235.916 L2023.76 231.934 Q2022.21 234.295 2020.15 235.453 Q2018.11 236.587 2015.41 236.587 Q2010.94 236.587 2008.62 233.809 Q2006.31 231.031 2006.31 225.684 M2017.03 209.365 L2017.03 209.365 Z" fill="#000000" fill-rule="nonzero" fill-opacity="1" /><path clip-path="url(#clip140)" d="M2036.8 199.897 L2041.05 199.897 L2041.05 235.916 L2036.8 235.916 L2036.8 199.897 Z" fill="#000000" fill-rule="nonzero" fill-opacity="1" /><path clip-path="url(#clip140)" d="M2049.8 199.897 L2054.09 199.897 L2054.09 221.17 L2066.8 209.99 L2072.23 209.99 L2058.49 222.119 L2072.81 235.916 L2067.26 235.916 L2054.09 223.254 L2054.09 235.916 L2049.8 235.916 L2049.8 199.897 Z" fill="#000000" fill-rule="nonzero" fill-opacity="1" /><polyline clip-path="url(#clip140)" style="stroke:#e26f46; stroke-linecap:round; stroke-linejoin:round; stroke-width:4; stroke-opacity:1; fill:none" points="1813.77,270.476 1951.46,270.476 "/>
<path clip-path="url(#clip140)" d="M1974.41 253.196 L1996.26 253.196 L1996.26 257.131 L1979.09 257.131 L1979.09 267.362 L1995.55 267.362 L1995.55 271.297 L1979.09 271.297 L1979.09 283.821 L1996.68 283.821 L1996.68 287.756 L1974.41 287.756 L1974.41 253.196 Z" fill="#000000" fill-rule="nonzero" fill-opacity="1" /><path clip-path="url(#clip140)" d="M2021.24 265.765 L2021.24 251.737 L2025.5 251.737 L2025.5 287.756 L2021.24 287.756 L2021.24 283.867 Q2019.9 286.182 2017.84 287.316 Q2015.8 288.427 2012.93 288.427 Q2008.23 288.427 2005.27 284.677 Q2002.33 280.927 2002.33 274.816 Q2002.33 268.705 2005.27 264.955 Q2008.23 261.205 2012.93 261.205 Q2015.8 261.205 2017.84 262.339 Q2019.9 263.45 2021.24 265.765 M2006.73 274.816 Q2006.73 279.515 2008.65 282.2 Q2010.59 284.862 2013.97 284.862 Q2017.35 284.862 2019.3 282.2 Q2021.24 279.515 2021.24 274.816 Q2021.24 270.117 2019.3 267.455 Q2017.35 264.77 2013.97 264.77 Q2010.59 264.77 2008.65 267.455 Q2006.73 270.117 2006.73 274.816 Z" fill="#000000" fill-rule="nonzero" fill-opacity="1" /><path clip-path="url(#clip140)" d="M2051.33 274.492 Q2051.33 269.862 2049.41 267.316 Q2047.51 264.77 2044.06 264.77 Q2040.64 264.77 2038.72 267.316 Q2036.82 269.862 2036.82 274.492 Q2036.82 279.098 2038.72 281.645 Q2040.64 284.191 2044.06 284.191 Q2047.51 284.191 2049.41 281.645 Q2051.33 279.098 2051.33 274.492 M2055.59 284.538 Q2055.59 291.158 2052.65 294.376 Q2049.71 297.617 2043.65 297.617 Q2041.4 297.617 2039.41 297.27 Q2037.42 296.945 2035.55 296.251 L2035.55 292.108 Q2037.42 293.126 2039.25 293.612 Q2041.08 294.098 2042.98 294.098 Q2047.17 294.098 2049.25 291.899 Q2051.33 289.723 2051.33 285.302 L2051.33 283.196 Q2050.01 285.487 2047.95 286.621 Q2045.89 287.756 2043.02 287.756 Q2038.25 287.756 2035.34 284.121 Q2032.42 280.487 2032.42 274.492 Q2032.42 268.473 2035.34 264.839 Q2038.25 261.205 2043.02 261.205 Q2045.89 261.205 2047.95 262.339 Q2050.01 263.473 2051.33 265.765 L2051.33 261.83 L2055.59 261.83 L2055.59 284.538 Z" fill="#000000" fill-rule="nonzero" fill-opacity="1" /><path clip-path="url(#clip140)" d="M2086.54 273.728 L2086.54 275.811 L2066.96 275.811 Q2067.23 280.209 2069.6 282.524 Q2071.98 284.816 2076.22 284.816 Q2078.67 284.816 2080.96 284.214 Q2083.28 283.612 2085.55 282.409 L2085.55 286.436 Q2083.25 287.408 2080.85 287.918 Q2078.44 288.427 2075.96 288.427 Q2069.76 288.427 2066.12 284.816 Q2062.51 281.205 2062.51 275.047 Q2062.51 268.682 2065.94 264.955 Q2069.39 261.205 2075.22 261.205 Q2080.45 261.205 2083.48 264.585 Q2086.54 267.941 2086.54 273.728 M2082.28 272.478 Q2082.23 268.983 2080.31 266.899 Q2078.42 264.816 2075.27 264.816 Q2071.7 264.816 2069.55 266.83 Q2067.42 268.844 2067.1 272.501 L2082.28 272.478 Z" fill="#000000" fill-rule="nonzero" fill-opacity="1" /><polyline clip-path="url(#clip140)" style="stroke:#808080; stroke-linecap:round; stroke-linejoin:round; stroke-width:4; stroke-opacity:1; fill:none" stroke-dasharray="16, 10" points="1813.77,322.316 1951.46,322.316 "/>
<path clip-path="url(#clip140)" d="M1974.41 305.036 L1996.26 305.036 L1996.26 308.971 L1979.09 308.971 L1979.09 319.202 L1995.55 319.202 L1995.55 323.137 L1979.09 323.137 L1979.09 335.661 L1996.68 335.661 L1996.68 339.596 L1974.41 339.596 L1974.41 305.036 Z" fill="#000000" fill-rule="nonzero" fill-opacity="1" /><path clip-path="url(#clip140)" d="M2021.24 317.605 L2021.24 303.577 L2025.5 303.577 L2025.5 339.596 L2021.24 339.596 L2021.24 335.707 Q2019.9 338.022 2017.84 339.156 Q2015.8 340.267 2012.93 340.267 Q2008.23 340.267 2005.27 336.517 Q2002.33 332.767 2002.33 326.656 Q2002.33 320.545 2005.27 316.795 Q2008.23 313.045 2012.93 313.045 Q2015.8 313.045 2017.84 314.179 Q2019.9 315.29 2021.24 317.605 M2006.73 326.656 Q2006.73 331.355 2008.65 334.04 Q2010.59 336.702 2013.97 336.702 Q2017.35 336.702 2019.3 334.04 Q2021.24 331.355 2021.24 326.656 Q2021.24 321.957 2019.3 319.295 Q2017.35 316.61 2013.97 316.61 Q2010.59 316.61 2008.65 319.295 Q2006.73 321.957 2006.73 326.656 Z" fill="#000000" fill-rule="nonzero" fill-opacity="1" /><path clip-path="url(#clip140)" d="M2051.33 326.332 Q2051.33 321.702 2049.41 319.156 Q2047.51 316.61 2044.06 316.61 Q2040.64 316.61 2038.72 319.156 Q2036.82 321.702 2036.82 326.332 Q2036.82 330.938 2038.72 333.485 Q2040.64 336.031 2044.06 336.031 Q2047.51 336.031 2049.41 333.485 Q2051.33 330.938 2051.33 326.332 M2055.59 336.378 Q2055.59 342.998 2052.65 346.216 Q2049.71 349.457 2043.65 349.457 Q2041.4 349.457 2039.41 349.11 Q2037.42 348.785 2035.55 348.091 L2035.55 343.948 Q2037.42 344.966 2039.25 345.452 Q2041.08 345.938 2042.98 345.938 Q2047.17 345.938 2049.25 343.739 Q2051.33 341.563 2051.33 337.142 L2051.33 335.036 Q2050.01 337.327 2047.95 338.461 Q2045.89 339.596 2043.02 339.596 Q2038.25 339.596 2035.34 335.961 Q2032.42 332.327 2032.42 326.332 Q2032.42 320.313 2035.34 316.679 Q2038.25 313.045 2043.02 313.045 Q2045.89 313.045 2047.95 314.179 Q2050.01 315.313 2051.33 317.605 L2051.33 313.67 L2055.59 313.67 L2055.59 336.378 Z" fill="#000000" fill-rule="nonzero" fill-opacity="1" /><path clip-path="url(#clip140)" d="M2086.54 325.568 L2086.54 327.651 L2066.96 327.651 Q2067.23 332.049 2069.6 334.364 Q2071.98 336.656 2076.22 336.656 Q2078.67 336.656 2080.96 336.054 Q2083.28 335.452 2085.55 334.249 L2085.55 338.276 Q2083.25 339.248 2080.85 339.758 Q2078.44 340.267 2075.96 340.267 Q2069.76 340.267 2066.12 336.656 Q2062.51 333.045 2062.51 326.887 Q2062.51 320.522 2065.94 316.795 Q2069.39 313.045 2075.22 313.045 Q2080.45 313.045 2083.48 316.425 Q2086.54 319.781 2086.54 325.568 M2082.28 324.318 Q2082.23 320.823 2080.31 318.739 Q2078.42 316.656 2075.27 316.656 Q2071.7 316.656 2069.55 318.67 Q2067.42 320.684 2067.1 324.341 L2082.28 324.318 Z" fill="#000000" fill-rule="nonzero" fill-opacity="1" /><path clip-path="url(#clip140)" d="M2128.79 318.647 Q2130.38 315.776 2132.61 314.411 Q2134.83 313.045 2137.84 313.045 Q2141.89 313.045 2144.09 315.892 Q2146.29 318.716 2146.29 323.948 L2146.29 339.596 L2142 339.596 L2142 324.087 Q2142 320.36 2140.68 318.554 Q2139.36 316.749 2136.66 316.749 Q2133.35 316.749 2131.42 318.948 Q2129.5 321.147 2129.5 324.943 L2129.5 339.596 L2125.22 339.596 L2125.22 324.087 Q2125.22 320.337 2123.9 318.554 Q2122.58 316.749 2119.83 316.749 Q2116.56 316.749 2114.64 318.971 Q2112.72 321.17 2112.72 324.943 L2112.72 339.596 L2108.44 339.596 L2108.44 313.67 L2112.72 313.67 L2112.72 317.698 Q2114.18 315.313 2116.22 314.179 Q2118.25 313.045 2121.05 313.045 Q2123.88 313.045 2125.85 314.48 Q2127.84 315.915 2128.79 318.647 Z" fill="#000000" fill-rule="nonzero" fill-opacity="1" /><path clip-path="url(#clip140)" d="M2164.83 316.656 Q2161.4 316.656 2159.41 319.341 Q2157.42 322.003 2157.42 326.656 Q2157.42 331.309 2159.39 333.994 Q2161.38 336.656 2164.83 336.656 Q2168.23 336.656 2170.22 333.971 Q2172.21 331.286 2172.21 326.656 Q2172.21 322.05 2170.22 319.364 Q2168.23 316.656 2164.83 316.656 M2164.83 313.045 Q2170.38 313.045 2173.55 316.656 Q2176.73 320.267 2176.73 326.656 Q2176.73 333.022 2173.55 336.656 Q2170.38 340.267 2164.83 340.267 Q2159.25 340.267 2156.08 336.656 Q2152.93 333.022 2152.93 326.656 Q2152.93 320.267 2156.08 316.656 Q2159.25 313.045 2164.83 313.045 Z" fill="#000000" fill-rule="nonzero" fill-opacity="1" /><path clip-path="url(#clip140)" d="M2200.85 317.605 L2200.85 303.577 L2205.1 303.577 L2205.1 339.596 L2200.85 339.596 L2200.85 335.707 Q2199.5 338.022 2197.44 339.156 Q2195.41 340.267 2192.54 340.267 Q2187.84 340.267 2184.87 336.517 Q2181.93 332.767 2181.93 326.656 Q2181.93 320.545 2184.87 316.795 Q2187.84 313.045 2192.54 313.045 Q2195.41 313.045 2197.44 314.179 Q2199.5 315.29 2200.85 317.605 M2186.33 326.656 Q2186.33 331.355 2188.25 334.04 Q2190.2 336.702 2193.58 336.702 Q2196.96 336.702 2198.9 334.04 Q2200.85 331.355 2200.85 326.656 Q2200.85 321.957 2198.9 319.295 Q2196.96 316.61 2193.58 316.61 Q2190.2 316.61 2188.25 319.295 Q2186.33 321.957 2186.33 326.656 Z" fill="#000000" fill-rule="nonzero" fill-opacity="1" /><path clip-path="url(#clip140)" d="M2236.05 325.568 L2236.05 327.651 L2216.47 327.651 Q2216.75 332.049 2219.11 334.364 Q2221.49 336.656 2225.73 336.656 Q2228.18 336.656 2230.47 336.054 Q2232.79 335.452 2235.06 334.249 L2235.06 338.276 Q2232.77 339.248 2230.36 339.758 Q2227.95 340.267 2225.47 340.267 Q2219.27 340.267 2215.64 336.656 Q2212.03 333.045 2212.03 326.887 Q2212.03 320.522 2215.45 316.795 Q2218.9 313.045 2224.73 313.045 Q2229.97 313.045 2233 316.425 Q2236.05 319.781 2236.05 325.568 M2231.79 324.318 Q2231.75 320.823 2229.83 318.739 Q2227.93 316.656 2224.78 316.656 Q2221.22 316.656 2219.06 318.67 Q2216.93 320.684 2216.61 324.341 L2231.79 324.318 Z" fill="#000000" fill-rule="nonzero" fill-opacity="1" /><path clip-path="url(#clip140)" d="M2259.57 314.434 L2259.57 318.462 Q2257.77 317.536 2255.82 317.073 Q2253.88 316.61 2251.79 316.61 Q2248.62 316.61 2247.03 317.582 Q2245.45 318.554 2245.45 320.499 Q2245.45 321.98 2246.59 322.837 Q2247.72 323.67 2251.15 324.434 L2252.6 324.758 Q2257.14 325.73 2259.04 327.512 Q2260.96 329.272 2260.96 332.443 Q2260.96 336.054 2258.09 338.161 Q2255.24 340.267 2250.24 340.267 Q2248.16 340.267 2245.89 339.85 Q2243.65 339.457 2241.15 338.647 L2241.15 334.249 Q2243.51 335.475 2245.8 336.1 Q2248.09 336.702 2250.34 336.702 Q2253.35 336.702 2254.97 335.684 Q2256.59 334.642 2256.59 332.767 Q2256.59 331.031 2255.41 330.105 Q2254.25 329.179 2250.29 328.323 L2248.81 327.975 Q2244.85 327.142 2243.09 325.429 Q2241.33 323.693 2241.33 320.684 Q2241.33 317.026 2243.92 315.036 Q2246.52 313.045 2251.28 313.045 Q2253.65 313.045 2255.73 313.392 Q2257.81 313.739 2259.57 314.434 Z" fill="#000000" fill-rule="nonzero" fill-opacity="1" /></svg>
